{"glyphs":{"0":{"ha":914,"x_min":82,"x_max":832,"o":"m 460 -14 q 269 47 356 -14 q 133 217 183 107 q 82 475 82 326 q 132 733 82 625 q 267 901 182 842 q 456 961 353 961 q 647 901 561 961 q 782 733 732 842 q 832 474 832 624 q 782 215 832 325 q 647 46 732 106 q 460 -14 563 -14 m 457 56 q 611 105 543 56 q 719 249 679 154 q 758 475 758 343 q 719 700 758 607 q 611 843 679 793 q 456 893 543 893 q 303 843 371 893 q 195 700 235 793 q 156 475 156 607 q 195 249 156 343 q 303 105 235 154 q 457 56 371 56 z "},"1":{"ha":458,"x_min":56,"x_max":332,"o":"m 261 0 l 261 947 l 332 947 l 332 0 l 261 0 m 56 882 l 56 947 l 318 947 l 318 882 l 56 882 z "},"2":{"ha":750,"x_min":60,"x_max":681,"o":"m 60 47 l 411 411 q 519 531 482 483 q 569 618 556 579 q 583 700 583 657 q 527 842 583 790 q 376 893 471 893 q 233 856 294 893 q 125 744 172 818 l 72 792 q 204 918 129 875 q 378 961 279 961 q 524 928 463 961 q 621 838 586 896 q 656 699 656 779 q 640 597 656 643 q 584 498 624 550 q 471 371 544 446 l 158 51 l 60 47 m 60 0 l 60 47 l 117 65 l 681 65 l 681 0 l 60 0 z "},"3":{"ha":740,"x_min":57,"x_max":664,"o":"m 346 -14 q 181 22 256 -14 q 57 126 107 58 l 107 175 q 207 86 144 118 q 346 54 269 54 q 473 83 418 54 q 559 163 528 111 q 590 283 590 215 q 559 406 590 354 q 472 487 528 458 q 342 515 417 515 q 295 513 318 515 q 246 503 272 510 l 269 542 q 315 563 289 557 q 375 569 342 569 q 522 533 457 569 q 626 431 588 496 q 664 282 664 365 q 623 128 664 194 q 510 24 582 61 q 346 -14 439 -14 m 246 503 l 246 549 l 569 908 l 653 901 l 324 539 l 246 503 m 97 882 l 97 947 l 653 947 l 653 901 l 589 882 l 97 882 z "},"4":{"ha":826,"x_min":60,"x_max":768,"o":"m 60 301 l 421 947 l 503 947 l 135 301 l 60 301 m 60 254 l 60 301 l 90 319 l 768 319 l 768 254 l 60 254 m 551 0 l 551 639 l 622 639 l 622 0 l 551 0 z "},"5":{"ha":742,"x_min":57,"x_max":668,"o":"m 346 -14 q 181 22 254 -14 q 57 126 107 58 l 107 175 q 206 86 144 118 q 344 54 268 54 q 474 83 418 54 q 562 166 529 113 q 594 290 594 219 q 563 417 594 364 q 478 501 532 471 q 354 531 424 531 q 240 513 293 531 q 149 460 188 494 l 143 508 q 203 555 169 538 q 276 581 236 572 q 361 590 315 590 q 524 551 456 590 q 630 444 592 513 q 668 288 668 375 q 626 132 668 200 q 511 25 583 64 q 346 -14 439 -14 m 149 460 l 111 499 l 151 947 l 219 947 l 175 494 l 149 460 m 176 882 l 151 947 l 631 947 l 631 882 l 176 882 z "},"6":{"ha":788,"x_min":71,"x_max":717,"o":"m 393 -14 q 230 28 303 -14 q 114 143 157 71 q 71 304 71 215 q 151 528 71 421 l 471 947 l 557 947 l 253 556 l 228 553 q 277 589 250 574 q 338 613 304 604 q 407 621 371 621 q 562 578 492 621 q 674 466 632 536 q 717 307 717 396 q 673 146 717 219 q 556 29 629 72 q 393 -14 482 -14 m 393 51 q 519 87 463 51 q 609 180 575 122 q 643 307 643 238 q 609 435 643 376 q 519 527 575 493 q 393 561 463 561 q 267 528 324 561 q 178 437 211 494 q 144 307 144 379 q 178 178 144 236 q 267 85 211 119 q 393 51 324 51 z "},"7":{"ha":736,"x_min":56,"x_max":678,"o":"m 235 0 l 608 911 l 678 900 l 311 0 l 235 0 m 56 882 l 56 947 l 678 947 l 678 900 l 644 882 l 56 882 z "},"8":{"ha":769,"x_min":75,"x_max":696,"o":"m 385 -14 q 225 22 296 -14 q 115 121 154 58 q 75 263 75 183 q 100 378 75 325 q 171 469 125 432 q 278 521 217 507 l 297 499 q 201 547 242 514 q 140 625 161 579 q 119 724 119 671 q 153 847 119 793 q 248 931 188 900 q 385 961 308 961 q 522 931 463 961 q 616 847 582 900 q 650 724 650 793 q 629 625 650 671 q 569 547 608 579 q 474 499 529 514 l 492 521 q 599 469 553 507 q 670 378 644 432 q 696 263 696 325 q 656 121 696 183 q 545 22 615 58 q 385 -14 475 -14 m 385 50 q 509 78 456 50 q 593 155 563 106 q 624 268 624 204 q 593 379 624 331 q 509 456 563 428 q 385 483 456 483 q 261 456 315 483 q 176 379 207 428 q 146 268 146 331 q 176 155 146 204 q 261 78 207 106 q 385 50 315 50 m 385 539 q 526 589 471 539 q 581 721 581 639 q 526 850 581 800 q 385 900 471 900 q 244 850 299 900 q 190 721 190 800 q 244 589 190 639 q 385 539 299 539 z "},"9":{"ha":788,"x_min":71,"x_max":715,"o":"m 231 0 l 535 392 l 560 394 q 510 358 538 374 q 450 335 482 343 q 379 326 418 326 q 226 369 296 326 q 113 483 156 411 q 71 640 71 554 q 115 802 71 729 q 232 918 158 875 q 394 961 306 961 q 558 919 485 961 q 673 804 631 876 q 715 643 715 732 q 635 419 715 526 l 317 0 l 231 0 m 393 386 q 519 420 463 386 q 610 512 576 454 q 643 640 643 569 q 610 770 643 713 q 519 862 576 828 q 393 896 463 896 q 268 861 325 896 q 178 769 211 826 q 144 640 144 711 q 178 513 144 571 q 268 421 211 456 q 393 386 325 386 z "},"A":{"ha":950,"x_min":61,"x_max":890,"o":"m 61 0 l 447 947 l 506 947 l 890 0 l 810 0 l 461 872 l 490 872 l 139 0 l 61 0 m 229 279 l 229 344 l 722 344 l 722 279 l 229 279 z "},"Á":{"ha":950,"x_min":61,"x_max":890,"o":"m 61 0 l 447 947 l 506 947 l 890 0 l 810 0 l 461 872 l 490 872 l 139 0 l 61 0 m 229 279 l 229 344 l 722 344 l 722 279 l 229 279 m 383 1051 l 353 1082 l 540 1300 l 597 1242 l 383 1051 z "},"Ă":{"ha":950,"x_min":61,"x_max":890,"o":"m 61 0 l 447 947 l 506 947 l 890 0 l 810 0 l 461 872 l 490 872 l 139 0 l 61 0 m 229 279 l 229 344 l 722 344 l 722 279 l 229 279 m 696 1247 q 667 1135 696 1185 q 590 1056 639 1085 q 478 1026 542 1026 q 363 1056 414 1026 q 284 1135 313 1085 q 256 1247 256 1185 l 321 1247 q 364 1132 321 1178 q 481 1086 407 1086 q 557 1107 522 1086 q 612 1165 592 1128 q 632 1247 632 1201 l 696 1247 z "},"Ǎ":{"ha":950,"x_min":61,"x_max":890,"o":"m 61 0 l 447 947 l 506 947 l 890 0 l 810 0 l 461 872 l 490 872 l 139 0 l 61 0 m 229 279 l 229 344 l 722 344 l 722 279 l 229 279 m 664 1296 l 694 1265 l 506 1051 l 444 1051 l 256 1265 l 286 1296 l 499 1106 l 451 1107 l 664 1296 z "},"Â":{"ha":950,"x_min":61,"x_max":890,"o":"m 61 0 l 447 947 l 506 947 l 890 0 l 810 0 l 461 872 l 490 872 l 139 0 l 61 0 m 229 279 l 229 344 l 722 344 l 722 279 l 229 279 m 286 1051 l 256 1082 l 446 1296 l 506 1296 l 696 1082 l 665 1051 l 453 1240 l 499 1240 l 286 1051 z "},"Ä":{"ha":950,"x_min":61,"x_max":890,"o":"m 61 0 l 447 947 l 506 947 l 890 0 l 810 0 l 461 872 l 490 872 l 139 0 l 61 0 m 229 279 l 229 344 l 722 344 l 722 279 l 229 279 m 350 1063 q 310 1080 326 1063 q 294 1121 294 1097 q 310 1160 294 1144 q 350 1176 326 1176 q 390 1160 374 1176 q 407 1121 407 1144 q 390 1080 407 1097 q 350 1063 374 1063 m 600 1063 q 560 1080 576 1063 q 544 1121 544 1097 q 560 1160 544 1144 q 600 1176 576 1176 q 640 1160 624 1176 q 657 1121 657 1144 q 640 1080 657 1097 q 600 1063 624 1063 z "},"À":{"ha":950,"x_min":61,"x_max":890,"o":"m 61 0 l 447 947 l 506 947 l 890 0 l 810 0 l 461 872 l 490 872 l 139 0 l 61 0 m 229 279 l 229 344 l 722 344 l 722 279 l 229 279 m 529 1049 l 315 1239 l 374 1296 l 560 1079 l 529 1049 z "},"Ā":{"ha":950,"x_min":61,"x_max":890,"o":"m 61 0 l 447 947 l 506 947 l 890 0 l 810 0 l 461 872 l 490 872 l 139 0 l 61 0 m 229 279 l 229 344 l 722 344 l 722 279 l 229 279 m 249 1149 l 703 1149 l 703 1090 l 249 1090 l 249 1149 z "},"Ą":{"ha":950,"x_min":61,"x_max":949,"o":"m 61 0 l 447 947 l 506 947 l 890 0 l 810 0 l 461 872 l 490 872 l 139 0 l 61 0 m 229 279 l 229 344 l 722 344 l 722 279 l 229 279 m 853 -287 q 765 -258 801 -287 q 728 -171 728 -229 q 762 -71 728 -124 q 847 22 796 -18 l 890 0 q 813 -81 842 -42 q 785 -165 785 -121 q 805 -221 785 -203 q 860 -239 825 -239 q 894 -233 879 -239 q 926 -217 910 -226 l 949 -256 q 906 -279 929 -271 q 853 -287 882 -287 z "},"Å":{"ha":950,"x_min":61,"x_max":890,"o":"m 61 0 l 447 947 l 506 947 l 890 0 l 810 0 l 461 872 l 490 872 l 139 0 l 61 0 m 229 279 l 229 344 l 722 344 l 722 279 l 229 279 m 476 919 q 398 940 432 919 q 344 993 364 960 q 325 1068 325 1026 q 344 1145 325 1111 q 398 1199 364 1179 q 476 1218 432 1218 q 552 1199 519 1218 q 604 1145 585 1179 q 624 1069 624 1111 q 604 992 624 1026 q 552 939 585 958 q 476 919 519 919 m 478 975 q 540 1002 514 975 q 567 1069 567 1029 q 540 1136 567 1110 q 478 1163 514 1163 q 409 1135 435 1163 q 383 1069 383 1108 q 409 1002 383 1029 q 478 975 435 975 z "},"Ã":{"ha":950,"x_min":61,"x_max":890,"o":"m 61 0 l 447 947 l 506 947 l 890 0 l 810 0 l 461 872 l 490 872 l 139 0 l 61 0 m 229 279 l 229 344 l 722 344 l 722 279 l 229 279 m 578 1061 q 504 1076 535 1061 q 445 1107 474 1092 q 381 1122 417 1122 q 322 1108 343 1122 q 283 1069 301 1094 l 243 1106 q 299 1162 268 1140 q 379 1183 331 1183 q 457 1168 425 1183 q 517 1138 489 1153 q 576 1122 544 1122 q 630 1136 610 1122 q 668 1175 650 1150 l 708 1138 q 652 1083 683 1104 q 578 1061 621 1061 z "},"Æ":{"ha":1328,"x_min":61,"x_max":1257,"o":"m 61 0 l 447 947 l 732 947 l 732 881 l 493 881 l 139 0 l 61 0 m 246 367 l 246 431 l 721 431 l 721 367 l 246 367 m 736 0 l 736 67 l 1257 67 l 1257 0 l 736 0 m 690 0 l 690 947 l 764 947 l 764 0 l 690 0 m 731 454 l 731 518 l 1214 518 l 1214 454 l 731 454 m 736 881 l 736 947 l 1249 947 l 1249 881 l 736 881 z "},"B":{"ha":869,"x_min":129,"x_max":790,"o":"m 174 0 l 174 65 l 489 65 q 653 122 592 65 q 715 267 715 178 q 688 370 715 325 q 613 441 661 415 q 501 467 565 467 l 174 467 l 174 529 l 490 529 q 623 576 574 529 q 672 706 672 624 q 618 835 672 789 q 474 882 564 882 l 174 882 l 174 947 l 474 947 q 620 917 560 947 q 713 835 681 888 q 746 711 746 782 q 703 572 746 631 q 582 488 661 514 l 590 513 q 737 420 683 486 q 790 263 790 354 q 753 126 790 186 q 647 33 715 67 q 482 0 578 0 l 174 0 m 129 0 l 129 947 l 203 947 l 203 0 l 129 0 z "},"C":{"ha":969,"x_min":83,"x_max":906,"o":"m 558 -14 q 370 24 457 -14 q 219 128 283 61 q 119 283 154 194 q 83 475 83 372 q 118 666 83 578 q 217 820 153 754 q 367 924 282 886 q 554 961 453 961 q 747 922 660 961 q 899 815 833 883 l 847 764 q 719 857 794 824 q 554 890 644 890 q 397 859 469 890 q 272 772 325 828 q 189 640 218 715 q 160 475 160 564 q 190 310 160 386 q 272 176 219 233 q 398 88 325 119 q 556 57 471 57 q 725 91 649 57 q 854 185 801 125 l 906 135 q 753 26 842 65 q 558 -14 665 -14 z "},"Ć":{"ha":969,"x_min":83,"x_max":906,"o":"m 558 -14 q 370 24 457 -14 q 219 128 283 61 q 119 283 154 194 q 83 475 83 372 q 118 666 83 578 q 217 820 153 754 q 367 924 282 886 q 554 961 453 961 q 747 922 660 961 q 899 815 833 883 l 847 764 q 719 857 794 824 q 554 890 644 890 q 397 859 469 890 q 272 772 325 828 q 189 640 218 715 q 160 475 160 564 q 190 310 160 386 q 272 176 219 233 q 398 88 325 119 q 556 57 471 57 q 725 91 649 57 q 854 185 801 125 l 906 135 q 753 26 842 65 q 558 -14 665 -14 m 442 1051 l 411 1082 l 599 1300 l 656 1242 l 442 1051 z "},"Č":{"ha":969,"x_min":83,"x_max":906,"o":"m 558 -14 q 370 24 457 -14 q 219 128 283 61 q 119 283 154 194 q 83 475 83 372 q 118 666 83 578 q 217 820 153 754 q 367 924 282 886 q 554 961 453 961 q 747 922 660 961 q 899 815 833 883 l 847 764 q 719 857 794 824 q 554 890 644 890 q 397 859 469 890 q 272 772 325 828 q 189 640 218 715 q 160 475 160 564 q 190 310 160 386 q 272 176 219 233 q 398 88 325 119 q 556 57 471 57 q 725 91 649 57 q 854 185 801 125 l 906 135 q 753 26 842 65 q 558 -14 665 -14 m 724 1296 l 754 1265 l 564 1051 l 504 1051 l 314 1265 l 344 1296 l 557 1106 l 511 1107 l 724 1296 z "},"Ç":{"ha":969,"x_min":83,"x_max":906,"o":"m 558 -14 q 370 24 457 -14 q 219 128 283 61 q 119 283 154 194 q 83 475 83 372 q 118 666 83 578 q 217 820 153 754 q 367 924 282 886 q 554 961 453 961 q 747 922 660 961 q 899 815 833 883 l 847 764 q 719 857 794 824 q 554 890 644 890 q 397 859 469 890 q 272 772 325 828 q 189 640 218 715 q 160 475 160 564 q 190 310 160 386 q 272 176 219 233 q 398 88 325 119 q 556 57 471 57 q 725 91 649 57 q 854 185 801 125 l 906 135 q 753 26 842 65 q 558 -14 665 -14 m 518 -287 q 435 -274 475 -287 q 361 -233 394 -260 l 404 -190 q 452 -221 424 -210 q 515 -232 481 -232 q 592 -215 565 -232 q 618 -168 618 -199 q 590 -122 618 -139 q 507 -104 561 -104 l 468 -104 l 506 14 l 569 14 l 539 -83 l 511 -56 q 640 -85 593 -54 q 686 -171 686 -117 q 642 -256 686 -225 q 518 -287 597 -287 z "},"Ċ":{"ha":969,"x_min":83,"x_max":906,"o":"m 558 -14 q 370 24 457 -14 q 219 128 283 61 q 119 283 154 194 q 83 475 83 372 q 118 666 83 578 q 217 820 153 754 q 367 924 282 886 q 554 961 453 961 q 747 922 660 961 q 899 815 833 883 l 847 764 q 719 857 794 824 q 554 890 644 890 q 397 859 469 890 q 272 772 325 828 q 189 640 218 715 q 160 475 160 564 q 190 310 160 386 q 272 176 219 233 q 398 88 325 119 q 556 57 471 57 q 725 91 649 57 q 854 185 801 125 l 906 135 q 753 26 842 65 q 558 -14 665 -14 m 533 1063 q 494 1080 510 1063 q 478 1121 478 1097 q 494 1160 478 1144 q 533 1176 510 1176 q 574 1160 557 1176 q 590 1121 590 1144 q 574 1080 590 1097 q 533 1063 557 1063 z "},"D":{"ha":1026,"x_min":129,"x_max":943,"o":"m 168 0 l 168 68 l 463 68 q 673 120 582 68 q 815 264 764 172 q 867 475 867 356 q 815 685 867 593 q 672 828 764 776 q 463 879 581 879 l 172 879 l 172 947 l 464 947 q 656 912 568 947 q 808 813 743 876 q 908 663 872 750 q 943 474 943 576 q 908 285 943 372 q 808 135 872 199 q 657 35 744 71 q 467 0 569 0 l 168 0 m 129 0 l 129 947 l 203 947 l 203 0 l 129 0 z "},"Ð":{"ha":1033,"x_min":24,"x_max":950,"o":"m 24 517 l 513 517 l 513 454 l 24 454 l 24 517 m 175 0 l 175 68 l 469 68 q 680 120 589 68 q 822 264 771 172 q 874 475 874 356 q 822 685 874 593 q 679 828 771 776 q 469 879 588 879 l 179 879 l 179 947 l 471 947 q 663 912 575 947 q 815 813 750 876 q 915 663 879 750 q 950 474 950 576 q 915 285 950 372 q 815 135 879 199 q 664 35 751 71 q 474 0 576 0 l 175 0 m 136 0 l 136 947 l 210 947 l 210 0 l 136 0 z "},"Ď":{"ha":1026,"x_min":129,"x_max":943,"o":"m 168 0 l 168 68 l 463 68 q 673 120 582 68 q 815 264 764 172 q 867 475 867 356 q 815 685 867 593 q 672 828 764 776 q 463 879 581 879 l 172 879 l 172 947 l 464 947 q 656 912 568 947 q 808 813 743 876 q 908 663 872 750 q 943 474 943 576 q 908 285 943 372 q 808 135 872 199 q 657 35 744 71 q 467 0 569 0 l 168 0 m 129 0 l 129 947 l 203 947 l 203 0 l 129 0 m 653 1296 l 683 1265 l 493 1051 l 433 1051 l 243 1265 l 275 1296 l 486 1106 l 440 1107 l 653 1296 z "},"Đ":{"ha":1032,"x_min":0,"x_max":950,"o":"m 0 444 l 0 504 l 542 504 l 542 444 l 0 444 m 175 0 l 175 68 l 469 68 q 679 120 588 68 q 822 264 771 172 q 874 475 874 356 q 822 685 874 593 q 679 828 771 776 q 469 879 588 879 l 179 879 l 179 947 l 471 947 q 662 912 575 947 q 814 813 749 876 q 915 663 879 750 q 950 474 950 576 q 915 285 950 372 q 815 135 879 199 q 663 35 750 71 q 474 0 576 0 l 175 0 m 136 0 l 136 947 l 210 947 l 210 0 l 136 0 z "},"E":{"ha":818,"x_min":129,"x_max":746,"o":"m 129 0 l 129 947 l 203 947 l 203 0 l 129 0 m 176 0 l 176 67 l 746 67 l 746 0 l 176 0 m 176 454 l 176 518 l 703 518 l 703 454 l 176 454 m 176 881 l 176 947 l 739 947 l 739 881 l 176 881 z "},"É":{"ha":818,"x_min":129,"x_max":746,"o":"m 129 0 l 129 947 l 203 947 l 203 0 l 129 0 m 176 0 l 176 67 l 746 67 l 746 0 l 176 0 m 176 454 l 176 518 l 703 518 l 703 454 l 176 454 m 176 881 l 176 947 l 739 947 l 739 881 l 176 881 m 347 1051 l 317 1082 l 504 1300 l 561 1242 l 347 1051 z "},"Ě":{"ha":818,"x_min":129,"x_max":746,"o":"m 129 0 l 129 947 l 203 947 l 203 0 l 129 0 m 176 0 l 176 67 l 746 67 l 746 0 l 176 0 m 176 454 l 176 518 l 703 518 l 703 454 l 176 454 m 176 881 l 176 947 l 739 947 l 739 881 l 176 881 m 629 1296 l 660 1265 l 469 1051 l 410 1051 l 219 1265 l 250 1296 l 463 1106 l 417 1107 l 629 1296 z "},"Ê":{"ha":818,"x_min":129,"x_max":746,"o":"m 129 0 l 129 947 l 203 947 l 203 0 l 129 0 m 176 0 l 176 67 l 746 67 l 746 0 l 176 0 m 176 454 l 176 518 l 703 518 l 703 454 l 176 454 m 176 881 l 176 947 l 739 947 l 739 881 l 176 881 m 250 1051 l 219 1082 l 410 1296 l 469 1296 l 660 1082 l 629 1051 l 417 1240 l 463 1240 l 250 1051 z "},"Ë":{"ha":818,"x_min":129,"x_max":746,"o":"m 129 0 l 129 947 l 203 947 l 203 0 l 129 0 m 176 0 l 176 67 l 746 67 l 746 0 l 176 0 m 176 454 l 176 518 l 703 518 l 703 454 l 176 454 m 176 881 l 176 947 l 739 947 l 739 881 l 176 881 m 314 1063 q 274 1080 290 1063 q 258 1121 258 1097 q 274 1160 258 1144 q 314 1176 290 1176 q 354 1160 338 1176 q 371 1121 371 1144 q 354 1080 371 1097 q 314 1063 338 1063 m 564 1063 q 524 1080 540 1063 q 508 1121 508 1097 q 524 1160 508 1144 q 564 1176 540 1176 q 604 1160 588 1176 q 621 1121 621 1144 q 604 1080 621 1097 q 564 1063 588 1063 z "},"Ė":{"ha":818,"x_min":129,"x_max":746,"o":"m 129 0 l 129 947 l 203 947 l 203 0 l 129 0 m 176 0 l 176 67 l 746 67 l 746 0 l 176 0 m 176 454 l 176 518 l 703 518 l 703 454 l 176 454 m 176 881 l 176 947 l 739 947 l 739 881 l 176 881 m 439 1063 q 399 1080 415 1063 q 383 1121 383 1097 q 399 1160 383 1144 q 439 1176 415 1176 q 479 1160 463 1176 q 496 1121 496 1144 q 479 1080 496 1097 q 439 1063 463 1063 z "},"È":{"ha":818,"x_min":129,"x_max":746,"o":"m 129 0 l 129 947 l 203 947 l 203 0 l 129 0 m 176 0 l 176 67 l 746 67 l 746 0 l 176 0 m 176 454 l 176 518 l 703 518 l 703 454 l 176 454 m 176 881 l 176 947 l 739 947 l 739 881 l 176 881 m 494 1049 l 281 1239 l 339 1296 l 525 1079 l 494 1049 z "},"Ē":{"ha":818,"x_min":129,"x_max":746,"o":"m 129 0 l 129 947 l 203 947 l 203 0 l 129 0 m 176 0 l 176 67 l 746 67 l 746 0 l 176 0 m 176 454 l 176 518 l 703 518 l 703 454 l 176 454 m 176 881 l 176 947 l 739 947 l 739 881 l 176 881 m 213 1149 l 667 1149 l 667 1090 l 213 1090 l 213 1149 z "},"Ę":{"ha":818,"x_min":129,"x_max":804,"o":"m 129 0 l 129 947 l 203 947 l 203 0 l 129 0 m 176 0 l 176 67 l 746 67 l 746 0 l 176 0 m 176 454 l 176 518 l 703 518 l 703 454 l 176 454 m 176 881 l 176 947 l 739 947 l 739 881 l 176 881 m 708 -287 q 620 -258 657 -287 q 583 -171 583 -229 q 617 -71 583 -124 q 703 22 651 -18 l 746 0 q 669 -81 697 -42 q 640 -165 640 -121 q 660 -221 640 -203 q 715 -239 681 -239 q 750 -233 735 -239 q 782 -217 765 -226 l 804 -256 q 761 -279 785 -271 q 708 -287 738 -287 z "},"F":{"ha":788,"x_min":129,"x_max":719,"o":"m 129 0 l 129 947 l 203 947 l 203 0 l 129 0 m 176 439 l 176 506 l 696 506 l 696 439 l 176 439 m 176 881 l 176 947 l 719 947 l 719 881 l 176 881 z "},"G":{"ha":1075,"x_min":83,"x_max":1000,"o":"m 560 -12 q 369 24 457 -12 q 218 126 282 61 q 119 281 154 192 q 83 474 83 369 q 119 667 83 578 q 220 822 156 756 q 372 926 285 889 q 563 963 460 963 q 774 917 678 963 q 929 785 869 871 l 878 733 q 744 851 825 810 q 563 892 663 892 q 354 838 446 892 q 211 689 263 783 q 160 474 160 594 q 211 258 160 353 q 351 111 263 164 q 557 58 440 58 q 750 104 668 58 q 878 238 832 150 q 924 449 924 326 l 961 421 l 543 421 l 543 488 l 1000 488 l 1000 475 q 945 210 1000 319 q 791 44 890 101 q 560 -12 692 -12 z "},"Ğ":{"ha":1075,"x_min":83,"x_max":1000,"o":"m 560 -12 q 369 24 457 -12 q 218 126 282 61 q 119 281 154 192 q 83 474 83 369 q 119 667 83 578 q 220 822 156 756 q 372 926 285 889 q 563 963 460 963 q 774 917 678 963 q 929 785 869 871 l 878 733 q 744 851 825 810 q 563 892 663 892 q 354 838 446 892 q 211 689 263 783 q 160 474 160 594 q 211 258 160 353 q 351 111 263 164 q 557 58 440 58 q 750 104 668 58 q 878 238 832 150 q 924 449 924 326 l 961 421 l 543 421 l 543 488 l 1000 488 l 1000 475 q 945 210 1000 319 q 791 44 890 101 q 560 -12 692 -12 m 772 1247 q 744 1135 772 1185 q 667 1056 715 1085 q 554 1026 618 1026 q 440 1056 490 1026 q 360 1135 389 1085 q 332 1247 332 1185 l 397 1247 q 440 1132 397 1178 q 557 1086 483 1086 q 633 1107 599 1086 q 688 1165 668 1128 q 708 1247 708 1201 l 772 1247 z "},"Ģ":{"ha":1075,"x_min":83,"x_max":1000,"o":"m 560 -12 q 369 24 457 -12 q 218 126 282 61 q 119 281 154 192 q 83 474 83 369 q 119 667 83 578 q 220 822 156 756 q 372 926 285 889 q 563 963 460 963 q 774 917 678 963 q 929 785 869 871 l 878 733 q 744 851 825 810 q 563 892 663 892 q 354 838 446 892 q 211 689 263 783 q 160 474 160 594 q 211 258 160 353 q 351 111 263 164 q 557 58 440 58 q 750 104 668 58 q 878 238 832 150 q 924 449 924 326 l 961 421 l 543 421 l 543 488 l 1000 488 l 1000 475 q 945 210 1000 319 q 791 44 890 101 q 560 -12 692 -12 m 529 -392 l 483 -367 l 554 -224 l 582 -218 q 569 -237 578 -229 q 546 -244 560 -244 q 503 -226 522 -244 q 485 -181 485 -208 q 505 -131 485 -151 q 554 -111 525 -111 q 601 -131 581 -111 q 622 -181 622 -151 q 619 -209 622 -193 q 601 -250 615 -225 l 529 -392 z "},"Ġ":{"ha":1075,"x_min":83,"x_max":1000,"o":"m 560 -12 q 369 24 457 -12 q 218 126 282 61 q 119 281 154 192 q 83 474 83 369 q 119 667 83 578 q 220 822 156 756 q 372 926 285 889 q 563 963 460 963 q 774 917 678 963 q 929 785 869 871 l 878 733 q 744 851 825 810 q 563 892 663 892 q 354 838 446 892 q 211 689 263 783 q 160 474 160 594 q 211 258 160 353 q 351 111 263 164 q 557 58 440 58 q 750 104 668 58 q 878 238 832 150 q 924 449 924 326 l 961 421 l 543 421 l 543 488 l 1000 488 l 1000 475 q 945 210 1000 319 q 791 44 890 101 q 560 -12 692 -12 m 551 1063 q 512 1080 528 1063 q 496 1121 496 1097 q 512 1160 496 1144 q 551 1176 528 1176 q 592 1160 575 1176 q 608 1121 608 1144 q 592 1080 608 1097 q 551 1063 575 1063 z "},"H":{"ha":963,"x_min":129,"x_max":833,"o":"m 129 0 l 129 947 l 203 947 l 203 0 l 129 0 m 760 0 l 760 947 l 833 947 l 833 0 l 760 0 m 176 454 l 176 521 l 786 521 l 786 454 l 176 454 z "},"Ħ":{"ha":940,"x_min":0,"x_max":940,"o":"m 0 736 l 0 794 l 940 794 l 940 736 l 0 736 m 118 0 l 118 947 l 192 947 l 192 0 l 118 0 m 749 0 l 749 947 l 822 947 l 822 0 l 749 0 m 164 454 l 164 521 l 774 521 l 774 454 l 164 454 z "},"I":{"ha":332,"x_min":129,"x_max":203,"o":"m 129 0 l 129 947 l 203 947 l 203 0 l 129 0 z "},"Ĳ":{"ha":832,"x_min":129,"x_max":713,"o":"m 439 -14 q 303 16 361 -14 q 203 99 246 46 l 253 147 q 333 80 288 103 q 438 57 378 57 q 535 80 489 57 q 610 153 581 103 q 639 282 639 203 l 639 947 l 713 947 l 713 279 q 674 119 713 185 q 574 20 636 54 q 439 -14 511 -14 m 129 306 l 129 951 l 201 951 l 201 306 l 129 306 z "},"Í":{"ha":332,"x_min":44,"x_max":289,"o":"m 129 0 l 129 947 l 203 947 l 203 0 l 129 0 m 75 1051 l 44 1082 l 232 1300 l 289 1242 l 75 1051 z "},"Î":{"ha":332,"x_min":-54,"x_max":386,"o":"m 129 0 l 129 947 l 203 947 l 203 0 l 129 0 m -24 1051 l -54 1082 l 136 1296 l 196 1296 l 386 1082 l 356 1051 l 143 1240 l 189 1240 l -24 1051 z "},"Ï":{"ha":332,"x_min":-14,"x_max":347,"o":"m 129 0 l 129 947 l 203 947 l 203 0 l 129 0 m 42 1063 q 2 1080 18 1063 q -14 1121 -14 1097 q 2 1160 -14 1144 q 42 1176 18 1176 q 82 1160 65 1176 q 99 1121 99 1144 q 82 1080 99 1097 q 42 1063 65 1063 m 292 1063 q 252 1080 268 1063 q 236 1121 236 1097 q 252 1160 236 1144 q 292 1176 268 1176 q 332 1160 315 1176 q 349 1121 349 1144 q 332 1080 349 1097 q 292 1063 315 1063 z "},"İ":{"ha":332,"x_min":111,"x_max":222,"o":"m 129 0 l 129 947 l 203 947 l 203 0 l 129 0 m 167 1063 q 127 1080 143 1063 q 111 1121 111 1097 q 127 1160 111 1144 q 167 1176 143 1176 q 207 1160 190 1176 q 224 1121 224 1144 q 207 1080 224 1097 q 167 1063 190 1063 z "},"Ì":{"ha":332,"x_min":7,"x_max":251,"o":"m 129 0 l 129 947 l 203 947 l 203 0 l 129 0 m 221 1049 l 7 1239 l 65 1296 l 251 1079 l 221 1049 z "},"Ī":{"ha":332,"x_min":-14,"x_max":347,"o":"m -14 1149 l 347 1149 l 347 1090 l -14 1090 l -14 1149 m 129 0 l 129 947 l 203 947 l 203 0 l 129 0 z "},"Į":{"ha":332,"x_min":40,"x_max":261,"o":"m 129 0 l 129 947 l 203 947 l 203 0 l 129 0 m 165 -287 q 77 -258 114 -287 q 40 -171 40 -229 q 74 -71 40 -124 q 160 22 108 -18 l 203 0 q 126 -81 154 -42 q 97 -165 97 -121 q 117 -221 97 -203 q 172 -239 138 -239 q 207 -233 192 -239 q 239 -217 222 -226 l 261 -256 q 218 -279 242 -271 q 165 -287 194 -287 z "},"J":{"ha":689,"x_min":60,"x_max":569,"o":"m 296 -14 q 160 16 218 -14 q 60 99 103 46 l 110 147 q 190 80 144 103 q 294 57 235 57 q 392 80 346 57 q 467 153 438 103 q 496 282 496 203 l 496 947 l 569 947 l 569 279 q 531 119 569 185 q 431 20 493 54 q 296 -14 368 -14 z "},"K":{"ha":907,"x_min":129,"x_max":849,"o":"m 744 0 l 186 493 l 732 947 l 835 947 l 263 474 l 263 517 l 849 0 l 744 0 m 129 0 l 129 947 l 203 947 l 203 0 l 129 0 z "},"Ķ":{"ha":907,"x_min":129,"x_max":849,"o":"m 744 0 l 186 493 l 732 947 l 835 947 l 263 474 l 263 517 l 849 0 l 744 0 m 129 0 l 129 947 l 203 947 l 203 0 l 129 0 m 417 -392 l 371 -367 l 442 -224 l 469 -218 q 456 -237 465 -229 q 433 -244 447 -244 q 391 -226 410 -244 q 372 -181 372 -208 q 392 -131 372 -151 q 442 -111 413 -111 q 489 -131 468 -111 q 510 -181 510 -151 q 506 -209 510 -193 q 489 -250 503 -225 l 417 -392 z "},"L":{"ha":772,"x_min":129,"x_max":711,"o":"m 129 0 l 129 947 l 203 947 l 203 0 l 129 0 m 176 0 l 176 67 l 711 67 l 711 0 l 176 0 z "},"Ĺ":{"ha":772,"x_min":129,"x_max":711,"o":"m 129 0 l 129 947 l 203 947 l 203 0 l 129 0 m 176 0 l 176 67 l 711 67 l 711 0 l 176 0 m 329 1051 l 299 1082 l 486 1300 l 543 1242 l 329 1051 z "},"Ľ":{"ha":772,"x_min":129,"x_max":711,"o":"m 129 0 l 129 947 l 203 947 l 203 0 l 129 0 m 176 0 l 176 67 l 711 67 l 711 0 l 176 0 m 350 667 l 304 692 l 376 835 l 403 840 q 390 822 399 829 q 367 814 381 814 q 324 833 343 814 q 306 878 306 851 q 326 927 306 907 q 375 947 347 947 q 423 927 403 947 q 443 878 443 907 q 440 851 443 867 q 424 808 436 835 l 350 667 z "},"Ļ":{"ha":772,"x_min":129,"x_max":711,"o":"m 129 0 l 129 947 l 203 947 l 203 0 l 129 0 m 176 0 l 176 67 l 711 67 l 711 0 l 176 0 m 399 -392 l 353 -367 l 424 -224 l 451 -218 q 438 -237 447 -229 q 415 -244 429 -244 q 373 -226 392 -244 q 354 -181 354 -208 q 374 -131 354 -151 q 424 -111 394 -111 q 471 -131 450 -111 q 492 -181 492 -151 q 488 -209 492 -193 q 471 -250 485 -225 l 399 -392 z "},"Ł":{"ha":894,"x_min":104,"x_max":833,"o":"m 104 418 l 468 626 l 468 557 l 104 349 l 104 418 m 251 0 l 251 947 l 325 947 l 325 0 l 251 0 m 299 0 l 299 67 l 833 67 l 833 0 l 299 0 z "},"M":{"ha":1157,"x_min":129,"x_max":1028,"o":"m 129 0 l 129 947 l 182 947 l 599 264 l 558 264 l 975 947 l 1028 947 l 1028 0 l 954 0 l 954 821 l 972 817 l 606 215 l 553 215 l 186 817 l 203 821 l 203 0 l 129 0 z "},"N":{"ha":967,"x_min":129,"x_max":838,"o":"m 129 0 l 129 947 l 182 947 l 203 858 l 203 0 l 129 0 m 785 0 l 171 850 l 182 947 l 797 99 l 785 0 m 785 0 l 764 86 l 764 947 l 838 947 l 838 0 l 785 0 z "},"Ń":{"ha":967,"x_min":129,"x_max":838,"o":"m 129 0 l 129 947 l 182 947 l 203 858 l 203 0 l 129 0 m 785 0 l 171 850 l 182 947 l 797 99 l 785 0 m 785 0 l 764 86 l 764 947 l 838 947 l 838 0 l 785 0 m 392 1051 l 361 1082 l 549 1300 l 606 1242 l 392 1051 z "},"Ň":{"ha":967,"x_min":129,"x_max":838,"o":"m 129 0 l 129 947 l 182 947 l 203 858 l 203 0 l 129 0 m 785 0 l 171 850 l 182 947 l 797 99 l 785 0 m 785 0 l 764 86 l 764 947 l 838 947 l 838 0 l 785 0 m 674 1296 l 704 1265 l 514 1051 l 454 1051 l 264 1265 l 294 1296 l 507 1106 l 461 1107 l 674 1296 z "},"Ņ":{"ha":967,"x_min":129,"x_max":838,"o":"m 129 0 l 129 947 l 182 947 l 203 858 l 203 0 l 129 0 m 785 0 l 171 850 l 182 947 l 797 99 l 785 0 m 785 0 l 764 86 l 764 947 l 838 947 l 838 0 l 785 0 m 463 -392 l 417 -367 l 488 -224 l 515 -218 q 502 -237 511 -229 q 479 -244 493 -244 q 437 -226 456 -244 q 418 -181 418 -208 q 438 -131 418 -151 q 488 -111 458 -111 q 535 -131 514 -111 q 556 -181 556 -151 q 552 -209 556 -193 q 535 -250 549 -225 l 463 -392 z "},"Ñ":{"ha":967,"x_min":129,"x_max":838,"o":"m 129 0 l 129 947 l 182 947 l 203 858 l 203 0 l 129 0 m 785 0 l 171 850 l 182 947 l 797 99 l 785 0 m 785 0 l 764 86 l 764 947 l 838 947 l 838 0 l 785 0 m 586 1061 q 513 1076 543 1061 q 453 1107 482 1092 q 389 1122 425 1122 q 331 1108 351 1122 q 292 1069 310 1094 l 251 1106 q 308 1162 276 1140 q 388 1183 339 1183 q 465 1168 433 1183 q 525 1138 497 1153 q 585 1122 553 1122 q 638 1136 618 1122 q 676 1175 658 1150 l 717 1138 q 660 1083 692 1104 q 586 1061 629 1061 z "},"Ŋ":{"ha":967,"x_min":129,"x_max":838,"o":"m 129 0 l 129 947 l 182 947 l 203 858 l 203 0 l 129 0 m 785 0 l 171 850 l 182 947 l 797 99 l 785 0 m 785 0 l 764 86 l 764 947 l 838 947 l 838 0 l 785 0 m 644 -287 q 554 -270 594 -287 q 483 -219 514 -253 l 531 -174 q 582 -210 554 -199 q 642 -222 610 -222 q 731 -192 694 -222 q 767 -94 767 -161 l 767 646 l 838 646 l 838 -93 q 810 -200 838 -157 q 740 -265 783 -243 q 644 -287 696 -287 z "},"O":{"ha":1101,"x_min":83,"x_max":1019,"o":"m 553 -14 q 367 24 453 -14 q 218 128 282 61 q 119 285 154 196 q 83 475 83 374 q 118 666 83 578 q 217 821 153 754 q 365 924 281 888 q 550 961 450 961 q 735 924 650 961 q 884 821 821 888 q 983 665 947 754 q 1019 474 1019 576 q 984 283 1019 372 q 885 128 949 194 q 737 24 821 61 q 553 -14 653 -14 m 550 57 q 752 112 664 57 q 892 261 840 167 q 943 475 943 356 q 913 640 943 564 q 831 772 883 715 q 706 859 778 828 q 550 890 635 890 q 349 836 438 890 q 210 688 261 782 q 160 475 160 594 q 189 310 160 386 q 271 176 218 233 q 395 88 324 119 q 550 57 467 57 z "},"Ó":{"ha":1101,"x_min":83,"x_max":1019,"o":"m 553 -14 q 367 24 453 -14 q 218 128 282 61 q 119 285 154 196 q 83 475 83 374 q 118 666 83 578 q 217 821 153 754 q 365 924 281 888 q 550 961 450 961 q 735 924 650 961 q 884 821 821 888 q 983 665 947 754 q 1019 474 1019 576 q 984 283 1019 372 q 885 128 949 194 q 737 24 821 61 q 553 -14 653 -14 m 550 57 q 752 112 664 57 q 892 261 840 167 q 943 475 943 356 q 913 640 943 564 q 831 772 883 715 q 706 859 778 828 q 550 890 635 890 q 349 836 438 890 q 210 688 261 782 q 160 475 160 594 q 189 310 160 386 q 271 176 218 233 q 395 88 324 119 q 550 57 467 57 m 460 1051 l 429 1082 l 617 1300 l 674 1242 l 460 1051 z "},"Ô":{"ha":1101,"x_min":83,"x_max":1019,"o":"m 553 -14 q 367 24 453 -14 q 218 128 282 61 q 119 285 154 196 q 83 475 83 374 q 118 666 83 578 q 217 821 153 754 q 365 924 281 888 q 550 961 450 961 q 735 924 650 961 q 884 821 821 888 q 983 665 947 754 q 1019 474 1019 576 q 984 283 1019 372 q 885 128 949 194 q 737 24 821 61 q 553 -14 653 -14 m 550 57 q 752 112 664 57 q 892 261 840 167 q 943 475 943 356 q 913 640 943 564 q 831 772 883 715 q 706 859 778 828 q 550 890 635 890 q 349 836 438 890 q 210 688 261 782 q 160 475 160 594 q 189 310 160 386 q 271 176 218 233 q 395 88 324 119 q 550 57 467 57 m 363 1051 l 332 1082 l 522 1296 l 582 1296 l 772 1082 l 742 1051 l 529 1240 l 575 1240 l 363 1051 z "},"Ö":{"ha":1101,"x_min":83,"x_max":1019,"o":"m 553 -14 q 367 24 453 -14 q 218 128 282 61 q 119 285 154 196 q 83 475 83 374 q 118 666 83 578 q 217 821 153 754 q 365 924 281 888 q 550 961 450 961 q 735 924 650 961 q 884 821 821 888 q 983 665 947 754 q 1019 474 1019 576 q 984 283 1019 372 q 885 128 949 194 q 737 24 821 61 q 553 -14 653 -14 m 550 57 q 752 112 664 57 q 892 261 840 167 q 943 475 943 356 q 913 640 943 564 q 831 772 883 715 q 706 859 778 828 q 550 890 635 890 q 349 836 438 890 q 210 688 261 782 q 160 475 160 594 q 189 310 160 386 q 271 176 218 233 q 395 88 324 119 q 550 57 467 57 m 426 1063 q 387 1080 403 1063 q 371 1121 371 1097 q 387 1160 371 1144 q 426 1176 403 1176 q 467 1160 450 1176 q 483 1121 483 1144 q 467 1080 483 1097 q 426 1063 450 1063 m 676 1063 q 637 1080 653 1063 q 621 1121 621 1097 q 637 1160 621 1144 q 676 1176 653 1176 q 717 1160 700 1176 q 733 1121 733 1144 q 717 1080 733 1097 q 676 1063 700 1063 z "},"Ò":{"ha":1101,"x_min":83,"x_max":1019,"o":"m 553 -14 q 367 24 453 -14 q 218 128 282 61 q 119 285 154 196 q 83 475 83 374 q 118 666 83 578 q 217 821 153 754 q 365 924 281 888 q 550 961 450 961 q 735 924 650 961 q 884 821 821 888 q 983 665 947 754 q 1019 474 1019 576 q 984 283 1019 372 q 885 128 949 194 q 737 24 821 61 q 553 -14 653 -14 m 550 57 q 752 112 664 57 q 892 261 840 167 q 943 475 943 356 q 913 640 943 564 q 831 772 883 715 q 706 859 778 828 q 550 890 635 890 q 349 836 438 890 q 210 688 261 782 q 160 475 160 594 q 189 310 160 386 q 271 176 218 233 q 395 88 324 119 q 550 57 467 57 m 606 1049 l 392 1239 l 450 1296 l 636 1079 l 606 1049 z "},"Ő":{"ha":1101,"x_min":83,"x_max":1019,"o":"m 553 -14 q 367 24 453 -14 q 218 128 282 61 q 119 285 154 196 q 83 475 83 374 q 118 666 83 578 q 217 821 153 754 q 365 924 281 888 q 550 961 450 961 q 735 924 650 961 q 884 821 821 888 q 983 665 947 754 q 1019 474 1019 576 q 984 283 1019 372 q 885 128 949 194 q 737 24 821 61 q 553 -14 653 -14 m 550 57 q 752 112 664 57 q 892 261 840 167 q 943 475 943 356 q 913 640 943 564 q 831 772 883 715 q 706 859 778 828 q 550 890 635 890 q 349 836 438 890 q 210 688 261 782 q 160 475 160 594 q 189 310 160 386 q 271 176 218 233 q 395 88 324 119 q 550 57 467 57 m 419 1032 l 379 1047 l 457 1324 l 533 1294 l 419 1032 m 606 1032 l 565 1047 l 643 1324 l 719 1294 l 606 1032 z "},"Ō":{"ha":1101,"x_min":83,"x_max":1019,"o":"m 553 -14 q 367 24 453 -14 q 218 128 282 61 q 119 285 154 196 q 83 475 83 374 q 118 666 83 578 q 217 821 153 754 q 365 924 281 888 q 550 961 450 961 q 735 924 650 961 q 884 821 821 888 q 983 665 947 754 q 1019 474 1019 576 q 984 283 1019 372 q 885 128 949 194 q 737 24 821 61 q 553 -14 653 -14 m 550 57 q 752 112 664 57 q 892 261 840 167 q 943 475 943 356 q 913 640 943 564 q 831 772 883 715 q 706 859 778 828 q 550 890 635 890 q 349 836 438 890 q 210 688 261 782 q 160 475 160 594 q 189 310 160 386 q 271 176 218 233 q 395 88 324 119 q 550 57 467 57 m 325 1149 l 779 1149 l 779 1090 l 325 1090 l 325 1149 z "},"Ø":{"ha":1101,"x_min":82,"x_max":1018,"o":"m 960 931 l 1007 882 l 140 17 l 93 65 l 960 931 m 551 -14 q 366 24 451 -14 q 217 128 281 61 q 117 285 153 196 q 82 475 82 374 q 117 666 82 578 q 215 821 151 754 q 364 924 279 888 q 549 961 449 961 q 734 924 649 961 q 883 821 819 888 q 983 665 947 754 q 1018 474 1018 576 q 983 283 1018 372 q 884 128 947 194 q 736 24 821 61 q 551 -14 651 -14 m 549 57 q 751 112 663 57 q 890 261 839 167 q 942 475 942 356 q 912 640 942 564 q 829 772 882 715 q 706 859 776 828 q 549 890 635 890 q 348 836 436 890 q 209 688 260 782 q 158 475 158 594 q 188 310 158 386 q 269 176 217 233 q 394 88 322 119 q 549 57 465 57 z "},"Õ":{"ha":1101,"x_min":83,"x_max":1019,"o":"m 553 -14 q 367 24 453 -14 q 218 128 282 61 q 119 285 154 196 q 83 475 83 374 q 118 666 83 578 q 217 821 153 754 q 365 924 281 888 q 550 961 450 961 q 735 924 650 961 q 884 821 821 888 q 983 665 947 754 q 1019 474 1019 576 q 984 283 1019 372 q 885 128 949 194 q 737 24 821 61 q 553 -14 653 -14 m 550 57 q 752 112 664 57 q 892 261 840 167 q 943 475 943 356 q 913 640 943 564 q 831 772 883 715 q 706 859 778 828 q 550 890 635 890 q 349 836 438 890 q 210 688 261 782 q 160 475 160 594 q 189 310 160 386 q 271 176 218 233 q 395 88 324 119 q 550 57 467 57 m 654 1061 q 581 1076 611 1061 q 522 1107 550 1092 q 457 1122 493 1122 q 399 1108 419 1122 q 360 1069 378 1094 l 319 1106 q 376 1162 344 1140 q 456 1183 407 1183 q 533 1168 501 1183 q 593 1138 565 1153 q 653 1122 621 1122 q 706 1136 686 1122 q 744 1175 726 1150 l 785 1138 q 728 1083 760 1104 q 654 1061 697 1061 z "},"Œ":{"ha":1631,"x_min":83,"x_max":1560,"o":"m 553 -14 q 367 24 453 -14 q 218 128 282 61 q 119 285 154 196 q 83 475 83 374 q 118 666 83 578 q 217 821 153 754 q 365 924 281 888 q 550 961 450 961 q 737 924 654 961 q 879 821 819 888 q 970 665 939 754 q 1001 474 1001 576 q 970 283 1001 372 q 880 128 939 194 q 738 24 821 61 q 553 -14 656 -14 m 550 57 q 757 112 668 57 q 894 261 846 167 q 943 475 943 356 q 894 687 943 593 q 757 835 846 781 q 550 890 668 890 q 349 836 438 890 q 210 688 261 782 q 160 475 160 594 q 189 310 160 386 q 271 176 218 233 q 395 88 324 119 q 550 57 467 57 m 943 0 l 943 947 l 1015 947 l 1015 0 l 943 0 m 989 0 l 989 67 l 1560 67 l 1560 0 l 989 0 m 989 454 l 989 518 l 1517 518 l 1517 454 l 989 454 m 989 881 l 989 947 l 1551 947 l 1551 881 l 989 881 z "},"P":{"ha":846,"x_min":129,"x_max":771,"o":"m 174 392 l 174 457 l 474 457 q 589 483 539 457 q 668 556 639 508 q 697 669 697 604 q 668 783 697 735 q 589 856 639 831 q 474 882 539 882 l 174 882 l 174 947 l 482 947 q 630 913 565 947 q 733 817 694 879 q 771 669 771 754 q 733 523 771 585 q 630 426 694 461 q 482 392 565 392 l 174 392 m 129 0 l 129 947 l 203 947 l 203 0 l 129 0 z "},"Þ":{"ha":846,"x_min":129,"x_max":771,"o":"m 174 208 l 174 274 l 474 274 q 589 299 539 274 q 668 372 639 325 q 697 486 697 419 q 668 599 697 551 q 589 673 639 647 q 474 699 539 699 l 174 699 l 174 764 l 482 764 q 630 729 565 764 q 733 633 694 694 q 771 486 771 571 q 733 339 771 401 q 630 242 694 276 q 482 208 565 208 l 174 208 m 129 0 l 129 947 l 203 947 l 203 0 l 129 0 z "},"Q":{"ha":1125,"x_min":83,"x_max":1094,"o":"m 553 -14 q 367 24 453 -14 q 218 128 282 61 q 119 285 154 196 q 83 475 83 374 q 118 666 83 578 q 217 821 153 754 q 365 924 281 888 q 550 961 450 961 q 735 924 650 961 q 885 821 821 888 q 984 665 949 754 q 1019 474 1019 576 q 984 283 1019 372 q 885 128 949 194 q 738 24 822 61 q 553 -14 653 -14 m 1047 -69 l 569 408 l 617 456 l 1094 -24 l 1047 -69 m 550 57 q 752 112 664 57 q 892 261 840 167 q 943 475 943 356 q 913 640 943 564 q 831 772 883 715 q 707 859 778 828 q 550 890 636 890 q 349 836 438 890 q 210 688 261 782 q 160 475 160 594 q 189 310 160 386 q 271 176 218 233 q 395 88 324 119 q 550 57 467 57 z "},"R":{"ha":882,"x_min":129,"x_max":825,"o":"m 174 435 l 174 497 l 467 497 q 626 550 571 497 q 682 690 682 603 q 627 829 682 776 q 467 882 572 882 l 174 882 l 174 947 l 464 947 q 621 915 556 947 q 721 824 686 882 q 756 690 756 767 q 721 556 756 614 q 621 467 686 499 q 464 435 556 435 l 174 435 m 129 0 l 129 947 l 203 947 l 203 0 l 129 0 m 729 0 l 363 451 l 436 471 l 825 0 l 729 0 z "},"Ŕ":{"ha":882,"x_min":129,"x_max":825,"o":"m 174 435 l 174 497 l 467 497 q 626 550 571 497 q 682 690 682 603 q 627 829 682 776 q 467 882 572 882 l 174 882 l 174 947 l 464 947 q 621 915 556 947 q 721 824 686 882 q 756 690 756 767 q 721 556 756 614 q 621 467 686 499 q 464 435 556 435 l 174 435 m 129 0 l 129 947 l 203 947 l 203 0 l 129 0 m 729 0 l 363 451 l 436 471 l 825 0 l 729 0 m 310 1051 l 279 1082 l 467 1300 l 524 1242 l 310 1051 z "},"Ř":{"ha":882,"x_min":129,"x_max":825,"o":"m 174 435 l 174 497 l 467 497 q 626 550 571 497 q 682 690 682 603 q 627 829 682 776 q 467 882 572 882 l 174 882 l 174 947 l 464 947 q 621 915 556 947 q 721 824 686 882 q 756 690 756 767 q 721 556 756 614 q 621 467 686 499 q 464 435 556 435 l 174 435 m 129 0 l 129 947 l 203 947 l 203 0 l 129 0 m 729 0 l 363 451 l 436 471 l 825 0 l 729 0 m 590 1296 l 621 1265 l 431 1051 l 371 1051 l 181 1265 l 213 1296 l 424 1106 l 378 1107 l 590 1296 z "},"Ŗ":{"ha":882,"x_min":129,"x_max":825,"o":"m 174 435 l 174 497 l 467 497 q 626 550 571 497 q 682 690 682 603 q 627 829 682 776 q 467 882 572 882 l 174 882 l 174 947 l 464 947 q 621 915 556 947 q 721 824 686 882 q 756 690 756 767 q 721 556 756 614 q 621 467 686 499 q 464 435 556 435 l 174 435 m 129 0 l 129 947 l 203 947 l 203 0 l 129 0 m 729 0 l 363 451 l 436 471 l 825 0 l 729 0 m 406 -392 l 360 -367 l 431 -224 l 458 -218 q 445 -237 454 -229 q 422 -244 436 -244 q 380 -226 399 -244 q 361 -181 361 -208 q 381 -131 361 -151 q 431 -111 401 -111 q 478 -131 457 -111 q 499 -181 499 -151 q 495 -209 499 -193 q 478 -250 492 -225 l 406 -392 z "},"S":{"ha":768,"x_min":61,"x_max":688,"o":"m 392 -14 q 200 28 281 -14 q 61 146 119 71 l 113 196 q 235 88 167 122 q 394 54 304 54 q 553 100 492 54 q 614 228 614 146 q 588 329 614 290 q 517 393 561 368 q 422 438 474 418 q 317 477 369 457 q 222 527 265 497 q 152 604 179 557 q 125 724 125 651 q 160 849 125 796 q 258 932 196 903 q 400 961 319 961 q 564 926 492 961 q 685 826 636 890 l 633 776 q 531 863 588 833 q 399 893 475 893 q 255 849 310 893 q 200 728 200 806 q 226 633 200 669 q 297 573 253 597 q 392 531 340 549 q 496 492 444 513 q 591 440 547 471 q 661 360 635 408 q 688 236 688 311 q 608 51 688 115 q 392 -14 528 -14 z "},"Ś":{"ha":768,"x_min":61,"x_max":688,"o":"m 392 -14 q 200 28 281 -14 q 61 146 119 71 l 113 196 q 235 88 167 122 q 394 54 304 54 q 553 100 492 54 q 614 228 614 146 q 588 329 614 290 q 517 393 561 368 q 422 438 474 418 q 317 477 369 457 q 222 527 265 497 q 152 604 179 557 q 125 724 125 651 q 160 849 125 796 q 258 932 196 903 q 400 961 319 961 q 564 926 492 961 q 685 826 636 890 l 633 776 q 531 863 588 833 q 399 893 475 893 q 255 849 310 893 q 200 728 200 806 q 226 633 200 669 q 297 573 253 597 q 392 531 340 549 q 496 492 444 513 q 591 440 547 471 q 661 360 635 408 q 688 236 688 311 q 608 51 688 115 q 392 -14 528 -14 m 308 1051 l 278 1082 l 465 1300 l 522 1242 l 308 1051 z "},"Š":{"ha":768,"x_min":61,"x_max":688,"o":"m 392 -14 q 200 28 281 -14 q 61 146 119 71 l 113 196 q 235 88 167 122 q 394 54 304 54 q 553 100 492 54 q 614 228 614 146 q 588 329 614 290 q 517 393 561 368 q 422 438 474 418 q 317 477 369 457 q 222 527 265 497 q 152 604 179 557 q 125 724 125 651 q 160 849 125 796 q 258 932 196 903 q 400 961 319 961 q 564 926 492 961 q 685 826 636 890 l 633 776 q 531 863 588 833 q 399 893 475 893 q 255 849 310 893 q 200 728 200 806 q 226 633 200 669 q 297 573 253 597 q 392 531 340 549 q 496 492 444 513 q 591 440 547 471 q 661 360 635 408 q 688 236 688 311 q 608 51 688 115 q 392 -14 528 -14 m 589 1296 l 619 1265 l 429 1051 l 369 1051 l 179 1265 l 211 1296 l 422 1106 l 376 1107 l 589 1296 z "},"Ş":{"ha":768,"x_min":61,"x_max":688,"o":"m 392 -14 q 200 28 281 -14 q 61 146 119 71 l 113 196 q 235 88 167 122 q 394 54 304 54 q 553 100 492 54 q 614 228 614 146 q 588 329 614 290 q 517 393 561 368 q 422 438 474 418 q 317 477 369 457 q 222 527 265 497 q 152 604 179 557 q 125 724 125 651 q 160 849 125 796 q 258 932 196 903 q 400 961 319 961 q 564 926 492 961 q 685 826 636 890 l 633 776 q 531 863 588 833 q 399 893 475 893 q 255 849 310 893 q 200 728 200 806 q 226 633 200 669 q 297 573 253 597 q 392 531 340 549 q 496 492 444 513 q 591 440 547 471 q 661 360 635 408 q 688 236 688 311 q 608 51 688 115 q 392 -14 528 -14 m 378 -287 q 294 -274 335 -287 q 221 -233 254 -260 l 264 -190 q 312 -221 283 -210 q 375 -232 340 -232 q 451 -215 425 -232 q 478 -168 478 -199 q 449 -122 478 -139 q 367 -104 421 -104 l 328 -104 l 365 14 l 429 14 l 399 -83 l 371 -56 q 499 -85 453 -54 q 546 -171 546 -117 q 501 -256 546 -225 q 378 -287 457 -287 z "},"Ș":{"ha":768,"x_min":61,"x_max":688,"o":"m 392 -14 q 200 28 281 -14 q 61 146 119 71 l 113 196 q 235 88 167 122 q 394 54 304 54 q 553 100 492 54 q 614 228 614 146 q 588 329 614 290 q 517 393 561 368 q 422 438 474 418 q 317 477 369 457 q 222 527 265 497 q 152 604 179 557 q 125 724 125 651 q 160 849 125 796 q 258 932 196 903 q 400 961 319 961 q 564 926 492 961 q 685 826 636 890 l 633 776 q 531 863 588 833 q 399 893 475 893 q 255 849 310 893 q 200 728 200 806 q 226 633 200 669 q 297 573 253 597 q 392 531 340 549 q 496 492 444 513 q 591 440 547 471 q 661 360 635 408 q 688 236 688 311 q 608 51 688 115 q 392 -14 528 -14 m 372 -392 l 326 -367 l 397 -224 l 425 -218 q 412 -237 421 -229 q 389 -244 403 -244 q 347 -226 365 -244 q 328 -181 328 -208 q 348 -131 328 -151 q 397 -111 368 -111 q 444 -131 424 -111 q 465 -181 465 -151 q 462 -209 465 -193 q 444 -250 458 -225 l 372 -392 z "},"ẞ":{"ha":988,"x_min":129,"x_max":906,"o":"m 488 558 l 817 869 l 882 843 l 565 549 l 488 513 l 488 558 m 588 -4 q 435 26 501 -4 q 326 113 369 57 l 349 185 q 449 96 386 128 q 588 64 511 64 q 715 92 660 64 q 801 173 769 121 q 832 293 832 225 q 801 416 832 364 q 714 497 769 468 q 583 525 658 525 q 537 522 560 525 q 488 513 514 519 l 511 551 q 557 573 531 567 q 617 579 583 579 q 764 542 699 579 q 867 440 829 506 q 906 292 906 375 q 865 138 906 204 q 752 33 824 71 q 588 -4 681 -4 m 524 967 q 672 956 606 967 q 785 932 738 946 q 857 908 832 918 q 882 897 882 897 l 882 842 q 863 847 882 842 q 808 862 843 853 q 728 880 774 871 q 631 894 682 889 q 524 900 579 900 q 353 871 426 900 q 240 789 281 842 q 200 669 200 736 l 200 0 l 129 0 l 129 674 q 180 827 129 761 q 320 930 231 893 q 524 967 410 967 z "},"T":{"ha":886,"x_min":60,"x_max":826,"o":"m 407 0 l 407 921 l 479 921 l 479 0 l 407 0 m 60 881 l 60 947 l 826 947 l 826 881 l 60 881 z "},"Ť":{"ha":886,"x_min":60,"x_max":826,"o":"m 407 0 l 407 921 l 479 921 l 479 0 l 407 0 m 60 881 l 60 947 l 826 947 l 826 881 l 60 881 m 632 1296 l 663 1265 l 474 1051 l 413 1051 l 224 1265 l 254 1296 l 467 1106 l 419 1107 l 632 1296 z "},"Ț":{"ha":886,"x_min":60,"x_max":826,"o":"m 407 0 l 407 921 l 479 921 l 479 0 l 407 0 m 60 881 l 60 947 l 826 947 l 826 881 l 60 881 m 421 -392 l 375 -367 l 446 -224 l 474 -218 q 460 -237 469 -229 q 438 -244 451 -244 q 395 -226 414 -244 q 376 -181 376 -208 q 397 -131 376 -151 q 446 -111 417 -111 q 493 -131 472 -111 q 514 -181 514 -151 q 510 -209 514 -193 q 493 -250 507 -225 l 421 -392 z "},"U":{"ha":929,"x_min":118,"x_max":813,"o":"m 465 -14 q 287 31 365 -14 q 163 153 208 75 q 118 331 118 232 l 118 947 l 190 947 l 190 336 q 226 188 190 251 q 325 91 263 125 q 465 57 388 57 q 606 91 544 57 q 703 188 667 125 q 739 335 739 251 l 739 947 l 813 947 l 813 329 q 767 153 813 231 q 643 31 721 75 q 465 -14 565 -14 z "},"Ú":{"ha":929,"x_min":118,"x_max":813,"o":"m 465 -14 q 287 31 365 -14 q 163 153 208 75 q 118 331 118 232 l 118 947 l 190 947 l 190 336 q 226 188 190 251 q 325 91 263 125 q 465 57 388 57 q 606 91 544 57 q 703 188 667 125 q 739 335 739 251 l 739 947 l 813 947 l 813 329 q 767 153 813 231 q 643 31 721 75 q 465 -14 565 -14 m 372 1051 l 342 1082 l 529 1300 l 586 1242 l 372 1051 z "},"Ŭ":{"ha":929,"x_min":118,"x_max":813,"o":"m 465 -14 q 287 31 365 -14 q 163 153 208 75 q 118 331 118 232 l 118 947 l 190 947 l 190 336 q 226 188 190 251 q 325 91 263 125 q 465 57 388 57 q 606 91 544 57 q 703 188 667 125 q 739 335 739 251 l 739 947 l 813 947 l 813 329 q 767 153 813 231 q 643 31 721 75 q 465 -14 565 -14 m 685 1247 q 656 1135 685 1185 q 579 1056 628 1085 q 467 1026 531 1026 q 352 1056 403 1026 q 273 1135 301 1085 q 244 1247 244 1185 l 310 1247 q 353 1132 310 1178 q 469 1086 396 1086 q 546 1107 511 1086 q 601 1165 581 1128 q 621 1247 621 1201 l 685 1247 z "},"Û":{"ha":929,"x_min":118,"x_max":813,"o":"m 465 -14 q 287 31 365 -14 q 163 153 208 75 q 118 331 118 232 l 118 947 l 190 947 l 190 336 q 226 188 190 251 q 325 91 263 125 q 465 57 388 57 q 606 91 544 57 q 703 188 667 125 q 739 335 739 251 l 739 947 l 813 947 l 813 329 q 767 153 813 231 q 643 31 721 75 q 465 -14 565 -14 m 275 1051 l 244 1082 l 435 1296 l 494 1296 l 685 1082 l 654 1051 l 442 1240 l 488 1240 l 275 1051 z "},"Ü":{"ha":929,"x_min":118,"x_max":813,"o":"m 465 -14 q 287 31 365 -14 q 163 153 208 75 q 118 331 118 232 l 118 947 l 190 947 l 190 336 q 226 188 190 251 q 325 91 263 125 q 465 57 388 57 q 606 91 544 57 q 703 188 667 125 q 739 335 739 251 l 739 947 l 813 947 l 813 329 q 767 153 813 231 q 643 31 721 75 q 465 -14 565 -14 m 339 1063 q 299 1080 315 1063 q 283 1121 283 1097 q 299 1160 283 1144 q 339 1176 315 1176 q 379 1160 363 1176 q 396 1121 396 1144 q 379 1080 396 1097 q 339 1063 363 1063 m 589 1063 q 549 1080 565 1063 q 533 1121 533 1097 q 549 1160 533 1144 q 589 1176 565 1176 q 629 1160 613 1176 q 646 1121 646 1144 q 629 1080 646 1097 q 589 1063 613 1063 z "},"Ù":{"ha":929,"x_min":118,"x_max":813,"o":"m 465 -14 q 287 31 365 -14 q 163 153 208 75 q 118 331 118 232 l 118 947 l 190 947 l 190 336 q 226 188 190 251 q 325 91 263 125 q 465 57 388 57 q 606 91 544 57 q 703 188 667 125 q 739 335 739 251 l 739 947 l 813 947 l 813 329 q 767 153 813 231 q 643 31 721 75 q 465 -14 565 -14 m 519 1049 l 306 1239 l 364 1296 l 550 1079 l 519 1049 z "},"Ű":{"ha":929,"x_min":118,"x_max":813,"o":"m 465 -14 q 287 31 365 -14 q 163 153 208 75 q 118 331 118 232 l 118 947 l 190 947 l 190 336 q 226 188 190 251 q 325 91 263 125 q 465 57 388 57 q 606 91 544 57 q 703 188 667 125 q 739 335 739 251 l 739 947 l 813 947 l 813 329 q 767 153 813 231 q 643 31 721 75 q 465 -14 565 -14 m 333 1032 l 292 1047 l 369 1324 l 447 1294 l 333 1032 m 519 1032 l 478 1047 l 556 1324 l 632 1294 l 519 1032 z "},"Ū":{"ha":929,"x_min":118,"x_max":813,"o":"m 465 -14 q 287 31 365 -14 q 163 153 208 75 q 118 331 118 232 l 118 947 l 190 947 l 190 336 q 226 188 190 251 q 325 91 263 125 q 465 57 388 57 q 606 91 544 57 q 703 188 667 125 q 739 335 739 251 l 739 947 l 813 947 l 813 329 q 767 153 813 231 q 643 31 721 75 q 465 -14 565 -14 m 238 1149 l 692 1149 l 692 1090 l 238 1090 l 238 1149 z "},"Ų":{"ha":929,"x_min":118,"x_max":813,"o":"m 465 -14 q 287 31 365 -14 q 163 153 208 75 q 118 331 118 232 l 118 947 l 190 947 l 190 336 q 226 188 190 251 q 325 91 263 125 q 465 57 388 57 q 606 91 544 57 q 703 188 667 125 q 739 335 739 251 l 739 947 l 813 947 l 813 329 q 767 153 813 231 q 643 31 721 75 q 465 -14 565 -14 m 569 -274 q 481 -244 518 -274 q 444 -157 444 -215 q 478 -57 444 -110 q 564 36 513 -4 l 607 14 q 530 -67 558 -28 q 501 -151 501 -107 q 522 -207 501 -189 q 576 -225 542 -225 q 611 -219 596 -225 q 643 -203 626 -212 l 665 -242 q 622 -265 646 -257 q 569 -274 599 -274 z "},"Ů":{"ha":929,"x_min":118,"x_max":813,"o":"m 465 -14 q 287 31 365 -14 q 163 153 208 75 q 118 331 118 232 l 118 947 l 190 947 l 190 336 q 226 188 190 251 q 325 91 263 125 q 465 57 388 57 q 606 91 544 57 q 703 188 667 125 q 739 335 739 251 l 739 947 l 813 947 l 813 329 q 767 153 813 231 q 643 31 721 75 q 465 -14 565 -14 m 467 1026 q 388 1047 422 1026 q 335 1100 354 1067 q 315 1175 315 1133 q 335 1252 315 1218 q 388 1306 354 1286 q 467 1325 422 1325 q 542 1306 510 1325 q 594 1252 575 1286 q 614 1176 614 1218 q 594 1099 614 1133 q 542 1046 575 1065 q 467 1026 510 1026 m 468 1082 q 531 1109 504 1082 q 557 1176 557 1136 q 531 1243 557 1217 q 468 1269 504 1269 q 399 1242 425 1269 q 374 1176 374 1215 q 399 1109 374 1136 q 468 1082 425 1082 z "},"V":{"ha":932,"x_min":61,"x_max":871,"o":"m 435 0 l 61 947 l 140 947 l 481 76 l 450 76 l 793 947 l 871 947 l 494 0 l 435 0 z "},"W":{"ha":1358,"x_min":63,"x_max":1296,"o":"m 367 0 l 63 947 l 138 947 l 407 88 l 381 88 l 649 947 l 708 947 l 978 88 l 950 88 l 1221 947 l 1296 947 l 992 0 l 935 0 l 667 858 l 690 858 l 424 0 l 367 0 z "},"Ẃ":{"ha":1358,"x_min":63,"x_max":1296,"o":"m 367 0 l 63 947 l 138 947 l 407 88 l 381 88 l 649 947 l 708 947 l 978 88 l 950 88 l 1221 947 l 1296 947 l 992 0 l 935 0 l 667 858 l 690 858 l 424 0 l 367 0 m 588 1051 l 557 1082 l 744 1300 l 801 1242 l 588 1051 z "},"Ŵ":{"ha":1358,"x_min":63,"x_max":1296,"o":"m 367 0 l 63 947 l 138 947 l 407 88 l 381 88 l 649 947 l 708 947 l 978 88 l 950 88 l 1221 947 l 1296 947 l 992 0 l 935 0 l 667 858 l 690 858 l 424 0 l 367 0 m 489 1051 l 458 1082 l 649 1296 l 708 1296 l 899 1082 l 868 1051 l 656 1240 l 701 1240 l 489 1051 z "},"Ẅ":{"ha":1358,"x_min":63,"x_max":1296,"o":"m 367 0 l 63 947 l 138 947 l 407 88 l 381 88 l 649 947 l 708 947 l 978 88 l 950 88 l 1221 947 l 1296 947 l 992 0 l 935 0 l 667 858 l 690 858 l 424 0 l 367 0 m 554 1063 q 515 1080 531 1063 q 499 1121 499 1097 q 515 1160 499 1144 q 554 1176 531 1176 q 594 1160 578 1176 q 611 1121 611 1144 q 594 1080 611 1097 q 554 1063 578 1063 m 804 1063 q 765 1080 781 1063 q 749 1121 749 1097 q 765 1160 749 1144 q 804 1176 781 1176 q 844 1160 828 1176 q 861 1121 861 1144 q 844 1080 861 1097 q 804 1063 828 1063 z "},"Ẁ":{"ha":1358,"x_min":63,"x_max":1296,"o":"m 367 0 l 63 947 l 138 947 l 407 88 l 381 88 l 649 947 l 708 947 l 978 88 l 950 88 l 1221 947 l 1296 947 l 992 0 l 935 0 l 667 858 l 690 858 l 424 0 l 367 0 m 733 1049 l 519 1239 l 578 1296 l 764 1079 l 733 1049 z "},"X":{"ha":942,"x_min":60,"x_max":882,"o":"m 794 0 l 461 457 l 449 457 l 75 947 l 163 947 l 488 519 l 500 519 l 882 0 l 794 0 m 60 0 l 439 497 l 486 451 l 143 0 l 60 0 m 506 464 l 461 511 l 785 947 l 868 947 l 506 464 z "},"Y":{"ha":906,"x_min":58,"x_max":849,"o":"m 438 397 l 58 947 l 144 947 l 469 474 l 438 474 l 765 947 l 849 947 l 467 397 l 438 397 m 417 0 l 417 457 l 490 457 l 490 0 l 417 0 z "},"Ý":{"ha":906,"x_min":58,"x_max":849,"o":"m 438 397 l 58 947 l 144 947 l 469 474 l 438 474 l 765 947 l 849 947 l 467 397 l 438 397 m 417 0 l 417 457 l 490 457 l 490 0 l 417 0 m 361 1051 l 331 1082 l 518 1300 l 575 1242 l 361 1051 z "},"Ŷ":{"ha":906,"x_min":58,"x_max":849,"o":"m 438 397 l 58 947 l 144 947 l 469 474 l 438 474 l 765 947 l 849 947 l 467 397 l 438 397 m 417 0 l 417 457 l 490 457 l 490 0 l 417 0 m 264 1051 l 233 1082 l 424 1296 l 483 1296 l 674 1082 l 643 1051 l 431 1240 l 476 1240 l 264 1051 z "},"Ÿ":{"ha":906,"x_min":58,"x_max":849,"o":"m 438 397 l 58 947 l 144 947 l 469 474 l 438 474 l 765 947 l 849 947 l 467 397 l 438 397 m 417 0 l 417 457 l 490 457 l 490 0 l 417 0 m 328 1063 q 288 1080 304 1063 q 272 1121 272 1097 q 288 1160 272 1144 q 328 1176 304 1176 q 368 1160 351 1176 q 385 1121 385 1144 q 368 1080 385 1097 q 328 1063 351 1063 m 578 1063 q 538 1080 554 1063 q 522 1121 522 1097 q 538 1160 522 1144 q 578 1176 554 1176 q 618 1160 601 1176 q 635 1121 635 1144 q 618 1080 635 1097 q 578 1063 601 1063 z "},"Ỳ":{"ha":906,"x_min":58,"x_max":849,"o":"m 438 397 l 58 947 l 144 947 l 469 474 l 438 474 l 765 947 l 849 947 l 467 397 l 438 397 m 417 0 l 417 457 l 490 457 l 490 0 l 417 0 m 508 1049 l 294 1239 l 353 1296 l 539 1079 l 508 1049 z "},"Z":{"ha":793,"x_min":67,"x_max":725,"o":"m 67 47 l 639 901 l 725 901 l 153 47 l 67 47 m 67 0 l 67 47 l 128 67 l 715 67 l 715 0 l 67 0 m 90 881 l 90 947 l 725 947 l 725 901 l 663 881 l 90 881 z "},"Ź":{"ha":793,"x_min":67,"x_max":725,"o":"m 67 47 l 639 901 l 725 901 l 153 47 l 67 47 m 67 0 l 67 47 l 128 67 l 715 67 l 715 0 l 67 0 m 90 881 l 90 947 l 725 947 l 725 901 l 663 881 l 90 881 m 313 1051 l 282 1082 l 469 1300 l 526 1242 l 313 1051 z "},"Ž":{"ha":793,"x_min":67,"x_max":725,"o":"m 67 47 l 639 901 l 725 901 l 153 47 l 67 47 m 67 0 l 67 47 l 128 67 l 715 67 l 715 0 l 67 0 m 90 881 l 90 947 l 725 947 l 725 901 l 663 881 l 90 881 m 593 1296 l 624 1265 l 435 1051 l 374 1051 l 185 1265 l 215 1296 l 428 1106 l 381 1107 l 593 1296 z "},"Ż":{"ha":793,"x_min":67,"x_max":725,"o":"m 67 47 l 639 901 l 725 901 l 153 47 l 67 47 m 67 0 l 67 47 l 128 67 l 715 67 l 715 0 l 67 0 m 90 881 l 90 947 l 725 947 l 725 901 l 663 881 l 90 881 m 404 1063 q 365 1080 381 1063 q 349 1121 349 1097 q 365 1160 349 1144 q 404 1176 381 1176 q 444 1160 428 1176 q 461 1121 461 1144 q 444 1080 461 1097 q 404 1063 428 1063 z "},"a":{"ha":815,"x_min":63,"x_max":711,"o":"m 390 -14 q 223 31 297 -14 q 106 151 149 75 q 63 322 63 226 q 106 493 63 417 q 222 615 149 569 q 388 660 296 660 q 522 631 463 660 q 619 551 581 603 q 668 429 657 500 l 668 218 q 617 95 656 147 q 522 15 579 43 q 390 -14 464 -14 m 400 53 q 577 127 511 53 q 643 322 643 201 q 613 465 643 404 q 528 559 583 525 q 399 593 472 593 q 263 558 322 593 q 170 463 204 524 q 136 324 136 401 q 170 183 136 244 q 264 88 204 122 q 400 53 324 53 m 640 0 l 640 174 l 656 332 l 640 489 l 640 646 l 711 646 l 711 0 l 640 0 z "},"á":{"ha":815,"x_min":63,"x_max":711,"o":"m 390 -14 q 223 31 297 -14 q 106 151 149 75 q 63 322 63 226 q 106 493 63 417 q 222 615 149 569 q 388 660 296 660 q 522 631 463 660 q 619 551 581 603 q 668 429 657 500 l 668 218 q 617 95 656 147 q 522 15 579 43 q 390 -14 464 -14 m 400 53 q 577 127 511 53 q 643 322 643 201 q 613 465 643 404 q 528 559 583 525 q 399 593 472 593 q 263 558 322 593 q 170 463 204 524 q 136 324 136 401 q 170 183 136 244 q 264 88 204 122 q 400 53 324 53 m 640 0 l 640 174 l 656 332 l 640 489 l 640 646 l 711 646 l 711 0 l 640 0 m 325 750 l 294 781 l 482 999 l 539 940 l 325 750 z "},"ă":{"ha":815,"x_min":63,"x_max":711,"o":"m 390 -14 q 223 31 297 -14 q 106 151 149 75 q 63 322 63 226 q 106 493 63 417 q 222 615 149 569 q 388 660 296 660 q 522 631 463 660 q 619 551 581 603 q 668 429 657 500 l 668 218 q 617 95 656 147 q 522 15 579 43 q 390 -14 464 -14 m 400 53 q 577 127 511 53 q 643 322 643 201 q 613 465 643 404 q 528 559 583 525 q 399 593 472 593 q 263 558 322 593 q 170 463 204 524 q 136 324 136 401 q 170 183 136 244 q 264 88 204 122 q 400 53 324 53 m 640 0 l 640 174 l 656 332 l 640 489 l 640 646 l 711 646 l 711 0 l 640 0 m 638 946 q 609 833 638 883 q 532 754 581 783 q 419 725 483 725 q 305 754 356 725 q 226 833 254 783 q 197 946 197 883 l 263 946 q 306 831 263 876 q 422 785 349 785 q 499 806 464 785 q 553 863 533 826 q 574 946 574 900 l 638 946 z "},"ǎ":{"ha":815,"x_min":63,"x_max":711,"o":"m 390 -14 q 223 31 297 -14 q 106 151 149 75 q 63 322 63 226 q 106 493 63 417 q 222 615 149 569 q 388 660 296 660 q 522 631 463 660 q 619 551 581 603 q 668 429 657 500 l 668 218 q 617 95 656 147 q 522 15 579 43 q 390 -14 464 -14 m 400 53 q 577 127 511 53 q 643 322 643 201 q 613 465 643 404 q 528 559 583 525 q 399 593 472 593 q 263 558 322 593 q 170 463 204 524 q 136 324 136 401 q 170 183 136 244 q 264 88 204 122 q 400 53 324 53 m 640 0 l 640 174 l 656 332 l 640 489 l 640 646 l 711 646 l 711 0 l 640 0 m 607 994 l 638 964 l 447 750 l 388 750 l 197 964 l 228 994 l 440 804 l 394 806 l 607 994 z "},"â":{"ha":815,"x_min":63,"x_max":711,"o":"m 390 -14 q 223 31 297 -14 q 106 151 149 75 q 63 322 63 226 q 106 493 63 417 q 222 615 149 569 q 388 660 296 660 q 522 631 463 660 q 619 551 581 603 q 668 429 657 500 l 668 218 q 617 95 656 147 q 522 15 579 43 q 390 -14 464 -14 m 400 53 q 577 127 511 53 q 643 322 643 201 q 613 465 643 404 q 528 559 583 525 q 399 593 472 593 q 263 558 322 593 q 170 463 204 524 q 136 324 136 401 q 170 183 136 244 q 264 88 204 122 q 400 53 324 53 m 640 0 l 640 174 l 656 332 l 640 489 l 640 646 l 711 646 l 711 0 l 640 0 m 228 750 l 197 781 l 388 994 l 447 994 l 638 781 l 607 750 l 394 939 l 440 939 l 228 750 z "},"ä":{"ha":815,"x_min":63,"x_max":711,"o":"m 390 -14 q 223 31 297 -14 q 106 151 149 75 q 63 322 63 226 q 106 493 63 417 q 222 615 149 569 q 388 660 296 660 q 522 631 463 660 q 619 551 581 603 q 668 429 657 500 l 668 218 q 617 95 656 147 q 522 15 579 43 q 390 -14 464 -14 m 400 53 q 577 127 511 53 q 643 322 643 201 q 613 465 643 404 q 528 559 583 525 q 399 593 472 593 q 263 558 322 593 q 170 463 204 524 q 136 324 136 401 q 170 183 136 244 q 264 88 204 122 q 400 53 324 53 m 640 0 l 640 174 l 656 332 l 640 489 l 640 646 l 711 646 l 711 0 l 640 0 m 292 761 q 252 778 268 761 q 236 819 236 796 q 252 859 236 843 q 292 875 268 875 q 332 859 315 875 q 349 819 349 843 q 332 778 349 796 q 292 761 315 761 m 542 761 q 502 778 518 761 q 486 819 486 796 q 502 859 486 843 q 542 875 518 875 q 582 859 565 875 q 599 819 599 843 q 582 778 599 796 q 542 761 565 761 z "},"à":{"ha":815,"x_min":63,"x_max":711,"o":"m 390 -14 q 223 31 297 -14 q 106 151 149 75 q 63 322 63 226 q 106 493 63 417 q 222 615 149 569 q 388 660 296 660 q 522 631 463 660 q 619 551 581 603 q 668 429 657 500 l 668 218 q 617 95 656 147 q 522 15 579 43 q 390 -14 464 -14 m 400 53 q 577 127 511 53 q 643 322 643 201 q 613 465 643 404 q 528 559 583 525 q 399 593 472 593 q 263 558 322 593 q 170 463 204 524 q 136 324 136 401 q 170 183 136 244 q 264 88 204 122 q 400 53 324 53 m 640 0 l 640 174 l 656 332 l 640 489 l 640 646 l 711 646 l 711 0 l 640 0 m 472 747 l 258 938 l 317 994 l 503 778 l 472 747 z "},"ā":{"ha":815,"x_min":63,"x_max":711,"o":"m 390 -14 q 223 31 297 -14 q 106 151 149 75 q 63 322 63 226 q 106 493 63 417 q 222 615 149 569 q 388 660 296 660 q 522 631 463 660 q 619 551 581 603 q 668 429 657 500 l 668 218 q 617 95 656 147 q 522 15 579 43 q 390 -14 464 -14 m 400 53 q 577 127 511 53 q 643 322 643 201 q 613 465 643 404 q 528 559 583 525 q 399 593 472 593 q 263 558 322 593 q 170 463 204 524 q 136 324 136 401 q 170 183 136 244 q 264 88 204 122 q 400 53 324 53 m 640 0 l 640 174 l 656 332 l 640 489 l 640 646 l 711 646 l 711 0 l 640 0 m 190 847 l 644 847 l 644 789 l 190 789 l 190 847 z "},"ą":{"ha":815,"x_min":63,"x_max":769,"o":"m 390 -14 q 223 31 297 -14 q 106 151 149 75 q 63 322 63 226 q 106 493 63 417 q 222 615 149 569 q 388 660 296 660 q 522 631 463 660 q 619 551 581 603 q 668 429 657 500 l 668 218 q 617 95 656 147 q 522 15 579 43 q 390 -14 464 -14 m 400 53 q 577 127 511 53 q 643 322 643 201 q 613 465 643 404 q 528 559 583 525 q 399 593 472 593 q 263 558 322 593 q 170 463 204 524 q 136 324 136 401 q 170 183 136 244 q 264 88 204 122 q 400 53 324 53 m 640 0 l 640 174 l 656 332 l 640 489 l 640 646 l 711 646 l 711 0 l 640 0 m 674 -287 q 585 -258 622 -287 q 549 -171 549 -229 q 583 -71 549 -124 q 668 22 617 -18 l 711 0 q 634 -81 663 -42 q 606 -165 606 -121 q 626 -221 606 -203 q 681 -239 646 -239 q 715 -233 700 -239 q 747 -217 731 -226 l 769 -256 q 726 -279 750 -271 q 674 -287 703 -287 z "},"å":{"ha":815,"x_min":63,"x_max":711,"o":"m 390 -14 q 223 31 297 -14 q 106 151 149 75 q 63 322 63 226 q 106 493 63 417 q 222 615 149 569 q 388 660 296 660 q 522 631 463 660 q 619 551 581 603 q 668 429 657 500 l 668 218 q 617 95 656 147 q 522 15 579 43 q 390 -14 464 -14 m 400 53 q 577 127 511 53 q 643 322 643 201 q 613 465 643 404 q 528 559 583 525 q 399 593 472 593 q 263 558 322 593 q 170 463 204 524 q 136 324 136 401 q 170 183 136 244 q 264 88 204 122 q 400 53 324 53 m 640 0 l 640 174 l 656 332 l 640 489 l 640 646 l 711 646 l 711 0 l 640 0 m 419 725 q 341 745 375 725 q 288 799 307 765 q 268 874 268 832 q 288 951 268 917 q 341 1004 307 985 q 419 1024 375 1024 q 495 1004 463 1024 q 547 951 528 985 q 567 875 567 917 q 547 798 567 832 q 495 744 528 764 q 419 725 463 725 m 421 781 q 483 808 457 781 q 510 875 510 835 q 483 942 510 915 q 421 968 457 968 q 352 941 378 968 q 326 875 326 914 q 352 808 326 835 q 421 781 378 781 z "},"ã":{"ha":815,"x_min":63,"x_max":711,"o":"m 390 -14 q 223 31 297 -14 q 106 151 149 75 q 63 322 63 226 q 106 493 63 417 q 222 615 149 569 q 388 660 296 660 q 522 631 463 660 q 619 551 581 603 q 668 429 657 500 l 668 218 q 617 95 656 147 q 522 15 579 43 q 390 -14 464 -14 m 400 53 q 577 127 511 53 q 643 322 643 201 q 613 465 643 404 q 528 559 583 525 q 399 593 472 593 q 263 558 322 593 q 170 463 204 524 q 136 324 136 401 q 170 183 136 244 q 264 88 204 122 q 400 53 324 53 m 640 0 l 640 174 l 656 332 l 640 489 l 640 646 l 711 646 l 711 0 l 640 0 m 519 760 q 446 775 476 760 q 387 806 415 790 q 322 821 358 821 q 264 807 285 821 q 225 768 243 793 l 185 804 q 241 860 210 839 q 321 882 272 882 q 399 867 367 882 q 458 836 431 851 q 518 821 486 821 q 572 835 551 821 q 610 874 592 849 l 650 836 q 594 781 625 803 q 519 760 563 760 z "},"æ":{"ha":1331,"x_min":63,"x_max":1274,"o":"m 982 -14 q 809 31 886 -14 q 688 151 732 75 q 643 324 643 228 q 686 495 643 419 q 805 615 729 571 q 974 660 881 660 q 1130 620 1063 660 q 1235 511 1197 581 q 1274 351 1274 442 q 1272 330 1274 343 q 1268 297 1271 317 l 693 297 l 693 358 l 1228 358 l 1204 339 q 1179 473 1207 415 q 1099 563 1151 531 q 972 594 1046 594 q 838 560 896 594 q 747 467 779 526 q 714 328 714 407 q 748 183 714 244 q 843 87 782 121 q 986 53 904 53 q 1102 76 1049 53 q 1192 144 1156 99 l 1239 99 q 1127 16 1194 46 q 982 -14 1060 -14 m 390 -14 q 223 31 297 -14 q 106 151 149 75 q 63 322 63 226 q 106 493 63 417 q 222 615 149 569 q 388 660 296 660 q 522 631 463 660 q 619 551 581 603 q 668 429 657 500 l 668 218 q 617 95 656 147 q 522 15 579 43 q 390 -14 464 -14 m 400 53 q 577 127 511 53 q 643 322 643 201 q 613 465 643 404 q 528 559 583 525 q 399 593 472 593 q 263 558 322 593 q 170 463 204 524 q 136 324 136 401 q 170 183 136 244 q 264 88 204 122 q 400 53 324 53 m 640 0 l 640 174 l 656 332 l 640 489 l 640 646 l 711 646 l 711 0 l 640 0 z "},"b":{"ha":815,"x_min":104,"x_max":751,"o":"m 432 -14 q 299 15 360 -14 q 199 97 239 44 q 146 218 158 149 l 146 429 q 199 552 158 500 q 301 632 240 604 q 432 660 361 660 q 596 615 524 660 q 710 494 668 571 q 751 322 751 418 q 710 151 751 226 q 596 31 668 75 q 432 -14 524 -14 m 104 0 l 104 975 l 175 975 l 175 489 l 158 332 l 175 174 l 175 0 l 104 0 m 419 53 q 554 88 496 53 q 646 183 613 122 q 679 324 679 244 q 646 464 679 403 q 555 559 613 525 q 424 593 497 593 q 292 559 349 593 q 204 464 236 525 q 172 322 172 403 q 203 183 172 243 q 291 88 235 122 q 419 53 347 53 z "},"c":{"ha":685,"x_min":63,"x_max":640,"o":"m 397 -14 q 227 31 303 -14 q 107 153 151 76 q 63 325 63 231 q 107 495 63 419 q 227 615 151 571 q 397 660 303 660 q 531 633 468 660 q 638 558 593 607 l 590 511 q 505 572 554 550 q 397 593 456 593 q 263 558 322 593 q 169 463 204 522 q 135 325 135 403 q 169 186 135 247 q 263 89 204 125 q 397 53 322 53 q 506 74 456 53 q 593 136 557 96 l 640 89 q 531 13 594 40 q 397 -14 468 -14 z "},"ć":{"ha":685,"x_min":63,"x_max":640,"o":"m 397 -14 q 227 31 303 -14 q 107 153 151 76 q 63 325 63 231 q 107 495 63 419 q 227 615 151 571 q 397 660 303 660 q 531 633 468 660 q 638 558 593 607 l 590 511 q 505 572 554 550 q 397 593 456 593 q 263 558 322 593 q 169 463 204 522 q 135 325 135 403 q 169 186 135 247 q 263 89 204 125 q 397 53 322 53 q 506 74 456 53 q 593 136 557 96 l 640 89 q 531 13 594 40 q 397 -14 468 -14 m 289 750 l 258 781 l 446 999 l 503 940 l 289 750 z "},"č":{"ha":685,"x_min":63,"x_max":640,"o":"m 397 -14 q 227 31 303 -14 q 107 153 151 76 q 63 325 63 231 q 107 495 63 419 q 227 615 151 571 q 397 660 303 660 q 531 633 468 660 q 638 558 593 607 l 590 511 q 505 572 554 550 q 397 593 456 593 q 263 558 322 593 q 169 463 204 522 q 135 325 135 403 q 169 186 135 247 q 263 89 204 125 q 397 53 322 53 q 506 74 456 53 q 593 136 557 96 l 640 89 q 531 13 594 40 q 397 -14 468 -14 m 571 994 l 601 964 l 411 750 l 351 750 l 161 964 l 192 994 l 404 804 l 358 806 l 571 994 z "},"ç":{"ha":685,"x_min":63,"x_max":640,"o":"m 397 -14 q 227 31 303 -14 q 107 153 151 76 q 63 325 63 231 q 107 495 63 419 q 227 615 151 571 q 397 660 303 660 q 531 633 468 660 q 638 558 593 607 l 590 511 q 505 572 554 550 q 397 593 456 593 q 263 558 322 593 q 169 463 204 522 q 135 325 135 403 q 169 186 135 247 q 263 89 204 125 q 397 53 322 53 q 506 74 456 53 q 593 136 557 96 l 640 89 q 531 13 594 40 q 397 -14 468 -14 m 351 -287 q 268 -274 308 -287 q 194 -233 228 -260 l 238 -190 q 285 -221 257 -210 q 349 -232 314 -232 q 425 -215 399 -232 q 451 -168 451 -199 q 423 -122 451 -139 q 340 -104 394 -104 l 301 -104 l 339 14 l 403 14 l 372 -83 l 344 -56 q 473 -85 426 -54 q 519 -171 519 -117 q 475 -256 519 -225 q 351 -287 431 -287 z "},"ċ":{"ha":685,"x_min":63,"x_max":640,"o":"m 397 -14 q 227 31 303 -14 q 107 153 151 76 q 63 325 63 231 q 107 495 63 419 q 227 615 151 571 q 397 660 303 660 q 531 633 468 660 q 638 558 593 607 l 590 511 q 505 572 554 550 q 397 593 456 593 q 263 558 322 593 q 169 463 204 522 q 135 325 135 403 q 169 186 135 247 q 263 89 204 125 q 397 53 322 53 q 506 74 456 53 q 593 136 557 96 l 640 89 q 531 13 594 40 q 397 -14 468 -14 m 381 761 q 341 778 357 761 q 325 819 325 796 q 341 859 325 843 q 381 875 357 875 q 421 859 404 875 q 438 819 438 843 q 421 778 438 796 q 381 761 404 761 z "},"d":{"ha":815,"x_min":64,"x_max":711,"o":"m 383 -14 q 219 31 292 -14 q 106 151 147 75 q 64 322 64 226 q 106 494 64 418 q 219 615 147 571 q 383 660 292 660 q 515 632 454 660 q 617 552 575 604 q 669 429 658 500 l 669 218 q 617 97 657 149 q 516 15 576 44 q 383 -14 456 -14 m 396 53 q 525 88 469 53 q 612 183 581 122 q 643 322 643 243 q 611 463 643 403 q 523 558 579 524 q 392 593 467 593 q 260 558 318 593 q 169 463 203 524 q 136 324 136 403 q 169 183 136 244 q 261 88 203 122 q 396 53 319 53 m 711 0 l 640 0 l 640 174 l 657 332 l 640 489 l 640 975 l 711 975 l 711 0 z "},"ð":{"ha":788,"x_min":71,"x_max":717,"o":"m 394 -14 q 233 29 306 -14 q 115 146 160 72 q 71 307 71 219 q 113 466 71 396 q 226 578 156 536 q 381 621 296 621 q 451 613 418 621 q 510 589 483 604 q 560 553 538 574 l 535 556 l 231 947 l 317 947 l 636 528 q 717 304 717 421 q 674 143 717 215 q 558 28 631 71 q 394 -14 485 -14 m 394 51 q 520 85 464 51 q 610 178 576 119 q 643 307 643 236 q 610 437 643 379 q 520 528 576 494 q 394 561 464 561 q 269 527 326 561 q 178 435 213 493 q 144 307 144 376 q 178 180 144 238 q 269 87 213 122 q 394 51 325 51 m 171 700 l 150 753 l 567 907 l 588 854 l 171 700 z "},"ď":{"ha":1051,"x_min":64,"x_max":938,"o":"m 383 -14 q 219 31 292 -14 q 106 151 147 75 q 64 322 64 226 q 106 494 64 418 q 219 615 147 571 q 383 660 292 660 q 515 632 454 660 q 617 552 575 604 q 669 429 658 500 l 669 218 q 617 97 657 149 q 516 15 576 44 q 383 -14 456 -14 m 396 53 q 525 88 469 53 q 612 183 581 122 q 643 322 643 243 q 611 463 643 403 q 523 558 579 524 q 392 593 467 593 q 260 558 318 593 q 169 463 203 524 q 136 324 136 403 q 169 183 136 244 q 261 88 203 122 q 396 53 319 53 m 711 0 l 640 0 l 640 174 l 657 332 l 640 489 l 640 975 l 711 975 l 711 0 m 844 671 l 799 696 l 871 839 l 897 844 q 884 826 893 833 q 861 818 875 818 q 819 837 838 818 q 800 882 800 856 q 821 931 800 911 q 869 951 842 951 q 917 931 897 951 q 938 882 938 911 q 934 855 938 871 q 918 813 931 839 l 844 671 z "},"đ":{"ha":822,"x_min":64,"x_max":822,"o":"m 393 793 l 393 860 l 822 860 l 822 793 l 393 793 m 383 -14 q 219 31 292 -14 q 106 151 147 75 q 64 322 64 226 q 106 494 64 418 q 219 615 147 571 q 383 660 292 660 q 515 632 454 660 q 617 552 575 604 q 669 429 658 500 l 669 218 q 617 97 657 149 q 516 15 576 44 q 383 -14 456 -14 m 396 53 q 525 88 469 53 q 612 183 581 122 q 643 322 643 243 q 611 463 643 403 q 523 558 579 524 q 392 593 467 593 q 260 558 318 593 q 169 463 203 524 q 136 324 136 403 q 169 183 136 244 q 261 88 203 122 q 396 53 319 53 m 711 0 l 640 0 l 640 174 l 657 332 l 640 489 l 640 975 l 711 975 l 711 0 z "},"e":{"ha":750,"x_min":63,"x_max":693,"o":"m 401 -14 q 228 31 306 -14 q 107 151 151 75 q 63 324 63 228 q 106 495 63 419 q 224 615 149 571 q 393 660 300 660 q 549 620 482 660 q 655 511 617 581 q 693 351 693 442 q 692 330 693 343 q 688 297 690 317 l 113 297 l 113 358 l 647 358 l 624 339 q 599 473 626 415 q 518 563 571 531 q 392 594 465 594 q 257 560 315 594 q 166 467 199 526 q 133 328 133 407 q 167 183 133 244 q 263 87 201 121 q 406 53 324 53 q 522 76 468 53 q 611 144 575 99 l 658 99 q 547 16 614 46 q 401 -14 479 -14 z "},"é":{"ha":750,"x_min":63,"x_max":693,"o":"m 401 -14 q 228 31 306 -14 q 107 151 151 75 q 63 324 63 228 q 106 495 63 419 q 224 615 149 571 q 393 660 300 660 q 549 620 482 660 q 655 511 617 581 q 693 351 693 442 q 692 330 693 343 q 688 297 690 317 l 113 297 l 113 358 l 647 358 l 624 339 q 599 473 626 415 q 518 563 571 531 q 392 594 465 594 q 257 560 315 594 q 166 467 199 526 q 133 328 133 407 q 167 183 133 244 q 263 87 201 121 q 406 53 324 53 q 522 76 468 53 q 611 144 575 99 l 658 99 q 547 16 614 46 q 401 -14 479 -14 m 301 750 l 271 781 l 458 999 l 515 940 l 301 750 z "},"ě":{"ha":750,"x_min":63,"x_max":693,"o":"m 401 -14 q 228 31 306 -14 q 107 151 151 75 q 63 324 63 228 q 106 495 63 419 q 224 615 149 571 q 393 660 300 660 q 549 620 482 660 q 655 511 617 581 q 693 351 693 442 q 692 330 693 343 q 688 297 690 317 l 113 297 l 113 358 l 647 358 l 624 339 q 599 473 626 415 q 518 563 571 531 q 392 594 465 594 q 257 560 315 594 q 166 467 199 526 q 133 328 133 407 q 167 183 133 244 q 263 87 201 121 q 406 53 324 53 q 522 76 468 53 q 611 144 575 99 l 658 99 q 547 16 614 46 q 401 -14 479 -14 m 582 994 l 613 964 l 424 750 l 363 750 l 174 964 l 204 994 l 417 804 l 369 806 l 582 994 z "},"ê":{"ha":750,"x_min":63,"x_max":693,"o":"m 401 -14 q 228 31 306 -14 q 107 151 151 75 q 63 324 63 228 q 106 495 63 419 q 224 615 149 571 q 393 660 300 660 q 549 620 482 660 q 655 511 617 581 q 693 351 693 442 q 692 330 693 343 q 688 297 690 317 l 113 297 l 113 358 l 647 358 l 624 339 q 599 473 626 415 q 518 563 571 531 q 392 594 465 594 q 257 560 315 594 q 166 467 199 526 q 133 328 133 407 q 167 183 133 244 q 263 87 201 121 q 406 53 324 53 q 522 76 468 53 q 611 144 575 99 l 658 99 q 547 16 614 46 q 401 -14 479 -14 m 204 750 l 174 781 l 364 994 l 424 994 l 614 781 l 583 750 l 371 939 l 417 939 l 204 750 z "},"ë":{"ha":750,"x_min":63,"x_max":693,"o":"m 401 -14 q 228 31 306 -14 q 107 151 151 75 q 63 324 63 228 q 106 495 63 419 q 224 615 149 571 q 393 660 300 660 q 549 620 482 660 q 655 511 617 581 q 693 351 693 442 q 692 330 693 343 q 688 297 690 317 l 113 297 l 113 358 l 647 358 l 624 339 q 599 473 626 415 q 518 563 571 531 q 392 594 465 594 q 257 560 315 594 q 166 467 199 526 q 133 328 133 407 q 167 183 133 244 q 263 87 201 121 q 406 53 324 53 q 522 76 468 53 q 611 144 575 99 l 658 99 q 547 16 614 46 q 401 -14 479 -14 m 268 761 q 228 778 244 761 q 213 819 213 796 q 228 859 213 843 q 268 875 244 875 q 308 859 292 875 q 325 819 325 843 q 308 778 325 796 q 268 761 292 761 m 518 761 q 478 778 494 761 q 463 819 463 796 q 478 859 463 843 q 518 875 494 875 q 558 859 542 875 q 575 819 575 843 q 558 778 575 796 q 518 761 542 761 z "},"ė":{"ha":750,"x_min":63,"x_max":693,"o":"m 401 -14 q 228 31 306 -14 q 107 151 151 75 q 63 324 63 228 q 106 495 63 419 q 224 615 149 571 q 393 660 300 660 q 549 620 482 660 q 655 511 617 581 q 693 351 693 442 q 692 330 693 343 q 688 297 690 317 l 113 297 l 113 358 l 647 358 l 624 339 q 599 473 626 415 q 518 563 571 531 q 392 594 465 594 q 257 560 315 594 q 166 467 199 526 q 133 328 133 407 q 167 183 133 244 q 263 87 201 121 q 406 53 324 53 q 522 76 468 53 q 611 144 575 99 l 658 99 q 547 16 614 46 q 401 -14 479 -14 m 393 761 q 353 778 369 761 q 338 819 338 796 q 353 859 338 843 q 393 875 369 875 q 433 859 417 875 q 450 819 450 843 q 433 778 450 796 q 393 761 417 761 z "},"è":{"ha":750,"x_min":63,"x_max":693,"o":"m 401 -14 q 228 31 306 -14 q 107 151 151 75 q 63 324 63 228 q 106 495 63 419 q 224 615 149 571 q 393 660 300 660 q 549 620 482 660 q 655 511 617 581 q 693 351 693 442 q 692 330 693 343 q 688 297 690 317 l 113 297 l 113 358 l 647 358 l 624 339 q 599 473 626 415 q 518 563 571 531 q 392 594 465 594 q 257 560 315 594 q 166 467 199 526 q 133 328 133 407 q 167 183 133 244 q 263 87 201 121 q 406 53 324 53 q 522 76 468 53 q 611 144 575 99 l 658 99 q 547 16 614 46 q 401 -14 479 -14 m 447 747 l 233 938 l 292 994 l 478 778 l 447 747 z "},"ē":{"ha":750,"x_min":63,"x_max":693,"o":"m 401 -14 q 228 31 306 -14 q 107 151 151 75 q 63 324 63 228 q 106 495 63 419 q 224 615 149 571 q 393 660 300 660 q 549 620 482 660 q 655 511 617 581 q 693 351 693 442 q 692 330 693 343 q 688 297 690 317 l 113 297 l 113 358 l 647 358 l 624 339 q 599 473 626 415 q 518 563 571 531 q 392 594 465 594 q 257 560 315 594 q 166 467 199 526 q 133 328 133 407 q 167 183 133 244 q 263 87 201 121 q 406 53 324 53 q 522 76 468 53 q 611 144 575 99 l 658 99 q 547 16 614 46 q 401 -14 479 -14 m 167 847 l 621 847 l 621 789 l 167 789 l 167 847 z "},"ę":{"ha":750,"x_min":63,"x_max":693,"o":"m 401 -14 q 228 31 306 -14 q 107 151 151 75 q 63 324 63 228 q 106 495 63 419 q 224 615 149 571 q 393 660 300 660 q 549 620 482 660 q 655 511 617 581 q 693 351 693 442 q 692 330 693 343 q 688 297 690 317 l 113 297 l 113 358 l 647 358 l 624 339 q 599 473 626 415 q 518 563 571 531 q 392 594 465 594 q 257 560 315 594 q 166 467 199 526 q 133 328 133 407 q 167 183 133 244 q 263 87 201 121 q 406 53 324 53 q 522 76 468 53 q 611 144 575 99 l 658 99 q 547 16 614 46 q 401 -14 479 -14 m 500 -274 q 412 -244 449 -274 q 375 -157 375 -215 q 409 -57 375 -110 q 494 36 443 -4 l 538 14 q 460 -67 489 -28 q 432 -151 432 -107 q 452 -207 432 -189 q 507 -225 472 -225 q 542 -219 526 -225 q 574 -203 557 -212 l 596 -242 q 553 -265 576 -257 q 500 -274 529 -274 z "},"f":{"ha":542,"x_min":36,"x_max":578,"o":"m 204 0 l 204 768 q 232 883 204 833 q 309 960 260 932 q 422 988 358 988 q 510 971 471 988 q 578 922 549 954 l 532 875 q 481 912 508 900 q 421 924 453 924 q 313 881 351 924 q 274 764 274 838 l 274 0 l 204 0 m 36 583 l 36 646 l 501 646 l 501 583 l 36 583 z "},"g":{"ha":814,"x_min":64,"x_max":710,"o":"m 371 -287 q 200 -252 276 -287 q 78 -150 124 -217 l 122 -106 q 224 -190 160 -158 q 372 -221 288 -221 q 567 -154 496 -221 q 639 25 639 -87 l 639 188 l 656 338 l 639 483 l 639 646 l 710 646 l 710 25 q 667 -139 710 -69 q 549 -248 625 -208 q 371 -287 472 -287 m 385 4 q 220 47 293 4 q 106 163 147 89 q 64 332 64 238 q 106 499 64 425 q 219 617 147 574 q 383 660 292 660 q 518 631 458 660 q 617 551 578 603 q 668 429 657 500 l 668 233 q 616 112 656 164 q 517 32 576 60 q 385 4 458 4 m 397 69 q 526 102 469 69 q 613 194 582 135 q 643 332 643 253 q 612 468 643 410 q 525 560 581 526 q 394 593 469 593 q 261 560 319 593 q 169 468 203 526 q 136 333 136 410 q 169 197 136 257 q 262 103 203 138 q 397 69 321 69 z "},"ğ":{"ha":814,"x_min":64,"x_max":710,"o":"m 371 -287 q 200 -252 276 -287 q 78 -150 124 -217 l 122 -106 q 224 -190 160 -158 q 372 -221 288 -221 q 567 -154 496 -221 q 639 25 639 -87 l 639 188 l 656 338 l 639 483 l 639 646 l 710 646 l 710 25 q 667 -139 710 -69 q 549 -248 625 -208 q 371 -287 472 -287 m 385 4 q 220 47 293 4 q 106 163 147 89 q 64 332 64 238 q 106 499 64 425 q 219 617 147 574 q 383 660 292 660 q 518 631 458 660 q 617 551 578 603 q 668 429 657 500 l 668 233 q 616 112 656 164 q 517 32 576 60 q 385 4 458 4 m 397 69 q 526 102 469 69 q 613 194 582 135 q 643 332 643 253 q 612 468 643 410 q 525 560 581 526 q 394 593 469 593 q 261 560 319 593 q 169 468 203 526 q 136 333 136 410 q 169 197 136 257 q 262 103 203 138 q 397 69 321 69 m 638 946 q 609 833 638 883 q 532 754 581 783 q 419 725 483 725 q 305 754 356 725 q 226 833 254 783 q 197 946 197 883 l 263 946 q 306 831 263 876 q 422 785 349 785 q 499 806 464 785 q 553 863 533 826 q 574 946 574 900 l 638 946 z "},"ģ":{"ha":814,"x_min":64,"x_max":710,"o":"m 371 -287 q 200 -252 276 -287 q 78 -150 124 -217 l 122 -106 q 224 -190 160 -158 q 372 -221 288 -221 q 567 -154 496 -221 q 639 25 639 -87 l 639 188 l 656 338 l 639 483 l 639 646 l 710 646 l 710 25 q 667 -139 710 -69 q 549 -248 625 -208 q 371 -287 472 -287 m 385 4 q 220 47 293 4 q 106 163 147 89 q 64 332 64 238 q 106 499 64 425 q 219 617 147 574 q 383 660 292 660 q 518 631 458 660 q 617 551 578 603 q 668 429 657 500 l 668 233 q 616 112 656 164 q 517 32 576 60 q 385 4 458 4 m 397 69 q 526 102 469 69 q 613 194 582 135 q 643 332 643 253 q 612 468 643 410 q 525 560 581 526 q 394 593 469 593 q 261 560 319 593 q 169 468 203 526 q 136 333 136 410 q 169 197 136 257 q 262 103 203 138 q 397 69 321 69 m 472 994 l 401 851 l 374 846 q 387 865 378 857 q 410 872 396 872 q 452 854 433 872 q 471 808 471 836 q 451 760 471 781 q 401 739 431 739 q 353 759 374 739 q 333 808 333 779 q 338 837 333 821 q 354 878 342 853 l 426 1019 l 472 994 z "},"ġ":{"ha":814,"x_min":64,"x_max":710,"o":"m 371 -287 q 200 -252 276 -287 q 78 -150 124 -217 l 122 -106 q 224 -190 160 -158 q 372 -221 288 -221 q 567 -154 496 -221 q 639 25 639 -87 l 639 188 l 656 338 l 639 483 l 639 646 l 710 646 l 710 25 q 667 -139 710 -69 q 549 -248 625 -208 q 371 -287 472 -287 m 385 4 q 220 47 293 4 q 106 163 147 89 q 64 332 64 238 q 106 499 64 425 q 219 617 147 574 q 383 660 292 660 q 518 631 458 660 q 617 551 578 603 q 668 429 657 500 l 668 233 q 616 112 656 164 q 517 32 576 60 q 385 4 458 4 m 397 69 q 526 102 469 69 q 613 194 582 135 q 643 332 643 253 q 612 468 643 410 q 525 560 581 526 q 394 593 469 593 q 261 560 319 593 q 169 468 203 526 q 136 333 136 410 q 169 197 136 257 q 262 103 203 138 q 397 69 321 69 m 417 761 q 377 778 393 761 q 361 819 361 796 q 377 859 361 843 q 417 875 393 875 q 457 859 440 875 q 474 819 474 843 q 457 778 474 796 q 417 761 440 761 z "},"h":{"ha":751,"x_min":104,"x_max":660,"o":"m 590 0 l 590 383 q 535 536 590 478 q 388 594 479 594 q 277 567 325 594 q 202 493 229 540 q 175 383 175 446 l 139 404 q 174 535 139 478 q 268 626 208 593 q 404 660 328 660 q 538 626 481 660 q 628 531 596 592 q 660 392 660 469 l 660 0 l 590 0 m 104 0 l 104 975 l 175 975 l 175 0 l 104 0 z "},"ħ":{"ha":751,"x_min":0,"x_max":660,"o":"m 0 793 l 0 860 l 429 860 l 429 793 l 0 793 m 590 0 l 590 383 q 535 536 590 478 q 388 594 479 594 q 277 567 325 594 q 202 493 229 540 q 175 383 175 446 l 139 404 q 174 535 139 478 q 268 626 208 593 q 404 660 328 660 q 538 626 481 660 q 628 531 596 592 q 660 392 660 469 l 660 0 l 590 0 m 104 0 l 104 975 l 175 975 l 175 0 l 104 0 z "},"i":{"ha":282,"x_min":85,"x_max":197,"o":"m 106 0 l 106 646 l 175 646 l 175 0 l 106 0 m 140 796 q 101 813 117 796 q 85 854 85 831 q 101 894 85 878 q 140 910 117 910 q 181 894 164 910 q 197 854 197 878 q 181 813 197 831 q 140 796 164 796 z "},"ı":{"ha":281,"x_min":104,"x_max":176,"o":"m 104 0 l 104 646 l 176 646 l 176 0 l 104 0 z "},"í":{"ha":281,"x_min":18,"x_max":263,"o":"m 104 0 l 104 646 l 176 646 l 176 0 l 104 0 m 49 750 l 18 781 l 206 999 l 263 940 l 49 750 z "},"î":{"ha":281,"x_min":-79,"x_max":360,"o":"m 104 0 l 104 646 l 176 646 l 176 0 l 104 0 m -49 750 l -79 781 l 111 994 l 171 994 l 361 781 l 331 750 l 118 939 l 164 939 l -49 750 z "},"ï":{"ha":281,"x_min":-40,"x_max":321,"o":"m 104 0 l 104 646 l 176 646 l 176 0 l 104 0 m 15 761 q -24 778 -8 761 q -40 819 -40 796 q -24 859 -40 843 q 15 875 -8 875 q 56 859 39 875 q 72 819 72 843 q 56 778 72 796 q 15 761 39 761 m 265 761 q 226 778 242 761 q 210 819 210 796 q 226 859 210 843 q 265 875 242 875 q 306 859 289 875 q 322 819 322 843 q 306 778 322 796 q 265 761 289 761 z "},"ì":{"ha":281,"x_min":-19,"x_max":226,"o":"m 104 0 l 104 646 l 176 646 l 176 0 l 104 0 m 194 747 l -19 938 l 39 994 l 225 778 l 194 747 z "},"ĳ":{"ha":567,"x_min":85,"x_max":483,"o":"m 106 0 l 106 646 l 175 646 l 175 0 l 106 0 m 140 796 q 101 813 117 796 q 85 854 85 831 q 101 894 85 878 q 140 910 117 910 q 181 894 164 910 q 197 854 197 878 q 181 813 197 831 q 140 796 164 796 m 269 -287 q 179 -270 219 -287 q 108 -219 139 -253 l 156 -174 q 207 -210 179 -199 q 267 -222 235 -222 q 356 -192 319 -222 q 392 -94 392 -161 l 392 646 l 463 646 l 463 -93 q 435 -200 463 -157 q 365 -265 408 -243 q 269 -287 321 -287 m 426 796 q 388 813 403 796 q 372 854 372 831 q 388 894 372 878 q 426 910 403 910 q 467 894 451 910 q 483 854 483 878 q 467 813 483 831 q 426 796 451 796 z "},"ī":{"ha":281,"x_min":-40,"x_max":321,"o":"m -40 847 l 321 847 l 321 789 l -40 789 l -40 847 m 104 0 l 104 646 l 176 646 l 176 0 l 104 0 z "},"į":{"ha":282,"x_min":14,"x_max":235,"o":"m 106 0 l 106 646 l 175 646 l 175 0 l 106 0 m 140 796 q 101 813 117 796 q 85 854 85 831 q 101 894 85 878 q 140 910 117 910 q 181 894 164 910 q 197 854 197 878 q 181 813 197 831 q 140 796 164 796 m 139 -287 q 51 -258 88 -287 q 14 -171 14 -229 q 48 -71 14 -124 q 133 22 82 -18 l 176 0 q 99 -81 128 -42 q 71 -165 71 -121 q 91 -221 71 -203 q 146 -239 111 -239 q 181 -233 165 -239 q 213 -217 196 -226 l 235 -256 q 192 -279 215 -271 q 139 -287 168 -287 z "},"j":{"ha":285,"x_min":-174,"x_max":201,"o":"m -12 -287 q -103 -270 -62 -287 q -174 -219 -143 -253 l -126 -174 q -75 -210 -103 -199 q -15 -222 -47 -222 q 74 -192 38 -222 q 110 -94 110 -161 l 110 646 l 181 646 l 181 -93 q 153 -200 181 -157 q 83 -265 126 -243 q -12 -287 39 -287 m 144 796 q 106 813 121 796 q 90 854 90 831 q 106 894 90 878 q 144 910 121 910 q 185 894 169 910 q 201 854 201 878 q 185 813 201 831 q 144 796 169 796 z "},"ȷ":{"ha":285,"x_min":-174,"x_max":181,"o":"m -12 -287 q -103 -270 -62 -287 q -174 -219 -143 -253 l -126 -174 q -75 -210 -103 -199 q -15 -222 -47 -222 q 74 -192 38 -222 q 110 -94 110 -161 l 110 646 l 181 646 l 181 -93 q 153 -200 181 -157 q 83 -265 126 -243 q -12 -287 39 -287 z "},"k":{"ha":654,"x_min":104,"x_max":621,"o":"m 525 0 l 165 332 l 518 646 l 608 646 l 233 314 l 235 353 l 621 0 l 525 0 m 104 0 l 104 975 l 175 975 l 175 0 l 104 0 z "},"ķ":{"ha":654,"x_min":104,"x_max":621,"o":"m 525 0 l 165 332 l 518 646 l 608 646 l 233 314 l 235 353 l 621 0 l 525 0 m 104 0 l 104 975 l 175 975 l 175 0 l 104 0 m 326 -392 l 281 -367 l 351 -224 l 379 -218 q 366 -237 375 -229 q 343 -244 357 -244 q 301 -226 319 -244 q 282 -181 282 -208 q 302 -131 282 -151 q 351 -111 322 -111 q 399 -131 378 -111 q 419 -181 419 -151 q 416 -209 419 -193 q 399 -250 413 -225 l 326 -392 z "},"l":{"ha":279,"x_min":104,"x_max":175,"o":"m 104 0 l 104 975 l 175 975 l 175 0 l 104 0 z "},"ĺ":{"ha":279,"x_min":17,"x_max":261,"o":"m 104 0 l 104 975 l 175 975 l 175 0 l 104 0 m 47 1051 l 17 1082 l 204 1300 l 261 1242 l 47 1051 z "},"ľ":{"ha":489,"x_min":104,"x_max":375,"o":"m 104 0 l 104 975 l 175 975 l 175 0 l 104 0 m 282 671 l 236 696 l 308 839 l 335 844 q 322 826 331 833 q 299 818 313 818 q 256 837 275 818 q 238 882 238 856 q 258 931 238 911 q 307 951 279 951 q 355 931 335 951 q 375 882 375 911 q 372 855 375 871 q 356 813 368 839 l 282 671 z "},"ļ":{"ha":279,"x_min":71,"x_max":210,"o":"m 104 0 l 104 975 l 175 975 l 175 0 l 104 0 m 118 -392 l 72 -367 l 143 -224 l 171 -218 q 158 -237 167 -229 q 135 -244 149 -244 q 92 -226 111 -244 q 74 -181 74 -208 q 94 -131 74 -151 q 143 -111 114 -111 q 190 -131 169 -111 q 211 -181 211 -151 q 208 -209 211 -193 q 190 -250 204 -225 l 118 -392 z "},"ł":{"ha":572,"x_min":104,"x_max":468,"o":"m 104 418 l 468 626 l 468 557 l 104 349 l 104 418 m 251 0 l 251 975 l 321 975 l 321 0 l 251 0 z "},"m":{"ha":1171,"x_min":104,"x_max":1081,"o":"m 104 0 l 104 646 l 175 646 l 175 0 l 104 0 m 557 0 l 557 401 q 505 542 557 489 q 372 594 453 594 q 274 571 318 594 q 202 504 229 547 q 175 404 175 461 l 139 413 q 172 543 139 488 q 260 629 204 599 q 386 660 317 660 q 510 629 456 660 q 596 543 564 599 q 628 413 628 488 l 628 0 l 557 0 m 1010 0 l 1010 401 q 958 542 1010 489 q 825 594 906 594 q 726 571 771 594 q 654 504 681 547 q 628 404 628 461 l 585 413 q 620 544 586 489 q 711 629 654 599 q 838 660 768 660 q 961 629 907 660 q 1048 542 1015 599 q 1081 411 1081 486 l 1081 0 l 1010 0 z "},"n":{"ha":751,"x_min":104,"x_max":660,"o":"m 590 0 l 590 383 q 535 536 590 478 q 388 594 479 594 q 277 567 325 594 q 202 493 229 540 q 175 383 175 446 l 139 404 q 174 535 139 478 q 268 626 208 593 q 404 660 328 660 q 538 624 481 660 q 628 528 596 589 q 660 392 660 467 l 660 0 l 590 0 m 104 0 l 104 646 l 175 646 l 175 0 l 104 0 z "},"ń":{"ha":751,"x_min":104,"x_max":660,"o":"m 590 0 l 590 383 q 535 536 590 478 q 388 594 479 594 q 277 567 325 594 q 202 493 229 540 q 175 383 175 446 l 139 404 q 174 535 139 478 q 268 626 208 593 q 404 660 328 660 q 538 624 481 660 q 628 528 596 589 q 660 392 660 467 l 660 0 l 590 0 m 104 0 l 104 646 l 175 646 l 175 0 l 104 0 m 285 750 l 254 781 l 442 999 l 499 940 l 285 750 z "},"ň":{"ha":751,"x_min":104,"x_max":660,"o":"m 590 0 l 590 383 q 535 536 590 478 q 388 594 479 594 q 277 567 325 594 q 202 493 229 540 q 175 383 175 446 l 139 404 q 174 535 139 478 q 268 626 208 593 q 404 660 328 660 q 538 624 481 660 q 628 528 596 589 q 660 392 660 467 l 660 0 l 590 0 m 104 0 l 104 646 l 175 646 l 175 0 l 104 0 m 565 994 l 596 964 l 406 750 l 346 750 l 156 964 l 188 994 l 399 804 l 353 806 l 565 994 z "},"ņ":{"ha":751,"x_min":104,"x_max":660,"o":"m 590 0 l 590 383 q 535 536 590 478 q 388 594 479 594 q 277 567 325 594 q 202 493 229 540 q 175 383 175 446 l 139 404 q 174 535 139 478 q 268 626 208 593 q 404 660 328 660 q 538 624 481 660 q 628 528 596 589 q 660 392 660 467 l 660 0 l 590 0 m 104 0 l 104 646 l 175 646 l 175 0 l 104 0 m 354 -392 l 308 -367 l 379 -224 l 407 -218 q 394 -237 403 -229 q 371 -244 385 -244 q 328 -226 347 -244 q 310 -181 310 -208 q 330 -131 310 -151 q 379 -111 350 -111 q 426 -131 406 -111 q 447 -181 447 -151 q 444 -209 447 -193 q 426 -250 440 -225 l 354 -392 z "},"ñ":{"ha":751,"x_min":104,"x_max":660,"o":"m 590 0 l 590 383 q 535 536 590 478 q 388 594 479 594 q 277 567 325 594 q 202 493 229 540 q 175 383 175 446 l 139 404 q 174 535 139 478 q 268 626 208 593 q 404 660 328 660 q 538 624 481 660 q 628 528 596 589 q 660 392 660 467 l 660 0 l 590 0 m 104 0 l 104 646 l 175 646 l 175 0 l 104 0 m 479 760 q 406 775 436 760 q 347 806 375 790 q 282 821 318 821 q 224 807 244 821 q 185 768 203 793 l 144 804 q 201 860 169 839 q 281 882 232 882 q 358 867 326 882 q 418 836 390 851 q 478 821 446 821 q 531 835 511 821 q 569 874 551 849 l 610 836 q 553 781 585 803 q 479 760 522 760 z "},"ŋ":{"ha":751,"x_min":104,"x_max":660,"o":"m 467 -287 q 376 -270 417 -287 q 307 -219 336 -253 l 353 -174 q 404 -210 376 -199 q 465 -222 432 -222 q 553 -192 517 -222 q 590 -94 590 -161 l 590 274 l 660 274 l 660 -93 q 633 -200 660 -157 q 563 -265 607 -243 q 467 -287 518 -287 m 590 0 l 590 383 q 535 536 590 478 q 388 594 479 594 q 277 567 325 594 q 202 493 229 540 q 175 383 175 446 l 139 404 q 174 535 139 478 q 268 626 208 593 q 404 660 328 660 q 538 624 481 660 q 628 528 596 589 q 660 392 660 467 l 660 0 l 590 0 m 104 0 l 104 646 l 175 646 l 175 0 l 104 0 z "},"o":{"ha":793,"x_min":63,"x_max":731,"o":"m 397 -14 q 227 31 303 -14 q 107 153 151 76 q 63 325 63 231 q 107 495 63 419 q 227 615 151 571 q 397 660 303 660 q 566 615 490 660 q 686 495 642 571 q 731 325 731 419 q 686 153 731 229 q 566 31 642 76 q 397 -14 490 -14 m 397 53 q 530 89 471 53 q 623 187 589 125 q 657 326 657 249 q 623 463 657 403 q 530 558 589 522 q 397 593 471 593 q 263 558 322 593 q 169 463 204 522 q 135 325 135 403 q 169 186 135 247 q 263 89 204 125 q 397 53 322 53 z "},"ó":{"ha":793,"x_min":63,"x_max":731,"o":"m 397 -14 q 227 31 303 -14 q 107 153 151 76 q 63 325 63 231 q 107 495 63 419 q 227 615 151 571 q 397 660 303 660 q 566 615 490 660 q 686 495 642 571 q 731 325 731 419 q 686 153 731 229 q 566 31 642 76 q 397 -14 490 -14 m 397 53 q 530 89 471 53 q 623 187 589 125 q 657 326 657 249 q 623 463 657 403 q 530 558 589 522 q 397 593 471 593 q 263 558 322 593 q 169 463 204 522 q 135 325 135 403 q 169 186 135 247 q 263 89 204 125 q 397 53 322 53 m 306 750 l 275 781 l 463 999 l 519 940 l 306 750 z "},"ô":{"ha":793,"x_min":63,"x_max":731,"o":"m 397 -14 q 227 31 303 -14 q 107 153 151 76 q 63 325 63 231 q 107 495 63 419 q 227 615 151 571 q 397 660 303 660 q 566 615 490 660 q 686 495 642 571 q 731 325 731 419 q 686 153 731 229 q 566 31 642 76 q 397 -14 490 -14 m 397 53 q 530 89 471 53 q 623 187 589 125 q 657 326 657 249 q 623 463 657 403 q 530 558 589 522 q 397 593 471 593 q 263 558 322 593 q 169 463 204 522 q 135 325 135 403 q 169 186 135 247 q 263 89 204 125 q 397 53 322 53 m 207 750 l 176 781 l 367 994 l 426 994 l 617 781 l 586 750 l 374 939 l 419 939 l 207 750 z "},"ö":{"ha":793,"x_min":63,"x_max":731,"o":"m 397 -14 q 227 31 303 -14 q 107 153 151 76 q 63 325 63 231 q 107 495 63 419 q 227 615 151 571 q 397 660 303 660 q 566 615 490 660 q 686 495 642 571 q 731 325 731 419 q 686 153 731 229 q 566 31 642 76 q 397 -14 490 -14 m 397 53 q 530 89 471 53 q 623 187 589 125 q 657 326 657 249 q 623 463 657 403 q 530 558 589 522 q 397 593 471 593 q 263 558 322 593 q 169 463 204 522 q 135 325 135 403 q 169 186 135 247 q 263 89 204 125 q 397 53 322 53 m 272 761 q 233 778 249 761 q 217 819 217 796 q 233 859 217 843 q 272 875 249 875 q 313 859 296 875 q 329 819 329 843 q 313 778 329 796 q 272 761 296 761 m 522 761 q 483 778 499 761 q 467 819 467 796 q 483 859 467 843 q 522 875 499 875 q 563 859 546 875 q 579 819 579 843 q 563 778 579 796 q 522 761 546 761 z "},"ò":{"ha":793,"x_min":63,"x_max":731,"o":"m 397 -14 q 227 31 303 -14 q 107 153 151 76 q 63 325 63 231 q 107 495 63 419 q 227 615 151 571 q 397 660 303 660 q 566 615 490 660 q 686 495 642 571 q 731 325 731 419 q 686 153 731 229 q 566 31 642 76 q 397 -14 490 -14 m 397 53 q 530 89 471 53 q 623 187 589 125 q 657 326 657 249 q 623 463 657 403 q 530 558 589 522 q 397 593 471 593 q 263 558 322 593 q 169 463 204 522 q 135 325 135 403 q 169 186 135 247 q 263 89 204 125 q 397 53 322 53 m 451 747 l 238 938 l 296 994 l 482 778 l 451 747 z "},"ő":{"ha":793,"x_min":63,"x_max":731,"o":"m 397 -14 q 227 31 303 -14 q 107 153 151 76 q 63 325 63 231 q 107 495 63 419 q 227 615 151 571 q 397 660 303 660 q 566 615 490 660 q 686 495 642 571 q 731 325 731 419 q 686 153 731 229 q 566 31 642 76 q 397 -14 490 -14 m 397 53 q 530 89 471 53 q 623 187 589 125 q 657 326 657 249 q 623 463 657 403 q 530 558 589 522 q 397 593 471 593 q 263 558 322 593 q 169 463 204 522 q 135 325 135 403 q 169 186 135 247 q 263 89 204 125 q 397 53 322 53 m 265 731 l 225 746 l 303 1022 l 379 993 l 265 731 m 451 731 l 410 746 l 488 1022 l 565 993 l 451 731 z "},"ō":{"ha":793,"x_min":63,"x_max":731,"o":"m 397 -14 q 227 31 303 -14 q 107 153 151 76 q 63 325 63 231 q 107 495 63 419 q 227 615 151 571 q 397 660 303 660 q 566 615 490 660 q 686 495 642 571 q 731 325 731 419 q 686 153 731 229 q 566 31 642 76 q 397 -14 490 -14 m 397 53 q 530 89 471 53 q 623 187 589 125 q 657 326 657 249 q 623 463 657 403 q 530 558 589 522 q 397 593 471 593 q 263 558 322 593 q 169 463 204 522 q 135 325 135 403 q 169 186 135 247 q 263 89 204 125 q 397 53 322 53 m 171 847 l 625 847 l 625 789 l 171 789 l 171 847 z "},"ø":{"ha":793,"x_min":50,"x_max":743,"o":"m 96 -24 l 50 22 l 697 669 l 743 624 l 96 -24 m 397 -14 q 227 31 303 -14 q 107 153 151 76 q 63 325 63 231 q 107 495 63 419 q 227 615 151 571 q 397 660 303 660 q 566 615 490 660 q 686 495 642 571 q 731 325 731 419 q 686 153 731 229 q 566 31 642 76 q 397 -14 490 -14 m 397 53 q 530 89 471 53 q 623 187 589 125 q 657 326 657 249 q 623 463 657 403 q 530 558 589 522 q 397 593 471 593 q 263 558 322 593 q 169 463 204 522 q 135 325 135 403 q 169 186 135 247 q 263 89 204 125 q 397 53 322 53 z "},"õ":{"ha":793,"x_min":63,"x_max":731,"o":"m 397 -14 q 227 31 303 -14 q 107 153 151 76 q 63 325 63 231 q 107 495 63 419 q 227 615 151 571 q 397 660 303 660 q 566 615 490 660 q 686 495 642 571 q 731 325 731 419 q 686 153 731 229 q 566 31 642 76 q 397 -14 490 -14 m 397 53 q 530 89 471 53 q 623 187 589 125 q 657 326 657 249 q 623 463 657 403 q 530 558 589 522 q 397 593 471 593 q 263 558 322 593 q 169 463 204 522 q 135 325 135 403 q 169 186 135 247 q 263 89 204 125 q 397 53 322 53 m 500 760 q 426 775 457 760 q 367 806 396 790 q 303 821 339 821 q 244 807 265 821 q 206 768 224 793 l 165 804 q 222 860 190 839 q 301 882 253 882 q 379 867 347 882 q 439 836 411 851 q 499 821 467 821 q 552 835 532 821 q 590 874 572 849 l 631 836 q 574 781 606 803 q 500 760 543 760 z "},"œ":{"ha":1347,"x_min":63,"x_max":1289,"o":"m 397 -14 q 227 31 303 -14 q 107 153 151 76 q 63 325 63 231 q 107 495 63 419 q 227 615 151 571 q 397 660 303 660 q 566 615 490 660 q 686 495 642 571 q 731 325 731 419 q 686 153 731 229 q 566 31 642 76 q 397 -14 490 -14 m 397 53 q 530 89 471 53 q 623 187 589 125 q 657 326 657 249 q 623 463 657 403 q 530 558 589 522 q 397 593 471 593 q 263 558 322 593 q 169 463 204 522 q 135 325 135 403 q 169 186 135 247 q 263 89 204 125 q 397 53 322 53 m 999 -14 q 826 31 903 -14 q 704 151 749 75 q 660 324 660 228 q 703 495 660 419 q 822 615 746 571 q 990 660 897 660 q 1147 620 1079 660 q 1252 511 1214 581 q 1290 351 1290 442 q 1289 330 1290 343 q 1285 297 1288 317 l 710 297 l 710 358 l 1244 358 l 1221 339 q 1196 473 1224 415 q 1115 563 1168 531 q 989 594 1063 594 q 854 560 913 594 q 763 467 796 526 q 731 328 731 407 q 765 183 731 244 q 860 87 799 121 q 1003 53 921 53 q 1119 76 1065 53 q 1208 144 1172 99 l 1256 99 q 1144 16 1211 46 q 999 -14 1076 -14 z "},"p":{"ha":815,"x_min":104,"x_max":751,"o":"m 432 -14 q 299 15 360 -14 q 199 97 239 44 q 146 218 158 149 l 146 429 q 199 552 158 500 q 301 632 240 604 q 432 660 361 660 q 596 615 524 660 q 710 494 668 571 q 751 322 751 418 q 710 151 751 226 q 596 31 668 75 q 432 -14 524 -14 m 104 -274 l 104 646 l 175 646 l 175 485 l 158 328 l 175 169 l 175 -274 l 104 -274 m 419 53 q 554 88 496 53 q 646 183 613 122 q 679 324 679 244 q 646 464 679 403 q 555 559 613 525 q 424 593 497 593 q 292 559 349 593 q 204 464 236 525 q 172 322 172 403 q 203 183 172 243 q 291 88 235 122 q 419 53 347 53 z "},"þ":{"ha":815,"x_min":104,"x_max":751,"o":"m 432 -14 q 299 15 360 -14 q 199 97 239 44 q 146 218 158 149 l 146 429 q 199 552 158 500 q 301 632 240 604 q 432 660 361 660 q 596 615 524 660 q 710 494 668 571 q 751 322 751 418 q 710 151 751 226 q 596 31 668 75 q 432 -14 524 -14 m 104 -274 l 104 975 l 175 975 l 175 485 l 158 328 l 175 169 l 175 -274 l 104 -274 m 419 53 q 555 88 496 53 q 647 183 614 122 q 679 324 679 244 q 647 464 679 403 q 556 559 614 525 q 424 593 497 593 q 292 559 349 593 q 204 464 236 525 q 172 322 172 403 q 203 183 172 243 q 291 88 235 122 q 419 53 347 53 z "},"q":{"ha":817,"x_min":64,"x_max":711,"o":"m 392 -14 q 224 31 297 -14 q 107 151 150 75 q 64 322 64 226 q 107 493 64 417 q 224 615 150 569 q 389 660 297 660 q 523 631 464 660 q 620 551 582 603 q 669 429 658 500 l 669 218 q 619 95 657 147 q 522 15 581 43 q 392 -14 464 -14 m 401 53 q 578 127 513 53 q 644 322 644 201 q 614 465 644 404 q 528 559 583 525 q 400 593 474 593 q 265 558 324 593 q 171 463 206 524 q 136 324 136 401 q 171 183 136 244 q 265 88 206 122 q 401 53 325 53 m 642 -274 l 642 169 l 657 328 l 642 485 l 642 646 l 711 646 l 711 -274 l 642 -274 z "},"r":{"ha":567,"x_min":104,"x_max":531,"o":"m 104 0 l 104 646 l 175 646 l 175 0 l 104 0 m 175 386 l 140 399 q 203 591 140 522 q 367 660 265 660 q 455 643 414 660 q 531 589 496 626 l 483 539 q 426 581 457 568 q 354 593 396 593 q 225 540 275 593 q 175 386 175 486 z "},"ŕ":{"ha":567,"x_min":104,"x_max":531,"o":"m 104 0 l 104 646 l 175 646 l 175 0 l 104 0 m 175 386 l 140 399 q 203 591 140 522 q 367 660 265 660 q 455 643 414 660 q 531 589 496 626 l 483 539 q 426 581 457 568 q 354 593 396 593 q 225 540 275 593 q 175 386 175 486 m 193 750 l 163 781 l 350 999 l 407 940 l 193 750 z "},"ř":{"ha":567,"x_min":65,"x_max":531,"o":"m 104 0 l 104 646 l 175 646 l 175 0 l 104 0 m 175 386 l 140 399 q 203 591 140 522 q 367 660 265 660 q 455 643 414 660 q 531 589 496 626 l 483 539 q 426 581 457 568 q 354 593 396 593 q 225 540 275 593 q 175 386 175 486 m 474 994 l 506 964 l 315 750 l 256 750 l 65 964 l 96 994 l 308 804 l 261 806 l 474 994 z "},"ŗ":{"ha":567,"x_min":71,"x_max":531,"o":"m 104 0 l 104 646 l 175 646 l 175 0 l 104 0 m 175 386 l 140 399 q 203 591 140 522 q 367 660 265 660 q 455 643 414 660 q 531 589 496 626 l 483 539 q 426 581 457 568 q 354 593 396 593 q 225 540 275 593 q 175 386 175 486 m 118 -392 l 72 -367 l 143 -224 l 171 -218 q 158 -237 167 -229 q 135 -244 149 -244 q 92 -226 111 -244 q 74 -181 74 -208 q 94 -131 74 -151 q 143 -111 114 -111 q 190 -131 169 -111 q 211 -181 211 -151 q 208 -209 211 -193 q 190 -250 204 -225 l 118 -392 z "},"s":{"ha":583,"x_min":46,"x_max":522,"o":"m 297 -14 q 198 1 244 -14 q 113 42 151 15 q 46 103 75 68 l 93 150 q 184 74 132 99 q 299 50 236 50 q 413 79 371 50 q 454 161 454 108 q 428 235 454 208 q 359 278 401 263 q 270 307 317 293 q 181 340 224 321 q 113 394 139 360 q 86 488 86 429 q 113 578 86 539 q 187 638 139 617 q 300 660 235 660 q 430 635 372 660 q 522 561 488 610 l 476 514 q 401 574 449 553 q 296 596 354 596 q 190 567 226 596 q 154 492 154 538 q 181 424 154 449 q 249 385 207 399 q 338 358 292 371 q 427 324 385 344 q 496 267 469 303 q 522 168 522 231 q 461 35 522 85 q 297 -14 400 -14 z "},"ś":{"ha":583,"x_min":46,"x_max":522,"o":"m 297 -14 q 198 1 244 -14 q 113 42 151 15 q 46 103 75 68 l 93 150 q 184 74 132 99 q 299 50 236 50 q 413 79 371 50 q 454 161 454 108 q 428 235 454 208 q 359 278 401 263 q 270 307 317 293 q 181 340 224 321 q 113 394 139 360 q 86 488 86 429 q 113 578 86 539 q 187 638 139 617 q 300 660 235 660 q 430 635 372 660 q 522 561 488 610 l 476 514 q 401 574 449 553 q 296 596 354 596 q 190 567 226 596 q 154 492 154 538 q 181 424 154 449 q 249 385 207 399 q 338 358 292 371 q 427 324 385 344 q 496 267 469 303 q 522 168 522 231 q 461 35 522 85 q 297 -14 400 -14 m 208 750 l 178 781 l 365 999 l 422 940 l 208 750 z "},"š":{"ha":583,"x_min":46,"x_max":522,"o":"m 297 -14 q 198 1 244 -14 q 113 42 151 15 q 46 103 75 68 l 93 150 q 184 74 132 99 q 299 50 236 50 q 413 79 371 50 q 454 161 454 108 q 428 235 454 208 q 359 278 401 263 q 270 307 317 293 q 181 340 224 321 q 113 394 139 360 q 86 488 86 429 q 113 578 86 539 q 187 638 139 617 q 300 660 235 660 q 430 635 372 660 q 522 561 488 610 l 476 514 q 401 574 449 553 q 296 596 354 596 q 190 567 226 596 q 154 492 154 538 q 181 424 154 449 q 249 385 207 399 q 338 358 292 371 q 427 324 385 344 q 496 267 469 303 q 522 168 522 231 q 461 35 522 85 q 297 -14 400 -14 m 489 994 l 521 964 l 331 750 l 271 750 l 81 964 l 111 994 l 324 804 l 276 806 l 489 994 z "},"ş":{"ha":583,"x_min":46,"x_max":522,"o":"m 297 -14 q 198 1 244 -14 q 113 42 151 15 q 46 103 75 68 l 93 150 q 184 74 132 99 q 299 50 236 50 q 413 79 371 50 q 454 161 454 108 q 428 235 454 208 q 359 278 401 263 q 270 307 317 293 q 181 340 224 321 q 113 394 139 360 q 86 488 86 429 q 113 578 86 539 q 187 638 139 617 q 300 660 235 660 q 430 635 372 660 q 522 561 488 610 l 476 514 q 401 574 449 553 q 296 596 354 596 q 190 567 226 596 q 154 492 154 538 q 181 424 154 449 q 249 385 207 399 q 338 358 292 371 q 427 324 385 344 q 496 267 469 303 q 522 168 522 231 q 461 35 522 85 q 297 -14 400 -14 m 285 -287 q 201 -274 242 -287 q 128 -233 161 -260 l 171 -190 q 219 -221 190 -210 q 282 -232 247 -232 q 358 -215 332 -232 q 385 -168 385 -199 q 356 -122 385 -139 q 274 -104 328 -104 l 235 -104 l 272 14 l 336 14 l 306 -83 l 278 -56 q 406 -85 360 -54 q 453 -171 453 -117 q 408 -256 453 -225 q 285 -287 364 -287 z "},"ș":{"ha":583,"x_min":46,"x_max":522,"o":"m 297 -14 q 198 1 244 -14 q 113 42 151 15 q 46 103 75 68 l 93 150 q 184 74 132 99 q 299 50 236 50 q 413 79 371 50 q 454 161 454 108 q 428 235 454 208 q 359 278 401 263 q 270 307 317 293 q 181 340 224 321 q 113 394 139 360 q 86 488 86 429 q 113 578 86 539 q 187 638 139 617 q 300 660 235 660 q 430 635 372 660 q 522 561 488 610 l 476 514 q 401 574 449 553 q 296 596 354 596 q 190 567 226 596 q 154 492 154 538 q 181 424 154 449 q 249 385 207 399 q 338 358 292 371 q 427 324 385 344 q 496 267 469 303 q 522 168 522 231 q 461 35 522 85 q 297 -14 400 -14 m 279 -392 l 233 -367 l 304 -224 l 332 -218 q 319 -237 328 -229 q 296 -244 310 -244 q 253 -226 272 -244 q 235 -181 235 -208 q 255 -131 235 -151 q 304 -111 275 -111 q 351 -131 331 -111 q 372 -181 372 -151 q 369 -209 372 -193 q 351 -250 365 -225 l 279 -392 z "},"ß":{"ha":782,"x_min":104,"x_max":722,"o":"m 436 -14 q 326 6 378 -14 q 238 63 275 25 l 282 114 q 351 69 310 85 q 438 53 392 53 q 551 81 504 53 q 623 159 599 110 q 647 268 647 208 q 619 379 647 331 q 541 458 592 428 q 421 488 490 488 l 338 488 l 338 549 l 381 549 q 478 576 438 549 q 542 647 519 603 q 564 742 564 692 q 541 833 564 792 q 475 900 518 875 q 372 925 432 925 q 231 872 285 925 q 176 732 176 818 l 176 0 l 104 0 l 104 732 q 139 865 104 807 q 233 956 174 922 q 372 989 293 989 q 513 956 454 989 q 603 868 571 924 q 635 744 635 813 q 584 595 635 658 q 446 514 533 532 l 449 539 q 592 501 531 536 q 688 406 654 467 q 722 268 722 346 q 703 157 722 208 q 647 67 683 106 q 556 8 610 29 q 436 -14 503 -14 z "},"t":{"ha":482,"x_min":39,"x_max":443,"o":"m 206 0 l 206 919 l 276 919 l 276 0 l 206 0 m 39 583 l 39 646 l 443 646 l 443 583 l 39 583 z "},"ť":{"ha":581,"x_min":39,"x_max":454,"o":"m 206 0 l 206 919 l 276 919 l 276 0 l 206 0 m 39 583 l 39 646 l 443 646 l 443 583 l 39 583 m 361 692 l 315 717 l 388 860 l 414 865 q 401 847 410 854 q 378 839 392 839 q 335 858 354 839 q 317 903 317 876 q 338 952 317 932 q 386 972 358 972 q 434 952 414 972 q 454 903 454 932 q 451 876 454 892 q 435 833 447 860 l 361 692 z "},"ț":{"ha":482,"x_min":39,"x_max":443,"o":"m 206 0 l 206 919 l 276 919 l 276 0 l 206 0 m 39 583 l 39 646 l 443 646 l 443 583 l 39 583 m 219 -392 l 174 -367 l 244 -224 l 272 -218 q 259 -237 268 -229 q 236 -244 250 -244 q 194 -226 213 -244 q 175 -181 175 -208 q 195 -131 175 -151 q 244 -111 215 -111 q 292 -131 271 -111 q 313 -181 313 -151 q 309 -209 313 -193 q 292 -250 306 -225 l 219 -392 z "},"u":{"ha":713,"x_min":89,"x_max":624,"o":"m 357 -14 q 218 22 279 -14 q 123 122 157 58 q 89 269 89 186 l 89 646 l 160 646 l 160 272 q 184 158 160 207 q 253 81 208 108 q 357 53 297 53 q 499 113 446 53 q 553 272 553 174 l 553 646 l 624 646 l 624 269 q 590 122 624 186 q 495 22 556 58 q 357 -14 435 -14 z "},"ú":{"ha":713,"x_min":89,"x_max":624,"o":"m 357 -14 q 218 22 279 -14 q 123 122 157 58 q 89 269 89 186 l 89 646 l 160 646 l 160 272 q 184 158 160 207 q 253 81 208 108 q 357 53 297 53 q 499 113 446 53 q 553 272 553 174 l 553 646 l 624 646 l 624 269 q 590 122 624 186 q 495 22 556 58 q 357 -14 435 -14 m 265 750 l 235 781 l 422 999 l 479 940 l 265 750 z "},"ŭ":{"ha":713,"x_min":89,"x_max":624,"o":"m 357 -14 q 218 22 279 -14 q 123 122 157 58 q 89 269 89 186 l 89 646 l 160 646 l 160 272 q 184 158 160 207 q 253 81 208 108 q 357 53 297 53 q 499 113 446 53 q 553 272 553 174 l 553 646 l 624 646 l 624 269 q 590 122 624 186 q 495 22 556 58 q 357 -14 435 -14 m 576 946 q 548 833 576 883 q 471 754 519 783 q 358 725 422 725 q 244 754 294 725 q 165 833 193 783 q 136 946 136 883 l 201 946 q 244 831 201 876 q 361 785 288 785 q 438 806 403 785 q 492 863 472 826 q 513 946 513 900 l 576 946 z "},"û":{"ha":713,"x_min":89,"x_max":624,"o":"m 357 -14 q 218 22 279 -14 q 123 122 157 58 q 89 269 89 186 l 89 646 l 160 646 l 160 272 q 184 158 160 207 q 253 81 208 108 q 357 53 297 53 q 499 113 446 53 q 553 272 553 174 l 553 646 l 624 646 l 624 269 q 590 122 624 186 q 495 22 556 58 q 357 -14 435 -14 m 167 750 l 136 781 l 326 994 l 386 994 l 576 781 l 546 750 l 333 939 l 379 939 l 167 750 z "},"ü":{"ha":713,"x_min":89,"x_max":624,"o":"m 357 -14 q 218 22 279 -14 q 123 122 157 58 q 89 269 89 186 l 89 646 l 160 646 l 160 272 q 184 158 160 207 q 253 81 208 108 q 357 53 297 53 q 499 113 446 53 q 553 272 553 174 l 553 646 l 624 646 l 624 269 q 590 122 624 186 q 495 22 556 58 q 357 -14 435 -14 m 232 761 q 192 778 208 761 q 176 819 176 796 q 192 859 176 843 q 232 875 208 875 q 272 859 256 875 q 289 819 289 843 q 272 778 289 796 q 232 761 256 761 m 482 761 q 442 778 458 761 q 426 819 426 796 q 442 859 426 843 q 482 875 458 875 q 522 859 506 875 q 539 819 539 843 q 522 778 539 796 q 482 761 506 761 z "},"ù":{"ha":713,"x_min":89,"x_max":624,"o":"m 357 -14 q 218 22 279 -14 q 123 122 157 58 q 89 269 89 186 l 89 646 l 160 646 l 160 272 q 184 158 160 207 q 253 81 208 108 q 357 53 297 53 q 499 113 446 53 q 553 272 553 174 l 553 646 l 624 646 l 624 269 q 590 122 624 186 q 495 22 556 58 q 357 -14 435 -14 m 411 747 l 197 938 l 256 994 l 442 778 l 411 747 z "},"ű":{"ha":713,"x_min":89,"x_max":624,"o":"m 357 -14 q 218 22 279 -14 q 123 122 157 58 q 89 269 89 186 l 89 646 l 160 646 l 160 272 q 184 158 160 207 q 253 81 208 108 q 357 53 297 53 q 499 113 446 53 q 553 272 553 174 l 553 646 l 624 646 l 624 269 q 590 122 624 186 q 495 22 556 58 q 357 -14 435 -14 m 225 731 l 185 746 l 263 1022 l 339 993 l 225 731 m 411 731 l 369 746 l 447 1022 l 525 993 l 411 731 z "},"ū":{"ha":713,"x_min":89,"x_max":624,"o":"m 357 -14 q 218 22 279 -14 q 123 122 157 58 q 89 269 89 186 l 89 646 l 160 646 l 160 272 q 184 158 160 207 q 253 81 208 108 q 357 53 297 53 q 499 113 446 53 q 553 272 553 174 l 553 646 l 624 646 l 624 269 q 590 122 624 186 q 495 22 556 58 q 357 -14 435 -14 m 131 847 l 585 847 l 585 789 l 131 789 l 131 847 z "},"ų":{"ha":713,"x_min":89,"x_max":624,"o":"m 357 -14 q 218 22 279 -14 q 123 122 157 58 q 89 269 89 186 l 89 646 l 160 646 l 160 272 q 184 158 160 207 q 253 81 208 108 q 357 53 297 53 q 499 113 446 53 q 553 272 553 174 l 553 646 l 624 646 l 624 269 q 590 122 624 186 q 495 22 556 58 q 357 -14 435 -14 m 442 -274 q 353 -244 390 -274 q 317 -157 317 -215 q 351 -57 317 -110 q 436 36 385 -4 l 479 14 q 402 -67 431 -28 q 374 -151 374 -107 q 394 -207 374 -189 q 449 -225 414 -225 q 483 -219 468 -225 q 515 -203 499 -212 l 538 -242 q 494 -265 518 -257 q 442 -274 471 -274 z "},"ů":{"ha":713,"x_min":89,"x_max":624,"o":"m 357 -14 q 218 22 279 -14 q 123 122 157 58 q 89 269 89 186 l 89 646 l 160 646 l 160 272 q 184 158 160 207 q 253 81 208 108 q 357 53 297 53 q 499 113 446 53 q 553 272 553 174 l 553 646 l 624 646 l 624 269 q 590 122 624 186 q 495 22 556 58 q 357 -14 435 -14 m 358 725 q 280 745 314 725 q 226 799 246 765 q 207 874 207 832 q 226 951 207 917 q 280 1004 246 985 q 358 1024 314 1024 q 434 1004 401 1024 q 486 951 467 985 q 506 875 506 917 q 486 798 506 832 q 434 744 467 764 q 358 725 401 725 m 360 781 q 422 808 396 781 q 449 875 449 835 q 422 942 449 915 q 360 968 396 968 q 291 941 317 968 q 265 875 265 914 q 291 808 265 835 q 360 781 317 781 z "},"v":{"ha":713,"x_min":33,"x_max":679,"o":"m 335 0 l 33 646 l 111 646 l 378 60 l 335 60 l 603 646 l 679 646 l 376 0 l 335 0 z "},"w":{"ha":1031,"x_min":38,"x_max":993,"o":"m 282 0 l 38 646 l 111 646 l 318 75 l 288 75 l 494 646 l 536 646 l 743 75 l 713 75 l 919 646 l 993 646 l 750 0 l 707 0 l 497 572 l 535 572 l 324 0 l 282 0 z "},"ẃ":{"ha":1031,"x_min":38,"x_max":993,"o":"m 282 0 l 38 646 l 111 646 l 318 75 l 288 75 l 494 646 l 536 646 l 743 75 l 713 75 l 919 646 l 993 646 l 750 0 l 707 0 l 497 572 l 535 572 l 324 0 l 282 0 m 424 750 l 393 781 l 581 999 l 638 940 l 424 750 z "},"ŵ":{"ha":1031,"x_min":38,"x_max":993,"o":"m 282 0 l 38 646 l 111 646 l 318 75 l 288 75 l 494 646 l 536 646 l 743 75 l 713 75 l 919 646 l 993 646 l 750 0 l 707 0 l 497 572 l 535 572 l 324 0 l 282 0 m 326 750 l 296 781 l 486 994 l 546 994 l 736 781 l 706 750 l 493 939 l 539 939 l 326 750 z "},"ẅ":{"ha":1031,"x_min":38,"x_max":993,"o":"m 282 0 l 38 646 l 111 646 l 318 75 l 288 75 l 494 646 l 536 646 l 743 75 l 713 75 l 919 646 l 993 646 l 750 0 l 707 0 l 497 572 l 535 572 l 324 0 l 282 0 m 390 761 q 351 778 367 761 q 335 819 335 796 q 351 859 335 843 q 390 875 367 875 q 431 859 414 875 q 447 819 447 843 q 431 778 447 796 q 390 761 414 761 m 640 761 q 601 778 617 761 q 585 819 585 796 q 601 859 585 843 q 640 875 617 875 q 681 859 664 875 q 697 819 697 843 q 681 778 697 796 q 640 761 664 761 z "},"ẁ":{"ha":1031,"x_min":38,"x_max":993,"o":"m 282 0 l 38 646 l 111 646 l 318 75 l 288 75 l 494 646 l 536 646 l 743 75 l 713 75 l 919 646 l 993 646 l 750 0 l 707 0 l 497 572 l 535 572 l 324 0 l 282 0 m 569 747 l 356 938 l 414 994 l 600 778 l 569 747 z "},"x":{"ha":685,"x_min":36,"x_max":649,"o":"m 561 0 l 329 304 l 313 318 l 49 646 l 136 646 l 356 368 l 372 357 l 649 0 l 561 0 m 36 0 l 314 351 l 351 297 l 122 0 l 36 0 m 374 318 l 338 369 l 553 646 l 638 646 l 374 318 z "},"y":{"ha":703,"x_min":38,"x_max":665,"o":"m 325 -1 l 38 646 l 115 646 l 364 72 l 328 72 l 588 646 l 665 646 l 361 -1 l 325 -1 m 157 -274 l 324 68 l 361 -1 l 233 -274 l 157 -274 z "},"ý":{"ha":703,"x_min":38,"x_max":665,"o":"m 325 -1 l 38 646 l 115 646 l 364 72 l 328 72 l 588 646 l 665 646 l 361 -1 l 325 -1 m 157 -274 l 324 68 l 361 -1 l 233 -274 l 157 -274 m 260 750 l 229 781 l 417 999 l 474 940 l 260 750 z "},"ŷ":{"ha":703,"x_min":38,"x_max":665,"o":"m 325 -1 l 38 646 l 115 646 l 364 72 l 328 72 l 588 646 l 665 646 l 361 -1 l 325 -1 m 157 -274 l 324 68 l 361 -1 l 233 -274 l 157 -274 m 163 750 l 132 781 l 322 994 l 382 994 l 572 781 l 542 750 l 329 939 l 375 939 l 163 750 z "},"ÿ":{"ha":703,"x_min":38,"x_max":665,"o":"m 325 -1 l 38 646 l 115 646 l 364 72 l 328 72 l 588 646 l 665 646 l 361 -1 l 325 -1 m 157 -274 l 324 68 l 361 -1 l 233 -274 l 157 -274 m 226 761 q 187 778 203 761 q 171 819 171 796 q 187 859 171 843 q 226 875 203 875 q 267 859 250 875 q 283 819 283 843 q 267 778 283 796 q 226 761 250 761 m 476 761 q 437 778 453 761 q 421 819 421 796 q 437 859 421 843 q 476 875 453 875 q 517 859 500 875 q 533 819 533 843 q 517 778 533 796 q 476 761 500 761 z "},"ỳ":{"ha":703,"x_min":38,"x_max":665,"o":"m 325 -1 l 38 646 l 115 646 l 364 72 l 328 72 l 588 646 l 665 646 l 361 -1 l 325 -1 m 157 -274 l 324 68 l 361 -1 l 233 -274 l 157 -274 m 406 747 l 192 938 l 250 994 l 436 778 l 406 747 z "},"z":{"ha":608,"x_min":46,"x_max":560,"o":"m 46 39 l 476 607 l 560 607 l 129 39 l 46 39 m 46 0 l 46 39 l 101 63 l 553 63 l 553 0 l 46 0 m 68 583 l 68 646 l 560 646 l 560 607 l 493 583 l 68 583 z "},"ź":{"ha":608,"x_min":46,"x_max":560,"o":"m 46 39 l 476 607 l 560 607 l 129 39 l 46 39 m 46 0 l 46 39 l 101 63 l 553 63 l 553 0 l 46 0 m 68 583 l 68 646 l 560 646 l 560 607 l 493 583 l 68 583 m 232 750 l 201 781 l 389 999 l 446 940 l 232 750 z "},"ž":{"ha":608,"x_min":46,"x_max":560,"o":"m 46 39 l 476 607 l 560 607 l 129 39 l 46 39 m 46 0 l 46 39 l 101 63 l 553 63 l 553 0 l 46 0 m 68 583 l 68 646 l 560 646 l 560 607 l 493 583 l 68 583 m 513 994 l 543 964 l 353 750 l 293 750 l 103 964 l 135 994 l 346 804 l 300 806 l 513 994 z "},"ż":{"ha":608,"x_min":46,"x_max":560,"o":"m 46 39 l 476 607 l 560 607 l 129 39 l 46 39 m 46 0 l 46 39 l 101 63 l 553 63 l 553 0 l 46 0 m 68 583 l 68 646 l 560 646 l 560 607 l 493 583 l 68 583 m 324 761 q 284 778 300 761 q 268 819 268 796 q 284 859 268 843 q 324 875 300 875 q 364 859 347 875 q 381 819 381 843 q 364 778 381 796 q 324 761 347 761 z "},"ﬁ":{"ha":753,"x_min":36,"x_max":668,"o":"m 204 0 l 204 775 q 231 885 204 838 q 305 960 257 933 q 414 988 353 988 q 498 972 460 988 q 565 925 536 956 l 519 879 q 469 913 496 903 q 413 924 443 924 q 311 882 347 924 q 275 771 275 840 l 275 0 l 204 0 m 36 583 l 36 646 l 615 646 l 615 583 l 36 583 m 576 0 l 576 646 l 647 646 l 647 0 l 576 0 m 611 736 q 572 753 588 736 q 556 794 556 771 q 572 834 556 818 q 611 850 588 850 q 652 834 636 850 q 668 794 668 818 q 652 753 668 771 q 611 736 636 736 z "},"ﬂ":{"ha":753,"x_min":36,"x_max":647,"o":"m 204 0 l 204 764 q 232 878 204 828 q 310 958 260 929 q 426 988 361 988 l 425 924 q 314 878 353 924 q 275 761 275 833 l 275 0 l 204 0 m 36 583 l 36 646 l 606 646 l 606 583 l 36 583 m 578 0 l 578 990 l 647 990 l 647 0 l 578 0 z "},"ª":{"ha":490,"x_min":35,"x_max":431,"o":"m 231 549 q 131 575 175 549 q 60 647 86 601 q 35 751 35 693 q 60 856 35 810 q 131 929 86 903 q 231 956 175 956 q 340 919 294 956 q 394 821 385 883 l 394 683 q 340 585 385 622 q 231 549 296 549 m 240 601 q 339 642 301 601 q 376 753 376 683 q 338 861 376 819 q 239 903 300 903 q 134 860 175 903 q 93 753 93 817 q 135 644 93 688 q 240 601 176 601 m 374 557 l 374 661 l 385 757 l 374 851 l 374 947 l 431 947 l 431 557 l 374 557 z "},"º":{"ha":476,"x_min":35,"x_max":443,"o":"m 239 547 q 135 575 182 547 q 61 649 88 603 q 35 753 35 696 q 62 856 35 811 q 135 928 89 901 q 239 956 182 956 q 342 929 296 956 q 415 857 388 903 q 443 753 443 811 q 415 649 443 696 q 342 574 388 601 q 239 547 296 547 m 239 601 q 342 645 301 601 q 383 754 383 689 q 342 859 383 817 q 239 901 300 901 q 135 859 176 901 q 93 753 93 817 q 135 644 93 688 q 239 601 176 601 z "},"⁄":{"ha":851,"x_min":68,"x_max":779,"o":"m 365 413 l 397 388 l 133 -15 l 68 40 l 365 413 m 482 536 l 450 563 l 714 965 l 779 908 l 482 536 z "},"½":{"ha":893,"x_min":68,"x_max":811,"o":"m 365 413 l 397 388 l 133 -15 l 68 40 l 365 413 m 482 536 l 450 563 l 714 965 l 779 908 l 482 536 m 199 468 l 199 947 l 260 947 l 260 468 l 199 468 m 99 894 l 99 947 l 253 947 l 253 894 l 99 894 m 483 19 l 664 204 q 723 274 708 249 q 738 328 738 300 q 713 391 738 368 q 646 414 688 414 q 582 396 610 414 q 531 342 554 378 l 488 381 q 557 447 517 425 q 650 468 597 468 q 758 431 718 468 q 799 329 799 393 q 781 253 799 288 q 711 169 763 219 l 564 19 l 483 19 m 483 -18 l 483 19 l 535 36 l 811 36 l 811 -18 l 483 -18 z "},"¼":{"ha":901,"x_min":68,"x_max":832,"o":"m 365 413 l 397 388 l 133 -15 l 68 40 l 365 413 m 482 536 l 450 563 l 714 965 l 779 908 l 482 536 m 199 468 l 199 947 l 260 947 l 260 468 l 199 468 m 99 894 l 99 947 l 253 947 l 253 894 l 99 894 m 463 138 l 635 461 l 704 461 l 528 138 l 463 138 m 463 100 l 463 138 l 483 156 l 832 156 l 832 100 l 463 100 m 706 -18 l 706 294 l 767 294 l 767 -18 l 706 -18 z "},"¾":{"ha":890,"x_min":76,"x_max":819,"o":"m 394 415 l 426 390 l 169 -15 l 104 40 l 394 415 m 529 535 l 497 558 l 753 965 l 819 908 l 529 535 m 228 461 q 140 480 179 461 q 76 531 101 499 l 117 572 q 163 532 133 547 q 228 517 193 517 q 306 544 275 517 q 336 617 336 571 q 306 690 336 663 q 224 718 275 718 q 201 716 213 718 q 175 711 189 714 l 200 744 q 231 756 217 753 q 258 758 246 758 q 359 719 318 758 q 400 615 400 679 q 352 504 400 547 q 228 461 304 461 m 175 711 l 175 749 l 324 914 l 392 911 l 242 744 l 175 711 m 100 894 l 100 947 l 392 947 l 392 911 l 342 894 l 100 894 m 439 138 l 613 461 l 681 461 l 504 138 l 439 138 m 439 100 l 439 138 l 460 156 l 808 156 l 808 100 l 439 100 m 682 -18 l 682 294 l 743 294 l 743 -18 l 682 -18 z "},"¹":{"ha":343,"x_min":56,"x_max":218,"o":"m 157 468 l 157 947 l 218 947 l 218 468 l 157 468 m 56 894 l 56 947 l 211 947 l 211 894 l 56 894 z "},"²":{"ha":457,"x_min":61,"x_max":389,"o":"m 61 506 l 242 690 q 299 760 285 735 q 314 814 314 786 q 290 877 314 854 q 224 900 265 900 q 159 882 188 900 q 107 828 131 864 l 65 867 q 135 933 94 911 q 226 954 175 954 q 335 917 294 954 q 376 815 376 879 q 358 740 376 774 q 289 656 340 706 l 142 506 l 61 506 m 61 468 l 61 506 l 113 522 l 389 522 l 389 468 l 61 468 z "},"³":{"ha":457,"x_min":57,"x_max":381,"o":"m 210 461 q 122 480 161 461 q 57 531 83 499 l 99 572 q 144 532 115 547 q 210 517 174 517 q 288 544 257 517 q 318 617 318 571 q 288 690 318 663 q 206 718 257 718 q 182 716 194 718 q 156 711 169 714 l 181 744 q 213 756 199 753 q 239 758 226 758 q 340 719 300 758 q 381 615 381 679 q 333 504 381 547 q 210 461 285 461 m 156 711 l 156 749 l 304 914 l 374 911 l 222 744 l 156 711 m 82 894 l 82 947 l 374 947 l 374 911 l 324 894 l 82 894 z "},"⁴":{"ha":488,"x_min":60,"x_max":429,"o":"m 60 624 l 232 947 l 301 947 l 125 624 l 60 624 m 60 586 l 60 624 l 81 642 l 429 642 l 429 586 l 60 586 m 303 468 l 303 781 l 364 781 l 364 468 l 303 468 z "},"\r":{"ha":833,"x_min":0,"x_max":0,"o":""}," ":{"ha":310,"x_min":0,"x_max":0,"o":""}," ":{"ha":310,"x_min":0,"x_max":0,"o":""},".":{"ha":401,"x_min":133,"x_max":268,"o":"m 200 -14 q 153 7 172 -14 q 133 54 133 28 q 153 103 133 83 q 200 122 172 122 q 249 103 229 122 q 268 54 268 83 q 249 7 268 28 q 200 -14 229 -14 z "},",":{"ha":378,"x_min":125,"x_max":264,"o":"m 125 -133 l 197 10 l 225 15 q 212 -3 221 4 q 188 -11 203 -11 q 145 7 164 -11 q 126 53 126 25 q 147 102 126 82 q 197 122 168 122 q 244 102 224 122 q 264 53 264 82 q 260 24 264 40 q 244 -17 257 8 l 172 -158 l 125 -133 z "},":":{"ha":375,"x_min":121,"x_max":254,"o":"m 186 -14 q 140 7 158 -14 q 121 54 121 28 q 140 103 121 83 q 186 122 158 122 q 235 103 215 122 q 254 54 254 83 q 235 7 254 28 q 186 -14 215 -14 m 186 426 q 140 447 158 426 q 121 494 121 468 q 140 543 121 524 q 186 563 158 563 q 235 543 215 563 q 254 494 254 524 q 235 447 254 468 q 186 426 215 426 z "},";":{"ha":374,"x_min":121,"x_max":260,"o":"m 121 -133 l 192 10 l 219 15 q 206 -3 215 4 q 183 -11 197 -11 q 141 7 160 -11 q 122 53 122 25 q 142 101 122 81 q 192 122 163 122 q 239 102 218 122 q 260 53 260 82 q 256 24 260 40 q 239 -17 253 8 l 167 -158 l 121 -133 m 188 426 q 140 447 158 426 q 122 494 122 468 q 140 543 122 524 q 188 563 158 563 q 236 543 217 563 q 256 494 256 524 q 236 447 256 468 q 188 426 217 426 z "},"…":{"ha":985,"x_min":133,"x_max":851,"o":"m 492 -14 q 444 7 464 -14 q 425 54 425 28 q 444 103 425 83 q 492 122 464 122 q 540 103 521 122 q 560 54 560 83 q 540 7 560 28 q 492 -14 521 -14 m 783 -14 q 736 7 756 -14 q 717 54 717 28 q 736 103 717 83 q 783 122 756 122 q 832 103 813 122 q 851 54 851 83 q 832 7 851 28 q 783 -14 813 -14 m 200 -14 q 153 7 172 -14 q 133 54 133 28 q 153 103 133 83 q 200 122 172 122 q 249 103 229 122 q 268 54 268 83 q 249 7 268 28 q 200 -14 229 -14 z "},"!":{"ha":361,"x_min":111,"x_max":244,"o":"m 151 274 l 139 975 l 219 975 l 207 274 l 151 274 m 178 -14 q 130 6 149 -14 q 111 54 111 26 q 130 102 111 82 q 178 122 149 122 q 226 102 207 122 q 244 54 244 82 q 226 6 244 26 q 178 -14 207 -14 z "},"¡":{"ha":364,"x_min":113,"x_max":247,"o":"m 142 -274 l 154 372 l 210 372 l 222 -274 l 142 -274 m 181 524 q 132 544 151 524 q 113 592 113 564 q 132 640 113 621 q 181 660 151 660 q 228 640 208 660 q 247 592 247 621 q 228 544 247 564 q 181 524 208 524 z "},"?":{"ha":700,"x_min":75,"x_max":613,"o":"m 318 274 l 315 529 l 350 531 q 448 560 406 532 q 515 633 490 588 q 539 731 539 678 q 515 826 539 783 q 447 894 490 869 q 344 919 404 919 q 212 884 265 919 q 126 793 158 849 l 75 840 q 182 947 113 906 q 346 989 251 989 q 486 956 426 989 q 579 865 546 922 q 613 733 613 807 q 580 605 613 664 q 490 509 547 546 q 357 467 432 472 l 383 499 l 378 274 l 318 274 m 346 -14 q 298 6 317 -14 q 279 54 279 26 q 298 102 279 82 q 346 122 317 122 q 394 102 375 122 q 413 54 413 82 q 394 6 413 26 q 346 -14 375 -14 z "},"¿":{"ha":694,"x_min":90,"x_max":625,"o":"m 354 -287 q 217 -253 276 -287 q 124 -160 157 -219 q 90 -28 90 -101 q 122 104 90 47 q 213 195 154 161 q 346 236 271 229 l 318 203 l 325 372 l 385 372 l 388 172 l 353 172 q 217 115 269 168 q 164 -25 164 63 q 188 -122 164 -78 q 255 -192 211 -165 q 357 -218 299 -218 q 489 -182 436 -218 q 574 -92 542 -146 l 625 -139 q 518 -246 588 -204 q 354 -287 449 -287 m 357 524 q 308 544 328 524 q 289 593 289 564 q 308 640 289 621 q 357 660 328 660 q 404 640 385 660 q 424 593 424 621 q 404 544 424 564 q 357 524 385 524 z "},"·":{"ha":135,"x_min":0,"x_max":135,"o":"m 67 429 q 19 450 39 429 q 0 497 0 471 q 19 546 0 526 q 67 565 39 565 q 115 546 96 565 q 135 497 135 526 q 115 450 135 471 q 67 429 96 429 z "},"•":{"ha":424,"x_min":100,"x_max":324,"o":"m 213 383 q 154 399 179 383 q 115 440 129 414 q 100 497 100 467 q 115 554 100 529 q 154 595 129 579 q 213 611 179 611 q 271 595 246 611 q 310 554 296 579 q 324 497 324 529 q 310 440 324 467 q 271 399 296 414 q 213 383 246 383 z "},"*":{"ha":676,"x_min":88,"x_max":588,"o":"m 333 518 l 314 739 l 119 625 l 88 688 l 297 774 l 125 919 l 175 968 l 325 800 l 414 1004 l 478 974 l 360 783 l 588 765 l 578 696 l 353 746 l 404 528 l 333 518 z "},"#":{"ha":885,"x_min":82,"x_max":801,"o":"m 483 0 l 618 947 l 682 947 l 546 0 l 483 0 m 82 310 l 82 367 l 761 367 l 761 310 l 82 310 m 190 0 l 326 947 l 389 947 l 253 0 l 190 0 m 122 597 l 122 654 l 801 654 l 801 597 l 122 597 z "},"/":{"ha":513,"x_min":35,"x_max":478,"o":"m 35 -56 l 413 997 l 478 997 l 100 -56 l 35 -56 z "},"\\":{"ha":513,"x_min":35,"x_max":478,"o":"m 413 -56 l 35 997 l 100 997 l 478 -56 l 413 -56 z "},"-":{"ha":639,"x_min":104,"x_max":533,"o":"m 104 318 l 104 385 l 533 385 l 533 318 l 104 318 z "},"–":{"ha":750,"x_min":104,"x_max":646,"o":"m 104 321 l 104 381 l 646 381 l 646 321 l 104 321 z "},"—":{"ha":1158,"x_min":104,"x_max":1051,"o":"m 104 322 l 104 381 l 1051 381 l 1051 322 l 104 322 z "},"_":{"ha":767,"x_min":83,"x_max":683,"o":"m 83 -143 l 83 -82 l 683 -82 l 683 -143 l 83 -143 z "},"(":{"ha":431,"x_min":81,"x_max":374,"o":"m 331 -154 q 193 1 249 -90 q 109 202 138 93 q 81 426 81 311 q 109 651 81 542 q 193 851 138 760 q 331 1007 249 943 l 374 967 q 202 735 260 875 q 144 426 144 594 q 202 119 144 260 q 374 -114 260 -21 l 331 -154 z "},")":{"ha":429,"x_min":57,"x_max":350,"o":"m 99 -154 l 57 -114 q 228 119 169 -21 q 286 426 286 260 q 228 735 286 594 q 57 967 169 875 l 99 1007 q 236 851 181 943 q 321 651 292 760 q 350 426 350 542 q 321 202 350 311 q 236 1 292 93 q 99 -154 181 -90 z "},"{":{"ha":439,"x_min":56,"x_max":379,"o":"m 325 -133 q 178 -72 229 -133 q 142 118 126 -10 l 160 274 q 150 367 168 338 q 93 396 132 396 l 56 396 l 56 450 l 93 450 q 150 480 132 450 q 160 572 168 510 l 142 724 q 178 914 126 853 q 325 975 229 975 l 379 975 l 379 919 l 336 919 q 228 876 265 919 q 204 729 192 833 l 221 578 q 218 497 226 532 q 185 440 210 463 q 118 406 161 418 l 118 436 q 185 406 161 428 q 218 349 210 383 q 221 268 226 314 l 204 113 q 229 -33 193 10 q 336 -76 265 -76 l 379 -76 l 379 -133 l 325 -133 z "},"}":{"ha":439,"x_min":60,"x_max":383,"o":"m 115 -133 l 60 -133 l 60 -76 l 104 -76 q 211 -33 175 -76 q 236 113 247 10 l 219 268 q 223 349 215 314 q 255 406 231 383 q 322 436 279 428 l 322 406 q 255 440 279 418 q 223 497 231 463 q 219 578 215 532 l 236 729 q 212 876 249 833 q 104 919 175 919 l 60 919 l 60 975 l 115 975 q 262 914 210 975 q 297 724 314 853 l 279 572 q 290 480 271 510 q 346 450 308 450 l 383 450 l 383 396 l 346 396 q 290 367 308 396 q 279 274 271 338 l 297 118 q 262 -72 314 -10 q 115 -133 210 -133 z "},"[":{"ha":460,"x_min":125,"x_max":400,"o":"m 125 -133 l 125 975 l 186 975 l 186 -133 l 125 -133 m 156 -133 l 156 -76 l 400 -76 l 400 -133 l 156 -133 m 156 919 l 156 975 l 400 975 l 400 919 l 156 919 z "},"]":{"ha":460,"x_min":60,"x_max":336,"o":"m 274 -133 l 274 975 l 336 975 l 336 -133 l 274 -133 m 60 -133 l 60 -76 l 304 -76 l 304 -133 l 60 -133 m 60 919 l 60 975 l 304 975 l 304 919 l 60 919 z "},"‚":{"ha":378,"x_min":125,"x_max":264,"o":"m 125 -133 l 197 10 l 225 15 q 212 -3 221 4 q 188 -11 203 -11 q 145 7 164 -11 q 126 53 126 25 q 147 102 126 82 q 197 122 168 122 q 244 102 224 122 q 264 53 264 82 q 260 24 264 40 q 244 -17 257 8 l 172 -158 l 125 -133 z "},"„":{"ha":578,"x_min":125,"x_max":464,"o":"m 325 -133 l 397 10 l 425 15 q 412 -3 421 4 q 388 -11 403 -11 q 345 8 364 -11 q 326 53 326 26 q 347 102 326 82 q 397 122 368 122 q 444 102 424 122 q 464 53 464 82 q 460 26 464 42 q 444 -17 457 10 l 372 -158 l 325 -133 m 125 -133 l 197 10 l 225 15 q 212 -3 221 4 q 188 -11 203 -11 q 145 8 164 -11 q 126 53 126 26 q 147 102 126 82 q 197 122 168 122 q 244 102 224 122 q 264 53 264 82 q 260 26 264 42 q 244 -17 257 10 l 172 -158 l 125 -133 z "},"“":{"ha":538,"x_min":94,"x_max":433,"o":"m 233 964 l 161 821 l 135 815 q 148 834 139 826 q 171 842 157 842 q 213 824 194 842 q 232 778 232 806 q 211 729 232 750 q 163 708 190 708 q 115 728 135 708 q 94 778 94 749 q 99 806 94 790 q 114 847 103 822 l 188 989 l 233 964 m 433 964 l 361 821 l 335 815 q 348 834 339 826 q 371 842 357 842 q 413 824 394 842 q 432 778 432 806 q 411 729 432 750 q 363 708 390 708 q 315 728 335 708 q 294 778 294 749 q 299 806 294 790 q 314 847 303 822 l 388 989 l 433 964 z "},"”":{"ha":536,"x_min":104,"x_max":443,"o":"m 304 706 l 376 849 l 404 854 q 391 835 400 843 q 367 828 382 828 q 324 847 343 828 q 306 892 306 865 q 326 941 306 921 q 376 961 347 961 q 423 941 403 961 q 443 892 443 921 q 440 865 443 881 q 424 822 436 849 l 351 681 l 304 706 m 104 706 l 176 849 l 204 854 q 191 835 200 843 q 167 828 182 828 q 124 847 143 828 q 106 892 106 865 q 126 941 106 921 q 176 961 147 961 q 223 941 203 961 q 243 892 243 921 q 240 865 243 881 q 224 822 236 849 l 151 681 l 104 706 z "},"‘":{"ha":338,"x_min":94,"x_max":233,"o":"m 233 964 l 161 821 l 135 815 q 148 834 139 826 q 171 842 157 842 q 213 824 194 842 q 232 778 232 806 q 211 729 232 750 q 163 708 190 708 q 115 728 135 708 q 94 778 94 749 q 99 806 94 790 q 114 847 103 822 l 188 989 l 233 964 z "},"’":{"ha":336,"x_min":104,"x_max":243,"o":"m 104 706 l 176 849 l 204 854 q 191 835 200 843 q 167 828 182 828 q 124 847 143 828 q 106 892 106 865 q 126 941 106 921 q 176 961 147 961 q 223 941 203 961 q 243 892 243 921 q 240 865 243 881 q 224 822 236 849 l 151 681 l 104 706 z "},"«":{"ha":588,"x_min":67,"x_max":522,"o":"m 232 115 l 67 328 l 232 542 l 307 542 l 139 328 l 307 115 l 232 115 m 447 115 l 282 328 l 447 542 l 522 542 l 353 328 l 522 115 l 447 115 z "},"»":{"ha":588,"x_min":65,"x_max":521,"o":"m 281 115 l 449 328 l 281 542 l 356 542 l 521 328 l 356 115 l 281 115 m 65 115 l 235 328 l 65 542 l 140 542 l 306 328 l 140 115 l 65 115 z "},"‹":{"ha":372,"x_min":67,"x_max":307,"o":"m 232 115 l 67 328 l 232 542 l 307 542 l 139 328 l 307 115 l 232 115 z "},"›":{"ha":372,"x_min":65,"x_max":306,"o":"m 65 115 l 235 328 l 65 542 l 140 542 l 306 328 l 140 115 l 65 115 z "},"\"":{"ha":483,"x_min":117,"x_max":368,"o":"m 304 697 l 285 975 l 368 975 l 349 697 l 304 697 m 135 697 l 117 975 l 199 975 l 179 697 l 135 697 z "},"'":{"ha":314,"x_min":117,"x_max":199,"o":"m 135 697 l 117 975 l 199 975 l 179 697 l 135 697 z "},"✓":{"ha":1022,"x_min":40,"x_max":982,"o":"m 354 129 l 40 436 l 85 482 l 393 176 l 351 176 l 936 799 l 982 753 l 390 129 l 354 129 z "},"@":{"ha":1079,"x_min":104,"x_max":976,"o":"m 543 -115 q 372 -82 451 -115 q 232 12 292 -49 q 138 153 172 72 q 104 329 104 235 q 139 505 104 424 q 235 647 174 586 q 377 742 296 708 q 551 776 458 776 q 772 719 676 776 q 922 563 867 663 q 976 333 976 463 q 965 228 976 274 q 926 143 953 183 l 867 153 q 894 205 885 181 q 909 260 904 229 q 914 338 914 290 q 868 538 914 453 q 741 670 822 624 q 553 717 660 717 q 358 668 444 717 q 220 531 271 619 q 169 328 169 443 q 219 127 169 214 q 353 -8 268 40 q 540 -57 438 -57 q 687 -35 624 -57 q 797 32 750 -12 l 839 -11 q 705 -89 779 -62 q 543 -115 631 -115 m 521 129 q 423 156 467 129 q 353 228 379 183 q 328 329 328 274 q 353 431 328 386 q 423 503 379 476 q 521 531 467 531 q 635 494 590 531 q 681 400 681 457 l 681 258 q 636 167 681 204 q 521 129 592 129 m 522 183 q 623 224 585 183 q 661 331 661 265 q 624 438 661 397 q 524 478 586 478 q 426 437 467 478 q 386 331 386 396 q 426 224 386 265 q 522 183 465 183 m 676 143 l 676 196 l 926 196 l 926 143 l 676 143 m 660 143 l 660 240 l 672 336 l 660 426 l 660 522 l 717 522 l 717 143 l 660 143 z "},"&":{"ha":886,"x_min":101,"x_max":864,"o":"m 772 0 l 311 475 q 224 592 251 535 q 196 713 196 649 q 228 842 196 786 q 319 929 261 897 q 453 961 378 961 q 549 946 506 961 q 628 903 593 931 q 686 838 663 876 l 635 789 q 557 866 601 839 q 454 893 513 893 q 319 843 371 893 q 268 710 268 793 q 292 611 268 656 q 371 510 315 567 l 864 0 l 772 0 m 400 -14 q 245 22 313 -14 q 140 121 178 58 q 101 265 101 183 q 149 427 101 353 q 278 540 196 501 l 315 494 q 212 402 251 464 q 172 265 172 340 q 202 156 172 203 q 284 81 232 108 q 403 54 336 54 q 540 89 479 54 q 633 182 601 124 l 681 131 q 610 55 654 88 q 513 4 567 22 q 400 -14 460 -14 z "},"¶":{"ha":946,"x_min":99,"x_max":860,"o":"m 513 392 l 389 392 q 240 426 306 392 q 137 522 175 460 q 99 669 99 585 q 137 816 99 754 q 240 913 175 878 q 389 947 306 947 l 860 947 l 860 882 l 396 882 q 281 856 332 882 q 201 783 231 831 q 172 669 172 735 q 201 556 172 604 q 281 483 231 508 q 396 457 332 457 l 513 457 l 513 392 m 542 -139 l 476 -139 l 476 947 l 542 947 l 542 -139 m 732 -139 l 667 -139 l 667 947 l 732 947 l 732 -139 z "},"§":{"ha":725,"x_min":106,"x_max":619,"o":"m 374 194 l 375 249 q 503 285 456 249 q 551 376 551 321 q 522 464 551 433 q 446 513 492 494 q 347 546 400 531 q 248 584 294 561 q 172 648 201 607 q 143 760 143 689 q 172 864 143 818 q 252 935 200 910 q 378 961 304 961 q 520 930 457 961 q 619 844 583 899 l 571 796 q 485 868 539 843 q 372 893 432 893 q 253 856 294 893 q 213 764 213 819 q 242 680 213 710 q 317 632 271 650 q 416 599 364 614 q 515 560 468 583 q 590 495 561 536 q 619 385 619 454 q 588 284 619 326 q 502 218 557 242 q 374 194 447 194 m 347 -168 q 206 -137 269 -168 q 106 -50 142 -106 l 154 -1 q 240 -75 186 -50 q 353 -100 293 -100 q 472 -62 431 -100 q 513 29 513 -25 q 483 114 513 83 q 408 163 454 144 q 309 195 361 181 q 210 233 257 210 q 135 298 164 257 q 106 410 106 339 q 137 510 106 468 q 224 575 168 551 q 351 599 279 599 l 350 544 q 222 509 269 544 q 174 417 174 474 q 203 330 174 361 q 279 281 233 299 q 378 247 325 263 q 477 209 431 232 q 553 145 524 186 q 582 35 582 104 q 553 -70 582 -25 q 473 -142 525 -115 q 347 -168 421 -168 z "},"©":{"ha":1181,"x_min":108,"x_max":1074,"o":"m 592 -14 q 397 24 486 -14 q 244 128 308 61 q 144 283 179 194 q 108 475 108 372 q 143 667 108 579 q 242 822 178 756 q 395 924 307 888 q 590 961 483 961 q 785 924 696 961 q 938 821 874 886 q 1038 667 1003 756 q 1074 474 1074 578 q 1038 282 1074 371 q 938 126 1003 193 q 786 23 874 60 q 592 -14 699 -14 m 597 204 q 460 240 522 204 q 363 338 399 276 q 328 476 328 400 q 363 613 328 551 q 460 709 399 674 q 597 744 522 744 q 703 724 654 744 q 792 663 753 703 l 749 617 q 683 664 721 647 q 597 681 644 681 q 497 654 542 681 q 425 582 451 628 q 399 476 399 536 q 425 368 399 415 q 497 294 451 321 q 597 268 542 268 q 683 284 643 268 q 751 332 722 300 l 793 286 q 706 226 757 247 q 597 204 656 204 m 590 33 q 815 92 718 33 q 967 250 913 150 q 1022 475 1022 350 q 967 698 1022 599 q 815 856 913 797 q 590 914 718 914 q 365 856 463 914 q 214 699 268 799 q 160 475 160 600 q 215 250 160 350 q 367 92 269 150 q 590 33 464 33 z "},"®":{"ha":817,"x_min":117,"x_max":701,"o":"m 410 371 q 257 410 324 371 q 153 517 190 450 q 117 668 117 585 q 153 817 117 750 q 256 922 190 883 q 407 961 321 961 q 560 922 494 961 q 664 815 626 882 q 701 667 701 749 q 664 517 701 583 q 561 410 626 450 q 410 371 496 371 m 311 515 l 311 828 l 350 828 l 350 515 l 311 515 m 501 515 l 381 664 l 425 664 l 547 515 l 501 515 m 407 403 q 543 438 485 403 q 634 533 601 474 q 667 668 667 593 q 634 801 667 742 q 543 894 601 860 q 407 929 485 929 q 273 894 331 929 q 183 801 215 860 q 150 668 150 742 q 183 533 150 593 q 274 438 215 474 q 407 403 332 403 m 325 658 l 325 694 l 422 694 q 464 708 450 694 q 478 742 478 721 q 465 777 478 763 q 422 792 451 792 l 325 792 l 325 828 l 421 828 q 492 804 467 828 q 518 743 518 781 q 492 682 518 706 q 421 658 467 658 l 325 658 z "},"™":{"ha":939,"x_min":33,"x_max":906,"o":"m 207 443 l 207 904 l 243 904 l 243 443 l 207 443 m 33 885 l 33 917 l 417 917 l 417 885 l 33 885 m 454 443 l 454 917 l 481 917 l 690 575 l 669 575 l 879 917 l 906 917 l 906 443 l 868 443 l 868 854 l 878 851 l 694 551 l 667 551 l 483 851 l 492 854 l 492 443 l 454 443 z "},"°":{"ha":553,"x_min":69,"x_max":483,"o":"m 276 544 q 171 572 218 544 q 97 646 124 599 q 69 751 69 693 q 97 859 69 813 q 171 933 124 906 q 276 961 218 961 q 383 933 336 961 q 456 859 429 906 q 483 751 483 813 q 456 646 483 693 q 383 572 429 599 q 276 544 336 544 m 278 601 q 381 645 340 601 q 421 754 421 689 q 381 862 421 819 q 278 904 340 904 q 173 862 214 904 q 132 754 132 819 q 173 645 132 689 q 278 601 214 601 z "},"|":{"ha":376,"x_min":156,"x_max":221,"o":"m 156 -181 l 156 1044 l 221 1044 l 221 -181 l 156 -181 z "},"¦":{"ha":376,"x_min":156,"x_max":221,"o":"m 156 539 l 156 1044 l 221 1044 l 221 539 l 156 539 m 156 -181 l 156 325 l 221 325 l 221 -181 l 156 -181 z "},"℠":{"ha":883,"x_min":33,"x_max":850,"o":"m 199 436 q 103 457 144 436 q 33 517 63 478 l 60 542 q 121 488 86 504 q 201 471 156 471 q 281 494 250 471 q 311 557 311 517 q 298 607 311 588 q 263 640 285 626 q 214 662 240 653 q 162 681 188 671 q 114 707 136 692 q 79 745 92 722 q 67 806 67 768 q 84 868 67 842 q 132 909 101 894 q 203 924 163 924 q 285 906 250 924 q 346 857 321 889 l 321 832 q 269 875 299 860 q 203 890 240 890 q 131 868 158 890 q 103 807 103 846 q 117 760 103 779 q 152 730 131 742 q 199 709 174 718 q 251 689 225 700 q 299 663 278 678 q 335 623 321 647 q 349 561 349 599 q 308 469 349 501 q 199 436 268 436 m 400 443 l 400 917 l 426 917 l 636 575 l 615 575 l 824 917 l 850 917 l 850 443 l 814 443 l 814 854 l 822 851 l 639 551 l 611 551 l 428 851 l 436 854 l 436 443 l 400 443 z "},"¢":{"ha":706,"x_min":72,"x_max":650,"o":"m 407 138 q 237 182 313 138 q 117 303 161 226 q 72 476 72 381 q 117 647 72 571 q 237 767 161 722 q 407 811 313 811 q 540 784 478 811 q 646 708 603 757 l 600 661 q 514 722 564 700 q 407 743 464 743 q 272 708 332 743 q 178 613 213 674 q 144 476 144 553 q 178 336 144 397 q 272 240 213 275 q 407 204 332 204 q 516 226 465 204 q 603 288 567 247 l 650 240 q 541 164 604 190 q 407 138 478 138 m 363 14 l 363 933 l 417 933 l 417 14 l 363 14 z "},"¤":{"ha":685,"x_min":43,"x_max":642,"o":"m 343 203 q 205 240 267 203 q 108 338 143 276 q 72 476 72 400 q 108 613 72 551 q 205 709 143 674 q 343 744 267 744 q 479 710 418 744 q 576 613 540 675 q 613 476 613 551 q 576 337 613 399 q 479 239 540 275 q 343 203 418 203 m 83 175 l 43 214 l 151 322 l 190 283 l 83 175 m 343 267 q 445 294 400 267 q 517 369 490 322 q 543 476 543 417 q 517 581 543 535 q 445 655 490 628 q 343 682 400 682 q 240 655 285 682 q 169 581 194 628 q 143 476 143 535 q 169 369 143 415 q 240 294 194 322 q 343 267 286 267 m 604 175 l 494 283 l 533 322 l 642 214 l 604 175 m 151 628 l 43 735 l 83 774 l 190 665 l 151 628 m 533 628 l 494 665 l 604 774 l 642 735 l 533 628 z "},"$":{"ha":826,"x_min":103,"x_max":711,"o":"m 421 -14 q 238 28 315 -14 q 103 146 160 71 l 153 196 q 272 88 206 122 q 424 53 338 53 q 578 99 518 53 q 638 228 638 144 q 612 329 638 290 q 544 393 586 368 q 451 438 501 418 q 349 477 400 457 q 256 527 299 497 q 188 604 213 557 q 163 724 163 651 q 197 849 163 796 q 290 932 231 903 q 429 961 350 961 q 586 926 517 961 q 704 826 656 890 l 654 778 q 555 864 610 833 q 428 894 500 894 q 287 851 340 894 q 233 728 233 807 q 259 633 233 669 q 328 573 285 597 q 422 531 371 549 q 523 492 472 513 q 617 440 574 471 q 685 360 660 408 q 711 236 711 311 q 633 51 711 115 q 421 -14 554 -14 m 407 -139 l 407 1086 l 463 1086 l 463 -139 l 407 -139 z "},"€":{"ha":1021,"x_min":43,"x_max":918,"o":"m 582 -14 q 400 24 482 -14 q 258 128 318 61 q 167 283 199 194 q 135 475 135 372 q 167 666 135 578 q 258 820 199 754 q 399 924 317 886 q 579 961 481 961 q 765 922 685 961 q 911 815 846 883 l 860 764 q 738 858 807 824 q 576 892 668 892 q 384 838 467 892 q 256 689 301 783 q 211 475 211 594 q 257 260 211 356 q 386 110 303 165 q 579 56 469 56 q 744 90 674 56 q 867 185 814 125 l 918 135 q 772 26 854 65 q 582 -14 690 -14 m 43 565 l 43 626 l 692 626 l 672 565 l 43 565 m 43 324 l 43 385 l 635 385 l 615 324 l 43 324 z "},"£":{"ha":853,"x_min":103,"x_max":761,"o":"m 247 11 l 247 681 q 283 833 247 769 q 382 928 319 896 q 519 961 444 961 q 671 926 613 961 q 761 844 729 890 l 711 794 q 633 865 678 838 q 517 893 588 893 q 418 869 463 893 q 347 800 374 846 q 319 688 319 754 l 319 11 l 247 11 m 103 0 l 103 67 l 742 67 l 742 0 l 103 0 m 103 424 l 103 485 l 624 485 l 624 424 l 103 424 z "},"¥":{"ha":903,"x_min":106,"x_max":796,"o":"m 435 394 l 106 947 l 192 947 l 468 465 l 436 465 l 714 947 l 796 947 l 465 394 l 435 394 m 415 0 l 415 450 l 488 450 l 488 0 l 415 0 m 333 626 l 360 565 l 139 565 l 139 626 l 333 626 m 139 324 l 139 385 l 764 385 l 764 324 l 139 324 m 538 565 l 572 626 l 764 626 l 764 565 l 538 565 z "},"∕":{"ha":513,"x_min":35,"x_max":478,"o":"m 35 -56 l 413 997 l 478 997 l 100 -56 l 35 -56 z "},"+":{"ha":738,"x_min":97,"x_max":642,"o":"m 97 432 l 97 493 l 642 493 l 642 432 l 97 432 m 338 749 l 401 749 l 401 176 l 338 176 l 338 749 z "},"−":{"ha":738,"x_min":97,"x_max":642,"o":"m 97 432 l 97 493 l 642 493 l 642 432 l 97 432 z "},"×":{"ha":738,"x_min":108,"x_max":631,"o":"m 154 201 l 108 247 l 585 724 l 631 678 l 154 201 m 574 211 l 118 668 l 164 714 l 619 257 l 574 211 z "},"÷":{"ha":738,"x_min":97,"x_max":642,"o":"m 97 432 l 97 493 l 642 493 l 642 432 l 97 432 m 368 628 q 329 644 344 628 q 314 685 314 661 q 329 726 314 710 q 368 742 344 742 q 409 726 393 742 q 425 685 425 710 q 409 644 425 661 q 368 628 393 628 m 368 183 q 329 201 344 183 q 314 242 314 218 q 329 281 314 265 q 368 297 344 297 q 409 281 393 297 q 425 242 425 265 q 409 201 425 218 q 368 183 393 183 z "},"=":{"ha":738,"x_min":97,"x_max":642,"o":"m 97 592 l 97 653 l 642 653 l 642 592 l 97 592 m 97 272 l 97 333 l 642 333 l 642 272 l 97 272 z "},">":{"ha":738,"x_min":97,"x_max":642,"o":"m 97 671 l 97 740 l 642 490 l 642 442 l 97 192 l 97 260 l 590 481 l 590 450 l 97 671 z "},"<":{"ha":738,"x_min":97,"x_max":642,"o":"m 642 192 l 97 442 l 97 490 l 642 740 l 642 671 l 149 450 l 149 481 l 642 260 l 642 192 z "},"±":{"ha":738,"x_min":97,"x_max":642,"o":"m 97 508 l 97 569 l 642 569 l 642 508 l 97 508 m 338 753 l 401 753 l 401 325 l 338 325 l 338 753 m 97 172 l 97 235 l 642 235 l 642 172 l 97 172 z "},"~":{"ha":738,"x_min":89,"x_max":650,"o":"m 496 401 q 433 411 461 401 q 376 433 404 421 q 319 453 349 444 q 253 463 289 463 q 180 449 208 463 q 131 408 151 435 l 89 447 q 155 506 117 485 q 251 528 193 528 q 322 519 290 528 q 381 497 353 510 q 435 476 408 485 q 494 467 463 467 q 560 481 532 467 q 610 521 589 496 l 650 482 q 585 424 624 446 q 496 401 547 401 z "},"¬":{"ha":738,"x_min":97,"x_max":642,"o":"m 97 501 l 97 563 l 642 563 l 642 501 l 97 501 m 576 549 l 642 549 l 642 253 l 576 253 l 576 549 z "},"^":{"ha":633,"x_min":94,"x_max":540,"o":"m 474 635 l 306 932 l 328 932 l 160 635 l 94 635 l 290 975 l 342 975 l 540 635 l 474 635 z "},"µ":{"ha":814,"x_min":156,"x_max":690,"o":"m 156 -253 l 156 646 l 226 646 l 226 -253 l 156 -253 m 429 -14 q 251 57 317 -14 q 186 242 186 128 l 226 263 q 278 110 226 167 q 417 53 331 53 q 561 108 503 53 q 619 264 619 163 l 619 646 l 690 646 l 690 258 q 656 116 690 178 q 563 20 622 54 q 429 -14 504 -14 z "},"%":{"ha":922,"x_min":96,"x_max":828,"o":"m 119 0 l 728 947 l 803 947 l 194 0 l 119 0 m 633 -14 q 538 12 582 -14 q 468 81 494 38 q 442 178 442 125 q 467 275 442 232 q 538 344 493 318 q 633 369 582 369 q 731 344 688 369 q 801 275 775 318 q 828 178 828 232 q 801 81 828 125 q 731 12 775 38 q 633 -14 688 -14 m 633 46 q 726 83 689 46 q 764 179 764 119 q 726 273 764 236 q 633 310 688 310 q 542 273 579 310 q 506 179 506 236 q 542 83 506 119 q 633 46 579 46 m 288 578 q 192 603 235 578 q 122 672 149 628 q 96 769 96 717 q 122 867 96 824 q 191 935 147 910 q 288 960 235 960 q 384 935 340 960 q 454 867 428 910 q 481 769 481 824 q 455 672 481 717 q 385 603 429 628 q 288 578 342 578 m 286 638 q 380 674 343 638 q 417 771 417 711 q 378 864 417 828 q 286 900 340 900 q 197 864 233 900 q 160 771 160 828 q 197 674 160 711 q 286 638 233 638 z "},"↑":{"ha":914,"x_min":129,"x_max":785,"o":"m 424 796 l 490 796 l 490 93 l 424 93 l 424 796 m 785 444 l 457 772 l 129 444 l 129 539 l 457 867 l 785 539 l 785 444 z "},"↗":{"ha":914,"x_min":129,"x_max":785,"o":"m 710 771 l 758 722 l 178 142 l 129 190 l 710 771 m 718 267 l 718 731 l 254 731 l 321 797 l 785 797 l 785 333 l 718 267 z "},"→":{"ha":914,"x_min":81,"x_max":854,"o":"m 783 503 l 783 436 l 81 436 l 81 503 l 783 503 m 432 142 l 760 469 l 432 797 l 526 797 l 854 469 l 526 142 l 432 142 z "},"↘":{"ha":914,"x_min":129,"x_max":785,"o":"m 758 217 l 710 168 l 129 750 l 178 797 l 758 217 m 254 210 l 718 210 l 718 672 l 785 606 l 785 142 l 321 142 l 254 210 z "},"↓":{"ha":914,"x_min":129,"x_max":785,"o":"m 490 143 l 424 143 l 424 846 l 490 846 l 490 143 m 129 494 l 457 167 l 785 494 l 785 400 l 457 72 l 129 400 l 129 494 z "},"↙":{"ha":914,"x_min":129,"x_max":785,"o":"m 204 168 l 156 217 l 738 797 l 785 750 l 204 168 m 197 672 l 197 210 l 660 210 l 593 142 l 129 142 l 129 606 l 197 672 z "},"←":{"ha":914,"x_min":60,"x_max":833,"o":"m 131 436 l 131 503 l 833 503 l 833 436 l 131 436 m 482 797 l 154 469 l 482 142 l 388 142 l 60 469 l 388 797 l 482 797 z "},"↖":{"ha":914,"x_min":129,"x_max":785,"o":"m 156 722 l 204 771 l 785 190 l 738 142 l 156 722 m 660 731 l 197 731 l 197 267 l 129 333 l 129 797 l 593 797 l 660 731 z "},"̈":{"ha":0,"x_min":83,"x_max":446,"o":"m 139 761 q 99 778 115 761 q 83 819 83 796 q 99 859 83 843 q 139 875 115 875 q 179 859 163 875 q 196 819 196 843 q 179 778 196 796 q 139 761 163 761 m 389 761 q 349 778 365 761 q 333 819 333 796 q 349 859 333 843 q 389 875 365 875 q 429 859 413 875 q 446 819 446 843 q 429 778 446 796 q 389 761 413 761 z "},"̇":{"ha":0,"x_min":125,"x_max":238,"o":"m 181 761 q 141 778 157 761 q 125 819 125 796 q 141 859 125 843 q 181 875 157 875 q 221 859 204 875 q 238 819 238 843 q 221 778 238 796 q 181 761 204 761 z "},"̀":{"ha":0,"x_min":56,"x_max":300,"o":"m 269 747 l 56 938 l 114 994 l 300 778 l 269 747 z "},"́":{"ha":0,"x_min":56,"x_max":300,"o":"m 86 750 l 56 781 l 243 999 l 300 940 l 86 750 z "},"̋":{"ha":0,"x_min":56,"x_max":396,"o":"m 97 724 l 56 739 l 133 1015 l 210 986 l 97 724 m 282 724 l 242 739 l 319 1015 l 396 986 l 282 724 z "},"̂":{"ha":0,"x_min":56,"x_max":496,"o":"m 86 750 l 56 781 l 246 994 l 306 994 l 496 781 l 465 750 l 253 939 l 299 939 l 86 750 z "},"̌":{"ha":0,"x_min":56,"x_max":496,"o":"m 465 994 l 496 964 l 306 750 l 246 750 l 56 964 l 86 994 l 299 804 l 253 806 l 465 994 z "},"̆":{"ha":0,"x_min":56,"x_max":496,"o":"m 496 946 q 467 833 496 883 q 390 754 439 783 q 278 725 342 725 q 163 754 214 725 q 84 833 113 783 q 56 946 56 883 l 121 946 q 164 831 121 876 q 281 785 207 785 q 357 806 322 785 q 412 863 392 826 q 432 946 432 900 l 496 946 z "},"̊":{"ha":0,"x_min":56,"x_max":354,"o":"m 207 725 q 128 745 163 725 q 75 799 94 765 q 56 874 56 832 q 75 951 56 917 q 128 1004 94 985 q 207 1024 163 1024 q 283 1004 250 1024 q 335 951 315 985 q 354 875 354 917 q 335 798 354 832 q 283 744 315 764 q 207 725 250 725 m 208 781 q 271 808 244 781 q 297 875 297 835 q 271 942 297 915 q 208 968 244 968 q 140 941 165 968 q 114 875 114 914 q 140 808 114 835 q 208 781 165 781 z "},"̃":{"ha":0,"x_min":56,"x_max":521,"o":"m 390 760 q 317 775 347 760 q 258 806 286 790 q 193 821 229 821 q 135 807 156 821 q 96 768 114 793 l 56 804 q 112 860 81 839 q 192 882 143 882 q 269 867 238 882 q 329 836 301 851 q 389 821 357 821 q 442 835 422 821 q 481 874 463 849 l 521 836 q 465 781 496 803 q 390 760 433 760 z "},"̄":{"ha":0,"x_min":56,"x_max":510,"o":"m 56 847 l 510 847 l 510 789 l 56 789 l 56 847 z "},"̒":{"ha":0,"x_min":56,"x_max":194,"o":"m 194 994 l 124 851 l 96 846 q 109 865 100 857 q 132 872 118 872 q 174 854 156 872 q 193 808 193 836 q 173 760 193 781 q 124 739 153 739 q 76 759 96 739 q 56 808 56 779 q 60 837 56 821 q 76 878 64 853 l 149 1019 l 194 994 z "},"̦":{"ha":0,"x_min":58,"x_max":197,"o":"m 104 -392 l 58 -367 l 129 -224 l 157 -218 q 144 -237 153 -229 q 121 -244 135 -244 q 78 -226 97 -244 q 60 -181 60 -208 q 80 -131 60 -151 q 129 -111 100 -111 q 176 -131 156 -111 q 197 -181 197 -151 q 194 -209 197 -193 q 176 -250 190 -225 l 104 -392 z "},"̧":{"ha":0,"x_min":26,"x_max":351,"o":"m 183 -287 q 100 -274 140 -287 q 26 -233 60 -260 l 69 -190 q 117 -221 89 -210 q 181 -232 146 -232 q 257 -215 231 -232 q 283 -168 283 -199 q 255 -122 283 -139 q 172 -104 226 -104 l 133 -104 l 171 14 l 235 14 l 204 -83 l 176 -56 q 305 -85 258 -54 q 351 -171 351 -117 q 307 -256 351 -225 q 183 -287 263 -287 z "},"̨":{"ha":0,"x_min":51,"x_max":272,"o":"m 176 -287 q 88 -258 125 -287 q 51 -171 51 -229 q 85 -71 51 -124 q 171 22 119 -18 l 214 0 q 137 -81 165 -42 q 108 -165 108 -121 q 128 -221 108 -203 q 183 -239 149 -239 q 218 -233 203 -239 q 250 -217 233 -226 l 272 -256 q 229 -279 253 -271 q 176 -287 206 -287 z "},"¨":{"ha":529,"x_min":83,"x_max":446,"o":"m 139 761 q 99 778 115 761 q 83 819 83 796 q 99 859 83 843 q 139 875 115 875 q 179 859 163 875 q 196 819 196 843 q 179 778 196 796 q 139 761 163 761 m 389 761 q 349 778 365 761 q 333 819 333 796 q 349 859 333 843 q 389 875 365 875 q 429 859 413 875 q 446 819 446 843 q 429 778 446 796 q 389 761 413 761 z "},"˙":{"ha":363,"x_min":125,"x_max":238,"o":"m 181 761 q 141 778 157 761 q 125 819 125 796 q 141 859 125 843 q 181 875 157 875 q 221 859 204 875 q 238 819 238 843 q 221 778 238 796 q 181 761 204 761 z "},"`":{"ha":356,"x_min":56,"x_max":300,"o":"m 269 747 l 56 938 l 114 994 l 300 778 l 269 747 z "},"´":{"ha":356,"x_min":56,"x_max":300,"o":"m 86 750 l 56 781 l 243 999 l 300 940 l 86 750 z "},"˝":{"ha":451,"x_min":56,"x_max":396,"o":"m 97 724 l 56 739 l 133 1015 l 210 986 l 97 724 m 282 724 l 242 739 l 319 1015 l 396 986 l 282 724 z "},"ˆ":{"ha":551,"x_min":56,"x_max":496,"o":"m 86 750 l 56 781 l 246 994 l 306 994 l 496 781 l 465 750 l 253 939 l 299 939 l 86 750 z "},"ˇ":{"ha":551,"x_min":56,"x_max":496,"o":"m 465 994 l 496 964 l 306 750 l 246 750 l 56 964 l 86 994 l 299 804 l 253 806 l 465 994 z "},"˘":{"ha":551,"x_min":56,"x_max":496,"o":"m 496 946 q 467 833 496 883 q 390 754 439 783 q 278 725 342 725 q 163 754 214 725 q 84 833 113 783 q 56 946 56 883 l 121 946 q 164 831 121 876 q 281 785 207 785 q 357 806 322 785 q 412 863 392 826 q 432 946 432 900 l 496 946 z "},"˚":{"ha":410,"x_min":56,"x_max":354,"o":"m 207 725 q 128 745 163 725 q 75 799 94 765 q 56 874 56 832 q 75 951 56 917 q 128 1004 94 985 q 207 1024 163 1024 q 283 1004 250 1024 q 335 951 315 985 q 354 875 354 917 q 335 798 354 832 q 283 744 315 764 q 207 725 250 725 m 208 781 q 271 808 244 781 q 297 875 297 835 q 271 942 297 915 q 208 968 244 968 q 140 941 165 968 q 114 875 114 914 q 140 808 114 835 q 208 781 165 781 z "},"˜":{"ha":576,"x_min":56,"x_max":521,"o":"m 390 760 q 317 775 347 760 q 258 806 286 790 q 193 821 229 821 q 135 807 156 821 q 96 768 114 793 l 56 804 q 112 860 81 839 q 192 882 143 882 q 269 867 238 882 q 329 836 301 851 q 389 821 357 821 q 442 835 422 821 q 481 874 463 849 l 521 836 q 465 781 496 803 q 390 760 433 760 z "},"¯":{"ha":565,"x_min":56,"x_max":510,"o":"m 56 847 l 510 847 l 510 789 l 56 789 l 56 847 z "},"¸":{"ha":367,"x_min":26,"x_max":351,"o":"m 183 -287 q 100 -274 140 -287 q 26 -233 60 -260 l 69 -190 q 117 -221 89 -210 q 181 -232 146 -232 q 257 -215 231 -232 q 283 -168 283 -199 q 255 -122 283 -139 q 172 -104 226 -104 l 133 -104 l 171 14 l 235 14 l 204 -83 l 176 -56 q 305 -85 258 -54 q 351 -171 351 -117 q 307 -256 351 -225 q 183 -287 263 -287 z "},"˛":{"ha":328,"x_min":51,"x_max":272,"o":"m 176 -287 q 88 -258 125 -287 q 51 -171 51 -229 q 85 -71 51 -124 q 171 22 119 -18 l 214 0 q 137 -81 165 -42 q 108 -165 108 -121 q 128 -221 108 -203 q 183 -239 149 -239 q 218 -233 203 -239 q 250 -217 233 -226 l 272 -256 q 229 -279 253 -271 q 176 -287 206 -287 z "},"ʼ":{"ha":343,"x_min":89,"x_max":256,"o":"m 89 733 l 186 876 l 215 882 q 202 863 211 871 q 179 856 193 856 q 137 874 156 856 q 118 919 118 893 q 138 969 118 949 q 188 989 158 989 q 235 969 215 989 q 256 921 256 949 q 251 891 256 908 q 229 850 246 874 l 135 708 l 89 733 z "}}}
